/* XPM */
static char *result[] = {
/* columns rows colors chars-per-pixel */
"50 50 174 2 ",
"   c #010206",
".  c #000905",
"X  c #01050B",
"o  c #040A0E",
"O  c #0B0A0E",
"+  c #0C070B",
"@  c #020410",
"#  c #050B13",
"$  c #090E14",
"%  c #050F18",
"&  c #0B0E19",
"*  c #100E11",
"=  c #061116",
"-  c #0B1216",
";  c #061019",
":  c #0C141B",
">  c #0E181D",
",  c #0B1A15",
"<  c #171616",
"1  c #12161B",
"2  c #131A1E",
"3  c #1B1B1C",
"4  c #221A17",
"5  c #341D17",
"6  c #1A201C",
"7  c #0F1620",
"8  c #0F1B27",
"9  c #121523",
"0  c #141B22",
"q  c #1A1D23",
"w  c #1C1B2D",
"e  c #241F25",
"r  c #3A1E2A",
"t  c #1C2125",
"y  c #1D242C",
"u  c #1E292F",
"i  c #162123",
"p  c #1D2630",
"a  c #1E2932",
"s  c #222426",
"d  c #282826",
"f  c #22262B",
"g  c #23292E",
"h  c #2B2C2D",
"j  c #2F312E",
"k  c #37372F",
"l  c #242B33",
"z  c #292E34",
"x  c #262F38",
"c  c #2A2F39",
"v  c #273037",
"b  c #2B3134",
"n  c #26313A",
"m  c #2C333B",
"M  c #2D3B3C",
"N  c #323337",
"B  c #383D37",
"V  c #31353B",
"C  c #343A3D",
"Z  c #3D3D3C",
"A  c #480516",
"S  c #580B13",
"D  c #61111A",
"F  c #5B1821",
"G  c #711B26",
"H  c #48292F",
"J  c #44362E",
"K  c #4B2735",
"L  c #5A2A35",
"P  c #4D3538",
"I  c #4F3E3E",
"U  c #55393E",
"Y  c #6E272F",
"T  c #5C4F3F",
"R  c #2A3740",
"E  c #353C42",
"W  c #3A3E42",
"Q  c #3C3D48",
"!  c #413C40",
"~  c #3A4244",
"^  c #444243",
"/  c #44464B",
"(  c #454A4C",
")  c #4C4D4E",
"_  c #494343",
"`  c #504F4D",
"'  c #5A5448",
"]  c #474F52",
"[  c #4B4F53",
"{  c #504F54",
"}  c #4F5356",
"|  c #4C5A5B",
" . c #595B57",
".. c #53575B",
"X. c #575A5F",
"o. c #5B5C5C",
"O. c #535250",
"+. c #644F58",
"@. c #724856",
"#. c #69575C",
"$. c #5C635C",
"%. c #6C644F",
"&. c #6E615B",
"*. c #7F6250",
"=. c #796A5C",
"-. c #756D5A",
";. c #5A5A64",
":. c #696967",
">. c #6D6C69",
",. c #676669",
"<. c #716E67",
"1. c #746C6B",
"2. c #796C66",
"3. c #7A7065",
"4. c #72716F",
"5. c #6B6F73",
"6. c #6E6E78",
"7. c #666973",
"8. c #6C7474",
"9. c #6F767F",
"0. c #7B7A77",
"q. c #71757A",
"w. c #78717B",
"e. c #7D7D7C",
"r. c #75787C",
"t. c #893544",
"y. c #88666D",
"u. c #83716F",
"i. c #8B7A61",
"p. c #937C6A",
"a. c #8B7076",
"s. c #887879",
"d. c #827C71",
"f. c #AC6D75",
"g. c #7E807D",
"h. c #8B806E",
"j. c #97826D",
"k. c #88847E",
"l. c #908979",
"z. c #9A8476",
"x. c #777A81",
"c. c #7E7E82",
"v. c #7F848D",
"b. c #858583",
"n. c #8B8E87",
"m. c #85868B",
"M. c #858A8E",
"N. c #8C8D8E",
"B. c #8B8682",
"V. c #9A8C8B",
"C. c #9E9584",
"Z. c #8A8C91",
"A. c #9C8992",
"S. c #8E9195",
"D. c #8E9798",
"F. c #939291",
"G. c #96959A",
"H. c #93999F",
"J. c #9B9792",
"K. c #A09481",
"L. c #BC8B91",
"P. c #A79F95",
"I. c #A09D99",
"U. c #BE9A9E",
"Y. c #ABA295",
"T. c #969EA1",
"R. c #AAAAA7",
"E. c #A0A5AD",
"W. c #ACADAA",
"Q. c #B4A3A1",
"!. c #BFB4A2",
"~. c #C29598",
"^. c #C0AC93",
"/. c None",
/* pixels */
"/./././././././././././././././././././././././././././././././././././././././././././././././././.",
"/./././././././././././././././././././././././././././././././././././././././././././././././././.",
"/./././././././././././././././././././././././././././././././././././././././././././././././././.",
"/./././././././././././././././././././././././././././././././././././././././././././././././././.",
"/./././././././././././././././././././././././././././././././././././././././././././././././././.",
"/./././././././././././././././././././././././././././././././././././././././././././././././././.",
"/./././././././././././././././././././././././././././././././././././././././././././././././././.",
"/./././././././././././././././././././././././.d.Y./.Y.k.I.W./././././././././././././././././././.",
"/./././././././././././././././././././././././.%.i.^.p.u./././././././././././././././././././././.",
"/././././././././././././././././././././.>.T 5 p.*./.j.T /././././././././././././././././././././.",
"/././././././././././././././././.G.w.+.L F D S f.~././.!.K././././././././././././././././././././.",
"/././././././././././././././.q.z m / A.L.Y G t.A L ! /./.-.K.' 0./././././././././././././././././.",
"/./././././././././././.m.M g W G./././././.U./.@.K r #./.>. .$.~ ] } /././././././././././././././.",
"/././././././././.E.v.Q x T.T./././././././././.P U a././.I M ~ M i ~ c././././././././././././././.",
"/././././././.x.y z c 7././././././././././././.=.z./././.< , $ 2 , q O o./././././././././././././.",
"/././././././...6././././././././././. .N ( ( k l.p.=.J _ 1 9 7 1 2 1 X s /././././././././././././.",
"/././././././././././././././././.h > 2 f q 3 d B n.B 6 i : : 9 w & w ..c./././././././././././././.",
"/././././././././././././././.k b.W.M.h * _ I h f C | # > 2 w 9 @ ;././././././././././././././././.",
"/./././././././././././.G.>.O.g.k.B.s.V.u.2.V.:.f l y = . , . j /./././././././././././././././././.",
"/././././././././././././.` b./.>.2.Q././.&.4 < m m a : 8.u 8./././././././././././././././././././.",
"/./././././././././././././././././././././.e 0 9 p 8 X /./././././././././././././././././././././.",
"/./././././././././././././././././././././.Z.# 0 y l w Q /././././././././././././././././././././.",
"/././././././././././././././././././././././.i q s N +   /././././././././././././././././././././.",
"/././././././././././././././././././././././.M.c.[ X I :./././././././././././././././././././././.",
"/././././././././././././././././././././././.X.s $ q 7.X.Z././././././././././././././././././././.",
"/./././././././././././././././././././././.,.O q i s ~ o g /./././././././././././././././././././.",
"/././././././././././././././././././././. .< 3 s z m 0 2 t ( /././././././././././././././././././.",
"/././././././././././././././././././.J.<.3 3 h x z g l : l t C /./././././././././././././././././.",
"/./././././././././././././././././.B.:./.s z z z V R 8 : l l t ~ /././././././././././././././././.",
"/././././././././././././././././.F.R.N.^ s z z g c l : $ 0 l t 0 W /./././././././././././././././.",
"/./././././././././././././././.e.0.N.t w e f c R c y ; $ 9 y l l 0 3 /././././././././././././././.",
"/././././././././././././././.4.R.b.t z h z z c x c 7 # @ 0 7 y l f g z /./././././././././././././.",
"/././././././././././././././.b.e.t f g l l m m x > v.E X % : 9 l y t > W /././././././././././././.",
"/././././././././././././././.m.d t g l f l y c y E /.x.X @ % 0 ; 0 2 $ $ /././././././././././././.",
"/./././././././././././././.[ t i b y n u l v l q 9././.X X o # i ; > = o /././././././././././././.",
"/././././././././././././.C t V u i u n l l y g 0 ../.E   @ X # o 9 & > % W /./././././././././././.",
"/./././././././././././.V 3 m y n a n n l y z 0 & /./.W X   = > ; > ; > % # /./././././././././././.",
"/././././././././././.b i E v y a n n a u y t g / /./.W   o X o > ; : 8 $ $ /./././././././././././.",
"/./././././././././...f l y a a n a a p l v t o q././.(   X 2 > = 2 $ 7 $ X /./././././././././././.",
"/./././././././././.o b l m p R p n n y u l q 1 /././.W   - < # , : % % % # 5./././././././././././.",
"/././././././././././.f l f l l m x a a m y 0 1 /././.q X 1 # 1 $ 8 ; ; : o 1 /././././././././././.",
"/././././././././././.8.f V l l x x p a y y $ r./././.    1 & : : 7 % % # > O /././././././././././.",
"/././././././././././.S.q g l l a a v p l 0 2 /./././.  X 1 & 9 7 8 % : > > X V /./././././././././.",
"/./././././././././././.E s z R l l l x l X 6./././.s + X O 2 2 8 # % : 7 # C /././././././././././.",
"/././././././././././././.0 f q q y y 0 q o /./././.{     o 0 1 $ # # # @ z /./././././././././././.",
"/././././././././././././.q.M.[ W E /.,.m././././././././.N X $ W m ( /././././././././././././././.",
"/./././././././././././.N.G.Z./././././././././././././././././././.[ ;././././././././././././././.",
"/./././././././././././.o.W /././././././././././././././././././././.F././././././././././././././.",
"/./././././././././././.F./././././././././././././././././././././././././././././././././././././.",
"y.H /./././././././././././././././././././././././././././././././././././././././././././././././."
};
