/* XPM */
static char *result[] = {
/* columns rows colors chars-per-pixel */
"50 50 222 2 ",
"   c #020202",
".  c #01040B",
"X  c #060809",
"o  c #130D0B",
"O  c #051803",
"+  c #050C13",
"@  c #0A0C13",
"#  c #040C16",
"$  c #120D12",
"%  c #0B1215",
"&  c #0B141B",
"*  c #031515",
"=  c #121315",
"-  c #12161B",
";  c #131B1D",
":  c #191A18",
">  c #12130D",
",  c #231D15",
"<  c #331918",
"1  c #1F201C",
"2  c #032E14",
"3  c #292D12",
"4  c #0E1A21",
"5  c #131C23",
"6  c #1A1C22",
"7  c #141E28",
"8  c #1C2326",
"9  c #1C242B",
"0  c #1C2A2D",
"q  c #17212A",
"w  c #1E2831",
"e  c #0F2322",
"r  c #232524",
"t  c #23252A",
"y  c #242A2D",
"u  c #2C2B2B",
"i  c #2B2626",
"p  c #39322E",
"a  c #232C33",
"s  c #292E35",
"d  c #262F39",
"f  c #2C3234",
"g  c #263239",
"h  c #2A333B",
"j  c #243236",
"k  c #3A3A3D",
"l  c #353738",
"z  c #332D2B",
"x  c #481115",
"c  c #551D20",
"v  c #59272C",
"b  c #4B3435",
"n  c #643636",
"m  c #0D5309",
"M  c #24601A",
"N  c #175B20",
"B  c #354A3C",
"V  c #52453B",
"C  c #46433C",
"Z  c #62413C",
"A  c #2B3643",
"S  c #3A3E44",
"D  c #6D3842",
"F  c #3C4246",
"G  c #3F574A",
"H  c #464748",
"J  c #58524B",
"K  c #474C56",
"L  c #4C5558",
"P  c #595958",
"I  c #4F504E",
"U  c #674B47",
"Y  c #675A55",
"T  c #754A51",
"R  c #5C615F",
"E  c #6D6456",
"W  c #595C62",
"Q  c #5C6366",
"!  c #696A67",
"~  c #696F72",
"^  c #776D72",
"/  c #757577",
"(  c #6B717D",
")  c #86775E",
"_  c #847E6F",
"`  c #A37074",
"'  c #3FE13D",
"]  c #4AAA5A",
"[  c #3FE646",
"{  c #4EDD4C",
"}  c #49DB48",
"|  c #51DD4C",
" . c #4FD655",
".. c #53DD53",
"X. c #5BDA5D",
"o. c #58D859",
"O. c #62D35F",
"+. c #44E343",
"@. c #4AE446",
"#. c #44EA45",
"$. c #47E549",
"%. c #4CE44C",
"&. c #46EB4A",
"*. c #4BEB4B",
"=. c #48E946",
"-. c #51E54D",
";. c #50EA4C",
":. c #4EE352",
">. c #4DEB51",
",. c #54E354",
"<. c #5BE459",
"1. c #5AE856",
"2. c #49F04A",
"3. c #63E55C",
"4. c #66E85E",
"5. c #5FD960",
"6. c #62D461",
"7. c #65DB66",
"8. c #77DC74",
"9. c #6CD86E",
"0. c #56EA62",
"q. c #64EA62",
"w. c #6CEB63",
"e. c #6DEC6B",
"r. c #6BE86D",
"t. c #74E76C",
"y. c #7BE56E",
"u. c #73EB6D",
"i. c #7AE96E",
"p. c #73EA66",
"a. c #6DF169",
"s. c #76F26C",
"d. c #76E673",
"f. c #7CE573",
"g. c #76EA73",
"h. c #7BE972",
"j. c #7BE57A",
"k. c #79E979",
"l. c #948971",
"z. c #84DF74",
"x. c #82E275",
"c. c #82E37C",
"v. c #89E87C",
"b. c #757A81",
"n. c #A27A83",
"m. c #7A8185",
"M. c #898789",
"N. c #948A87",
"B. c #99948B",
"V. c #949495",
"C. c #8A9390",
"Z. c #A39595",
"A. c #A1948B",
"S. c #96BE89",
"D. c #B1B29E",
"F. c #BAB1AB",
"G. c #ADA8A3",
"H. c #85D984",
"J. c #8DE483",
"K. c #8BEA83",
"L. c #8CEB8B",
"P. c #87E685",
"I. c #94EA8D",
"U. c #94E789",
"Y. c #9BEC93",
"T. c #9BEB95",
"R. c #98F295",
"E. c #8FF98F",
"W. c #A7E69F",
"Q. c #A9E59F",
"!. c #A4EB9D",
"~. c #A9E99D",
"^. c #A2EC94",
"/. c #A2F19C",
"(. c #B6CAA6",
"). c #AEDFA3",
"_. c #A8D2AC",
"`. c #B7DFAA",
"'. c #ABE5A2",
"]. c #A6EAA1",
"[. c #ABE9A3",
"{. c #A9E6A7",
"}. c #B1E3A5",
"|. c #B5E4AA",
" X c #BBE4AE",
".X c #B1ECA7",
"XX c #A8F2A5",
"oX c #BEE7B4",
"OX c #B0F2B1",
"+X c #C2E6B5",
"@X c #C3EAB4",
"#X c #C4EAB9",
"$X c #CBECBD",
"%X c #C8E6BB",
"&X c #D1ECBE",
"*X c #D1E2BE",
"=X c #CCF1BD",
"-X c #C4F6BB",
";X c #D0DEC8",
":X c #CDEDC2",
">X c #D5E6C6",
",X c #D4EBC5",
"<X c #D9E9C6",
"1X c #D6E5CA",
"2X c #DAE5CC",
"3X c #D6EAC9",
"4X c #DAEACB",
"5X c #D8E7C6",
"6X c #D3F3C7",
"7X c #DBE5D1",
"8X c #DDE9D3",
"9X c #DAE5D5",
"0X c #DAFCDB",
"qX c #CAFFD1",
"wX c #E1E9D6",
"eX c #E3ECD9",
"rX c #E0E7D7",
"tX c #E8F0DF",
"yX c #E9EEE1",
"uX c #EAF2E3",
"iX c #EDF8E8",
"pX c None",
/* pixels */
"pXpXpXpXpXpXpXpXpXpXpXpXpXpXpXpXpXpXpXpXT.6.{ @.@.-.q.s.g.k.g.j.v.R.^.~..X@X+X:X3X1X9X8XpXpXpXpXpXpX",
"pXpXpXpXpXpXpXpXpXpXpXpXpXpXpXpXpXpXpXpXpXpXP. .*.@.,.<.e.g.g.h.x.v.^./.Q.Q.|.#X,X3X1X1XeXpXpXpXpXpX",
"pXpXpXpXpXpXpXpXpXpXpXpXpXpXpXpXpXpXpXpXpXpXpXJ.{ *.%.,.<.e.u.i.x.x.v./.~.W.'.{.#X6X,X1X8XpXpXpXpXpX",
"pXpXpXpXpXpXpXpXpXpXpXpXpXpXpXpXpXpXpXpXpXpXpXpX7.:.>.$.,.4.p.t.x.z.v.^.^.W.{.{. X#X,X,X1XeXpXpXpXpX",
"pXpXpXpXpXpXpXpXpXpXpXpXpXpXpXpXpXpXpXpXpXpXpXpXE...:.+.>.,.p.u.i.y.x.v.T.XX].{.}. X$X6X>X1XyXpXpXpX",
"pXpXpXpXpXpXpXpXpXpXpXpXpXpXpXpXpXpXpXpXpXpXpXpXpX7...{ *.%.w.u.i.x.z.x.I.R.].].'.}.$X6X,X>X8XpXpXpX",
"pXpXpXpXpXpXpXpXpXpXpXpXpXpXpXpXpXpXpXpXpXpXpXpXpXH.o.%.#.@.1.u.t.h.y.f.J.T.].].|.).oX$X,X2X2XpXpXpX",
"pXpXpXpXpXpXpXpXpXpXpXpXpXpXpXpXpXpXpXpXpXpXpXpXpXOXX.-.#.#...e.t.i.y.x.c.Y.~.].[.'.|.#X:X3X2XwXpXpX",
"pXpXpXpXpXpXpXpXpXpXpXpXpXpXpXpXpXpXpXpXpXpXpXpXpXpXd.%.[ &.:.q.e.g.i.y.z.U.^.~.'.'.'.oX:X,X2X2XpXpX",
"pXpXpXpXpXpXpXpXpXpXpXpXpXpXpXpXpXpXpXpXpXpXpXpXpXpXL.{ &.[ :.q.g.t.g.h.z.U.~.Q.'.'.'. X$X,X8X2XyXpX",
"pXpXpXpXpXpXpXpXpXpXpXpXpXpXpXpXpXpXpXpXpXpXpXpXpXpXL.o.&.[ &.1.u.h.f.g.f.c.I.~.].[.'.}.$X,X1X7XeXpX",
"pXpXpXpXpXpXpXpXpXpXpXpXpXpXpXpXpXpXpXpXpXpXpXpXpXpXL. .*.&.&.:.p.h.f.d.t.x.U./.].'.W.[.#X6X3X2X8XpX",
"pXpXpXpXpXpXpXpXpXpXpXpXpXpXpXpXpXpXpXpXpXpXpXpXpXpXR. .:.&.&.%.p.h.f.d.y.f.J.^.].].Q.'.oX:X2X7X2XwX",
"pXpXpXpXpXpXpXpXpXpXpXpXpXpXpXpXpXpXpXpXpXpXpXpXpXpXpXo.%.#.#.-.w.i.g.d.g.f.J.!.].[.Q.'. X:X3X7X2X4X",
"pXpXpXpXpXpXpXpXpXpXpXpXpXpXpXpXpXpXpXpXpXpXpXpXpXpXpX7.:.+.#.%.q.h.f.h.y.y.P.Y.!.].~.'.|.$X3X2X4X2X",
"pXpXpXpXpXpXpXpXpXpXpXpXpXpXpXpXpXpXpXpXpXpXpXpXpXpXpX6.,.*.&.$.<.g.f.d.h.y.c.R.].].].Q.|.#X3X4X4X2X",
"pXpXpXpXpXpXpXpXpXpXpXpXpXpXpXpXpXpXpXZ.pXpXpXpXpXpXpX6.,.*.#.$.<.g.g.f.h.f.c.Y.!.!.!.~.'.#X3X2X2X2X",
"pXpXpXpXpXpXpXpXpXpXpXpXpXpXpXpXpXpXpXpXb T pXpXpXpXpXO.,.@.&.*.<.u.g.g.h.y.c.R.!.~.].~.).#X3X3X<X5X",
"pXpXpXpXpXpXpX^ k pXpXpXpXpXpXpXpXpXpXpXn.v ` pXpXpXpXO. .*.[ $.<.g.f.t.h.h.c.R.!.].!.~.{.#X,X3X5X4X",
"pXpXpXpXpXpXpXpXpXR M.I B.pXpXpXpXpXpXpXpXD v pXpXpXpX9.-.*.&.$.<.g.g.d.h.i.c.R.T.].!.W.|.oX,X>X5X2X",
"pXpXpXpXpXpXpXpXpXI Q B.N.Z.^ / P pXpXpXpXpXx pXpXpX^.o.| *.*.*.<.u.g.d.h.y.c.T.].].~.Q.}.+X,X3X<X2X",
"pXpXpXpXpXpXpXpXpXpX; l J Y P t 5 ; u ^ pXpXv x U pXT.5.-.+.[ *.3.t.g.d.h.f.v.^.].[.].Q.}.+X,X3X3X3X",
"pXpXpXpXpXpXpXpXpXpXpXu   o = j 9 & - u i < n v z D.R.o.;.#.#.} 3.t.g.g.d.f.v.!.].[.].'.}.+X<X3X3X1X",
"pXpXpXpXpXpXpXpXpXpXpXpXpX! ; 1 ; & a t i U n U Y (.I.o.@.#.2.=.w.t.g.g.t.f.H.^.].'.].'.|.#X,X3X,X3X",
"pXpXpXpXpXpXpXpXpXpXpXpXpXpXpXa + + y y I N.) E D.pXL...@.#.#.@.w.t.g.k.g.h.J.W.'.[.Q.Q.|.$X,X<X<X3X",
"pXpXpXpXpXpXpXpXpXpXpXpXpXpXpXpXK @ j f M.G.U F.V (.R.{ *.#.' -.w.u.g.k.d.f.U.Q.].'.'.}. X$X6X3X3X1X",
"pXpXpXpXpXpXpXpXpXpXpXpXpXpXpXpXpX6 i i ! F.J : u oXE.$.+.#.;.-.q.u.k.k.d.f.T.Q.'..XQ.).`.:X:X3X1X8X",
"pXpXpXpXpXpXpXpXpXpXpXpXpXpXpXpX6 p : r / ~   > u _.r.} =.*.+.1.e.u.j.j.t.f.T.Q.Q..X'.}. X,X,X<X1X9X",
"pXpXpXpXpXpXpXpXpXpXpXpXpXpXpXM.t t = : H 8 % = L 0Xo.=.2.' -.1.a.u.g.f.u.x.^.~.Q.[.'.}. X&X&X<X3X7X",
"pXpXpXpXpXpXpXpXpXpXpXpXpXpX~ / / 8 @ s + . & % L 0XO.@.=.2.@.1.a.u.g.f.u.x.^.~.~.].Q.|.@X$X,X<X2X7X",
"pXpXpXpXpXpXpXpXB.l.Y Y C i     k F ; % & 4 * e G qX5.@.@.;.| 4.s.t.h.h.i.v.^.~.~.].'.}.@X&X<X5X4X7X",
"pXpXpXpXpXB.p H pXpXpXB.H > 1 f C.Q 8 # 4 4 4 e G XXX.;.=.' 1.p.u.i.c.k.x.v.^.~.].~.Q.|.=X$X<X5X2X2X",
"pXpXpXP I M.pXpXpXpXpXY 1 r r u Q S 4 5 # 4 # e 2 ] :.[ &.>.{ a.e.g.j.j.j.L.!.].].].[.|.=X&X<X<X2X7X",
"pXpXpXpXpXpXpXpXpXpXR r y f y ~ C.. # 5 . # q * 2 ] 0.[ &.%.,.r.g.g.j.j.j.L.T.].].'.}.|.=X&X<X4X7X7X",
"pXpXpXpXpXpXpXpXpXQ 9 t 1 f y F s # # & . # 6 O N 9.>.&.@.;.| s.t.h.j.8.c.I.~.[.].).'. X&X,X<X<XrX7X",
"pXpXpXpXpXpXpXpXW 9 y 7 0 y j j 7 # # . . @ $ X N 6.:.2.+.-.4.p.i.f.f.j.L.Y.~.Q.[.'.). X=X<X<X5X2XrX",
"pXpXpXpXpXpXW H q 4 w j j 0 0 e # L b.@ o > B O m 7.-.;.@.-.s.y.i.y.y.8.U.^.~.Q.}.).}.@X,X,X4X4X2X9X",
"pXpXpXpXQ y 8 a A A w g j j w e A pXpXK   b l.3 m 9.o.%.,.3.h.y.i.x.h.K.Y.!.~.'.).`.+X$X,X,X4X4X7XeX",
"pXpXF 6 = y 9 s g g A j g 0 g 4 S pXM.X   < l.3 M 9.6.X.p.g.j.c.f.c.P.R.R.].'.'. X+X$X,X<X<X4X2X9XuX",
"pXH ; g 9 a q 9 w g h g 0 4 & 4 ( d . b Y V ) E S.[.T.L.P.c.H.H.J.U.Y.T.[.{..X X@X%X,X,X<X>X2X2X9XpX",
"~ 6 a 9 w w a a g d 8 0 ; & + L K . 6 : b b ) l.(.6X-XOX.X{.|.oX|..X[..X X+X%X&X<X&X,X<X<X4X4X7X8XpX",
"6 6 a a w d a a d a 8 % & * & m.# 5 @ $ o , V _ A.wX0X:X6X:X$X,X&X=X=X$X>X<X<X<X<X<X5X<X<X4X2X2X8XpX",
"5 t a 9 A w a d g d 5 & & * pXK @ @ - - - = % F i ! C.;X4X1X4X<X,X<X&X,X4X*X3X4X<X<X<X<X<X4X2X7XuXpX",
"S a s 7 h 7 d h h q & 4 . P pX/ X 7 - - 6 & 4 & & X   B 9X9X>X4X<X<X<X<X4X<X3X>X5X<X5X5X5X4X2X7XuXpX",
"pXs a s h d s d 7 # ; & . pXpXpXF   6 % + 7 & & % & > 1 pXpXeXwX4X4X4X1X1X2X8X>X1X4X4X4X5X4X2X2XuXpX",
"pXW t s t s a 5 # 4 % . b.pXpXpXpXH % % 6 5 # 4 %   B R pXpXpXpXpX4X8X7X1X1X4X9X1X4X4X2X4X4X2X7XpXpX",
"pXpXpX6 t 7 & % + . & F pXpXpXpXpXpXm.; .   + . s k V.pXpXpXpXpXpXuXpXiXeX9X9X9X2X1X;X4X2X2X7XrXpXpX",
"pXpXpXl H k l f pXpXpXpXpXpXpXpXpXpXpXpXpXpXpXpXpXpXH pXpXpXpXpXpXpXpXpXyXpXuXuXiX8X7X7X7X2X7XtXpXpX",
"pXpXL pXpXpXpXpXpXpXpXpXpXpXpXpXpXpXpXpXpXpXpXpXpXpXpXpXpXpXpXpXpXpXpXpXpXpXpXpXpXpXpXuXeX2XeXpXpXpX",
"pXpXpXpXpXpXpXpXpXpXpXpXpXpXpXpXpXpXpXpXpXpXpXpXpXpXpXpXpXpXpXpXpXpXpXpXpXpXpXpXpXpXpXpXpX7XpXpXpXpX"
};
