/* XPM */
static char *result[] = {
/* columns rows colors chars-per-pixel */
"50 50 160 2 ",
"   c #010205",
".  c #01040C",
"X  c #04090E",
"o  c #0B0E0E",
"O  c #000610",
"+  c #040C14",
"@  c #090E14",
"#  c #010619",
"$  c #050F18",
"%  c #0A0E1D",
"&  c #071015",
"*  c #0C1116",
"=  c #061119",
"-  c #0B141B",
";  c #0D181E",
":  c #111213",
">  c #191514",
",  c #181914",
"<  c #12161B",
"1  c #14191E",
"2  c #1B1B1E",
"3  c #231D1F",
"4  c #3D1A18",
"5  c #0D1622",
"6  c #0D1922",
"7  c #131C24",
"8  c #191E24",
"9  c #151F29",
"0  c #1B1F2A",
"q  c #211F22",
"w  c #162127",
"e  c #1D2227",
"r  c #16202A",
"t  c #1C242B",
"y  c #1F292F",
"u  c #1E2730",
"i  c #1D2931",
"p  c #162333",
"a  c #232425",
"s  c #23252A",
"d  c #24292D",
"f  c #2B2C2B",
"g  c #31312F",
"h  c #242C33",
"j  c #2A2E34",
"k  c #273035",
"l  c #2C3235",
"z  c #2C343B",
"x  c #26333B",
"c  c #333434",
"v  c #33363A",
"b  c #343A3D",
"n  c #3A3C3C",
"m  c #55050E",
"M  c #490C14",
"N  c #510310",
"B  c #510B15",
"V  c #58181B",
"C  c #441C24",
"Z  c #531E26",
"A  c #5B1C25",
"S  c #482624",
"D  c #523B33",
"F  c #6A242E",
"G  c #46423F",
"H  c #454233",
"J  c #564035",
"K  c #5C443A",
"L  c #3A3E42",
"P  c #753543",
"I  c #3D4246",
"U  c #474745",
"Y  c #4C4644",
"T  c #494947",
"R  c #43474D",
"E  c #45494E",
"W  c #4B4B4B",
"Q  c #564D4C",
"!  c #4F554B",
"~  c #52514C",
"^  c #494D51",
"/  c #4C5056",
"(  c #4F545A",
")  c #545453",
"_  c #5A5750",
"`  c #5B5A56",
"'  c #545258",
"]  c #58525C",
"[  c #54595D",
"{  c #5A5A5A",
"}  c #754145",
"|  c #615E59",
" . c #685E5F",
".. c #645D55",
"X. c #6E6254",
"o. c #61605D",
"O. c #776153",
"+. c #585F69",
"@. c #5C5E63",
"#. c #635F60",
"$. c #5D6265",
"%. c #656565",
"&. c #6B6764",
"*. c #666A6D",
"=. c #6A6B6B",
"-. c #736D6D",
";. c #76766A",
":. c #7A746D",
">. c #676B70",
",. c #6A6D71",
"<. c #6F7274",
"1. c #747575",
"2. c #7B7574",
"3. c #7E7A76",
"4. c #727679",
"5. c #7C7C7B",
"6. c #834C4F",
"7. c #816766",
"8. c #876865",
"9. c #8A676B",
"0. c #9A6874",
"q. c #817A75",
"w. c #857979",
"e. c #AA787E",
"r. c #86837D",
"t. c #8A8278",
"y. c #9F877B",
"u. c #93857A",
"i. c #B3847F",
"p. c #757A80",
"a. c #7B7E83",
"s. c #7D8385",
"d. c #7D848C",
"f. c #868485",
"g. c #8A8887",
"h. c #83858A",
"j. c #8E8D8C",
"k. c #958A8A",
"l. c #8B908E",
"z. c #94918C",
"x. c #8E8E91",
"c. c #8E9297",
"v. c #969393",
"b. c #9C9C9E",
"n. c #A49286",
"m. c #A19088",
"M. c #A59A99",
"N. c #BCAF9F",
"B. c #989AA0",
"V. c #9C9FAA",
"C. c #A1A5A9",
"Z. c #A3A2A3",
"A. c #B7AEAF",
"S. c #ACB4BB",
"D. c #BFBBBA",
"F. c #B7B5B3",
"G. c #C0ADAD",
"H. c #CCBBB0",
"J. c #C8C0B3",
"K. c None",
/* pixels */
"K.K.K.K.K.K.K.K.K.K.K.K.K.K.K.K.K.K.K.K.K.K.K.K.K.K.K.K.K.K.K.K.K.K.K.K.K.K.K.K.K.K.K.K.K.K.K.K.K.K.",
"K.K.K.K.K.K.K.K.K.K.K.K.K.K.K.K.K.K.K.K.K.K.K.K.K.K.K.K.K.K.K.K.K.K.K.K.K.K.K.K.K.K.K.K.K.K.K.K.K.K.",
"K.K.K.K.K.K.K.K.K.K.K.K.K.K.K.K.K.K.K.K.K.K.K.K.K.K.K.K.K.K.K.K.K.K.K.K.K.K.K.K.K.K.K.K.K.K.K.K.K.K.",
"K.K.K.K.K.K.K.K.K.K.K.K.K.K.K.K.K.K.K.K.K.K.K.K.K.K.K.K.K.K.K.K.K.K.K.K.K.K.K.K.K.K.K.K.K.K.K.K.K.K.",
"K.K.K.K.K.K.K.K.K.K.K.K.K.K.K.K.K.K.K.K.K.K.K.K.K.K.K.K.K.K.K.K.K.K.K.K.K.K.K.K.K.K.K.K.K.K.K.K.K.K.",
"K.K.K.K.K.K.K.K.K.K.K.K.K.K.K.K.K.K.K.K.K.K.K.K.K.K.K.K.K.K.K.K.K.K.K.K.K.K.K.K.K.K.K.K.K.K.K.K.K.K.",
"K.K.K.K.K.K.K.K.K.K.K.K.K.K.K.K.K.K.K.K.K.K.K.K.K.K.K.K.K.K.K.K.K.K.K.K.K.K.K.K.K.K.K.K.K.K.K.K.K.K.",
"K.K.K.K.K.K.K.K.K.K.K.K.K.K.K.K.K.K.K.K.K.K.K.K.K.K.K.K.K.K.K.K.K.K.K.K.K.K.K.K.K.K.K.K.K.K.K.K.K.K.",
"K.K.K.K.K.K.K.K.K.K.K.K.K.K.K.K.K.K.K.K.K.K.K.K.K.K.K.K.K.K.K.K.K.K.K.K.K.K.K.K.K.K.K.K.K.K.K.K.K.K.",
"K.K.K.K.K.K.K.K.K.K.K.K.K.K.K.K.K.K.K.K.K.K.K.K.K.K.K.K.K.K.K.K.K.K.K.K.K.K.K.K.K.K.K.K.K.K.K.K.K.K.",
"K.K.K.K.K.K.K.K.K.K.K.K.K.K.K.K.K.K.K.K.K.K.K.K.i.V } K.K.K.K.K.K.K.K.K.K.K.K.K.K.K.K.K.K.K.K.K.K.K.",
"K.K.K.K.K.K.K.K.K.K.K.K.K.K.K.K.K.K.K.K.K.K.9.6.V m N P 0.K.K.K.K.K.K.K.K.K.K.4.*.K.K.K.K.K.K.K.K.K.",
"K.K.K.K.K.K.K.K.K.K.K.K.K.K.K.K.K.K.K.K.K.K.K.e.M F B A Z C K.K.K.K.K.K.K.K.K.I h.K.K.K.K.K.K.K.K.K.",
"K.K.K.K.K.K.K.K.K.K.K.K.K.K.K.K.K.K.K.K.K.K.K.K.K.K.8.4 S 7.K.K.K.K.K.K.K.K.K.d K.K.K.K.K.K.K.K.K.K.",
"K.K.K.K.K.K.K.K.K.K.K.K.K.K.K.K.K.K.K.K.K.K.K.K.K.K.t.D K m.K.K.K.K.K.K.K.K.K.^ K.K.K.K.K.K.K.K.K.K.",
"K.K.K.K.K.K.K.K.K.K.K.K.K.K.K.K.K.K.K.K.K.K.K.K.K.K.:.J y.H.K.K.K.K.K.K.K.K.K.>.K.K.K.K.K.K.K.K.K.K.",
"K.K.K.K.K.K.K.K.K.K.K.K.K.K.K.K.K.K.K.K.K.K.K.K.L z _ n.O.O.K.K.K.K.K.K.K.K./ >.K.K.K.K.K.K.K.K.K.K.",
"K.K.K.K.K.K.K.K.K.K.K.K.K.K.K.K.K.K.K.K.K.K.K.V.t 7 ` u.N.H ! K.K.K.K.K.K.K.b >.K.K.K.K.K.K.K.K.K.K.",
"K.K.K.K.K.K.K.K.K.K.K.K.K.K.K.K.K.K.K.K.K.K.] 0 u k g :.J.;.  K.K.K.K.K.K.K.E h.K.K.K.K.K.K.K.K.K.K.",
"K.K.K.K.K.K.K.K.K.K.K.K.K.K.K.K.K.K.K.M.A.2.> 8 + y l :.q.~   ) K.K.K.K.K.K.[ K.K.K.K.K.K.K.K.K.K.K.",
"K.K.K.K.K.K.K.K.K.K.K.K.K.K.K.K.K.K.G.w. .v.2 < - d e n l.T   ' K.K.K.K.K.K.s.K.K.K.K.K.K.K.K.K.K.K.",
"K.K.K.K.K.K.K.K.K.K.K.K.K.K.K.K.K.k.w.-.#.c X o o f j 8 v l X s K.K.K.K.K.$.c.K.K.K.K.K.K.K.K.K.K.K.",
"K.K.K.K.K.K.K.K.K.K.K.K.K.K.K.K.j.2.Y a q h.j.=.> q v z 9 9 . O @.K.K.K.K.1.C.K.K.K.K.K.K.K.K.K.K.K.",
"K.K.K.K.K.K.K.K.K.K.K.K.K.K.K.=.{ f 1.K.K.K.K.K.Q 3 s L p # % * & 5.K.K.K.L K.K.K.K.K.K.K.K.K.K.K.K.",
"K.K.K.K.K.K.K.K.K.K.K.K.K.K.K.K.K.K.K.K.K.K.K.K.:.Y : 5 6 5 % O l =.K.K.v.=.K.K.K.K.K.K.K.K.K.K.K.K.",
"K.K.K.K.K.K.K.K.K.K.K.K.K.K.K.K.K.K.K.K.K.K.K.l.r.) R <.d.+.7 $ b &.q.K.o.g.K.K.K.K.K.K.K.K.K.K.K.K.",
"K.K.K.K.K.K.K.K.K.K.K.K.K.K.K.K.K.K.K.K.K.K.K.~ , n K.=.s.X 5 7 ( G ..q.q.K.K.K.K.K.K.K.K.K.K.K.K.K.",
"K.K.K.K.K.K.K.K.K.K.K.K.K.K.K.K.K.K.K.K.K.K.T f c W 1.L j 8 5 - ' K.K.Y :.K.K.K.K.K.K.K.K.K.K.K.K.K.",
"K.K.K.K.K.K.K.K.K.K.K.K.K.K.K.K.K.K.K.K.K.%.f f d 8 L < - < - t 8 K.K.Y z.F.K.K.K.K.K.K.K.K.K.K.K.K.",
"K.K.K.K.K.K.K.K.K.K.K.K.K.K.K.K.K.K.K.K.` : e v k l 1 8 % - h t : =.K.3.-.D.K.K.K.K.K.K.K.K.K.K.K.K.",
"K.K.K.K.K.K.K.K.K.K.K.K.K.K.K.K.K.K.K.T a f z l l h r - = % t j s 2 ~ f.H.K.K.K.K.K.K.K.K.K.K.K.K.K.",
"K.K.K.K.K.K.K.K.K.K.K.K.K.K.K.K.K.K.&.: 2 c k k i y 7 . O 7 * t s c a C.K.K.K.K.K.K.K.K.K.K.K.K.K.K.",
"K.K.K.K.K.K.K.K.K.K.K.K.K.K.K.K.K.W : d c f t L 6 5 - O + $ r 7 s s c 2.K.K.K.K.K.K.K.K.K.K.K.K.K.K.",
"K.K.K.K.K.K.K.K.K.K.K.K.K.K.K.K.o.f.a f l h k u p 5 $ . X * 8 8 8 s c s K.K.K.K.K.K.K.K.K.K.K.K.K.K.",
"K.K.K.K.K.K.K.K.K.K.K.K.K.K.K.%.F.%.k d l s h 7 - = . O $ $ 5 8 s v d h <.K.K.K.K.K.K.K.K.K.K.K.K.K.",
"K.K.K.K.K.K.K.K.K.K.K.K.K.K.5.K.1.a d t h h h t 9 # . . + % < 7 9 h j h * K.K.K.K.K.K.K.K.K.K.K.K.K.",
"K.K.K.K.K.K.K.K.K.K.K.K.K.K.K.K., t z z h z 9 8 < O # . O @ 5 < - t y d 1 l K.K.K.K.K.K.K.K.K.K.K.K.",
"K.K.K.K.K.K.K.K.K.K.K.K.K.K.K.8 d u t e h z s s 7 . 7 O % O + 7 w 7 7 w 7 + K.K.K.K.K.K.K.K.K.K.K.K.",
"K.K.K.K.K.K.K.K.K.K.K.K.K.K.U s e h r 5 h d s 7 @   a.q . @ 9 - - 6 i p ; - l K.K.K.K.K.K.K.K.K.K.K.",
"K.K.K.K.K.K.K.K.K.K.K.K.K.*.- e k u u t z d e 2 : . h.*   O % 9 6 - 6 - w 7   =.K.K.K.K.K.K.K.K.K.K.",
"K.K.K.K.K.K.K.K.K.K.K.K.K.X a d u u x u u h < <   s K.E O * 7 - ; 6 ; = = & - z K.K.K.K.K.K.K.K.K.K.",
"K.K.K.K.K.K.K.K.K.K.K.K.,.@ e 9 t t t k u l 2 <   a K.s.@ = - 9 = = ; & ; * 1   K.K.K.K.K.K.K.K.K.K.",
"K.K.K.K.K.K.K.K.K.K.K.K.X s 1 d 9 h 7 h h j < * . 8 K.a.X + $ $ 6 9 & 6 & & 1 & ^ K.K.K.K.K.K.K.K.K.",
"S.K.K.K.K.K.K.K.K.K.K.K.$.d 9 k 9 p 9 h z e < *   f K.4.@ % = - ; ; ; ; & & X + - K.K.K.K.K.K.K.K.K.",
"I K.K.K.K.K.K.K.K.K.K.K.K.1 h d k u k h 1 @ X 8   1 K.a.  - * $ 5 - 6 + 9 - * X L K.K.K.K.K.K.K.K.K.",
"@.K.K.K.K.K.K.K.K.K.K.K.K.t 8 8 s r h 9 s O : @ s { K.K.X X 7 7 + & 6 = $ * < 8 K.K.K.K.K.K.K.K.K.K.",
"K.K.K.K.K.K.K.K.K.K.K.K.K.K.p.E L e e 1 8 b K.K.K.K.K.K.K.R X O < @ X @ * j s a.K.K.K.K.K.K.K.K.K.K.",
"K.K.K.K.K.K.K.K.K.K.K.K.K.K.K.B.K.K.K.K.K.K.K.K.K.K.K.K.K.K.K.I d s j b K.K.h.=.b.K.K.K.K.K.K.K.K.K.",
"K.K.K.K.K.K.K.K.K.K.K.K.K.h.x.=.K.K.K.K.K.K.K.K.K.K.K.K.K.K.K.K.K.K.K.K.K.K.K.K.) &.K.K.K.K.K.K.K.K.",
"K.K.K.K.K.K.K.K.K.K.K.K.K.j.j.K.K.K.K.K.K.K.K.K.K.K.K.K.K.K.K.K.K.K.K.K.K.K.K.K.K.K.K.K.K.K.K.K.K.K."
};
