/* XPM */
static char *result[] = {
/* columns rows colors chars-per-pixel */
"50 50 223 2 ",
"   c #020403",
".  c #01050D",
"X  c #04090C",
"o  c #0B0D0E",
"O  c #060400",
"+  c #0D140F",
"@  c #041F0C",
"#  c #13120E",
"$  c #1A1309",
"%  c #040B13",
"&  c #0A0E15",
"*  c #080E1A",
"=  c #0C1315",
"-  c #071019",
";  c #0C131B",
":  c #071715",
">  c #131314",
",  c #13161C",
"<  c #13191D",
"1  c #1B1C19",
"2  c #1A1210",
"3  c #170909",
"4  c #2A1E19",
"5  c #002000",
"6  c #0F2E13",
"7  c #21221F",
"8  c #2A2017",
"9  c #37291C",
"0  c #0F1720",
"q  c #0F1C23",
"w  c #141B22",
"e  c #1B1C23",
"r  c #181B25",
"t  c #1B2126",
"y  c #17222A",
"u  c #1C252B",
"i  c #1E282E",
"p  c #162127",
"a  c #1D2931",
"s  c #222424",
"d  c #21262B",
"f  c #232A2E",
"g  c #2B2C2C",
"h  c #242827",
"j  c #32312F",
"k  c #232D34",
"l  c #2A2D34",
"z  c #232F38",
"x  c #2C3134",
"c  c #26313A",
"v  c #2A333A",
"b  c #293432",
"n  c #33353B",
"m  c #383836",
"M  c #2E2F2F",
"N  c #4A1315",
"B  c #5B1A22",
"V  c #433C36",
"C  c #4D3433",
"Z  c #642534",
"A  c #612324",
"S  c #0F4C11",
"D  c #20691C",
"F  c #314633",
"G  c #434337",
"H  c #62463A",
"J  c #2D3941",
"K  c #343B43",
"L  c #753C43",
"P  c #3E464C",
"I  c #43444A",
"U  c #474948",
"Y  c #574B46",
"T  c #4A4D51",
"R  c #595452",
"E  c #5C5D5B",
"W  c #565758",
"Q  c #4E5255",
"!  c #6A5B4A",
"~  c #685A59",
"^  c #755A56",
"/  c #75464B",
"(  c #766453",
")  c #555C63",
"_  c #5D6461",
"`  c #5F646A",
"'  c #656B6B",
"]  c #6A6968",
"[  c #687767",
"{  c #777269",
"}  c #6B7176",
"|  c #7B7B7B",
" . c #797876",
".. c #746464",
"X. c #8D5255",
"o. c #81705E",
"O. c #8A797A",
"+. c #82686B",
"@. c #A66A76",
"#. c #28852A",
"$. c #6B9668",
"%. c #46DB46",
"&. c #5ADD4E",
"*. c #53DB4C",
"=. c #54DD52",
"-. c #5CDB5B",
";. c #57D657",
":. c #61DA58",
">. c #65C85E",
",. c #47E44A",
"<. c #4CE44B",
"1. c #48E747",
"2. c #53E549",
"3. c #4FE551",
"4. c #53E452",
"5. c #5AE255",
"6. c #5BE758",
"7. c #61E55D",
"8. c #59D163",
"9. c #6BDC65",
"0. c #69D867",
"q. c #70DF67",
"w. c #7CDD79",
"e. c #76C873",
"r. c #6DEA67",
"t. c #69E767",
"y. c #73E564",
"u. c #74E56C",
"i. c #7BE56E",
"p. c #73EB6E",
"a. c #79E96B",
"s. c #61F060",
"d. c #7CE473",
"f. c #73EC72",
"g. c #7BE776",
"h. c #71F06B",
"j. c #9A8F73",
"k. c #83DA7D",
"l. c #83E37B",
"z. c #8AE57C",
"x. c #84E476",
"c. c #7A7B80",
"v. c #7C8183",
"b. c #78D682",
"n. c #888888",
"m. c #8C988D",
"M. c #908E91",
"N. c #949598",
"B. c #B18F8D",
"V. c #AC898E",
"C. c #9CA49C",
"Z. c #B1A795",
"A. c #A7A7A8",
"S. c #BAAAA4",
"D. c #B2B0B3",
"F. c #8BD286",
"G. c #9ED496",
"H. c #85E282",
"J. c #8CE485",
"K. c #8AEA84",
"L. c #93E78B",
"P. c #92EA8E",
"I. c #98E88C",
"U. c #92F18B",
"Y. c #96EB91",
"T. c #9DEC93",
"R. c #99E998",
"E. c #91F68D",
"W. c #A1EC96",
"Q. c #A4E59D",
"!. c #ABE39D",
"~. c #A4EA9C",
"^. c #A9EB9D",
"/. c #A3E494",
"(. c #AAF29C",
"). c #B5DEAA",
"_. c #BCC7B0",
"`. c #A3E5A2",
"'. c #ADE4A2",
"]. c #ABE9A3",
"[. c #AAE9A5",
"{. c #B2E3A5",
"}. c #BBE4AB",
"|. c #B4E9AC",
" X c #BAE8B1",
".X c #B9F2B5",
"XX c #C4DEB7",
"oX c #C2E6B3",
"OX c #C4EAB5",
"+X c #C6E4BB",
"@X c #CBEBBD",
"#X c #D1E9BF",
"$X c #D1F1BF",
"%X c #CBF2BD",
"&X c #CCDDC2",
"*X c #C6C0C0",
"=X c #CCECC4",
"-X c #CFE8C9",
";X c #D3E5C3",
":X c #D4EBC4",
">X c #D9EAC6",
",X c #D5E4CB",
"<X c #DAE5CC",
"1X c #D6EACA",
"2X c #DAEACB",
"3X c #CAF5C2",
"4X c #D4F2C4",
"5X c #DCE6D3",
"6X c #DDEAD2",
"7X c #D6E9D0",
"8X c #DFF3D5",
"9X c #E2ECD6",
"0X c #E3ECDB",
"qX c #E4E9DA",
"wX c #E8F1DF",
"eX c #E7F0DD",
"rX c #DFF0E7",
"tX c #E5EEE5",
"yX c #E8EEE0",
"uX c #E4F0E2",
"iX c #ECF4E4",
"pX c #F0F9E8",
"aX c None",
/* pixels */
"aXaXaXaXaXaXaXaXaXaXaXaXaXaXaXaXaXaXaXaXaXaXaXaXaXaXaXaXaXaXaXaXaXaXaXaXaXaXaXaXaXaXaXaXaXaXaXaXaXaX",
"aXaXaXaXaXaXaXaXaXaXaXaXaXaXaXaXaXaXaXaXaXaXaXaXaXaXaXaXaXaXaXaXaXaXaXaXaXaXaXaXaXaXaXaXaXaXaXaXaXaX",
"aXaXaXaXaXaXaXaXaXaXaXaXaXaXaXaXaXaXaXaXaXaXaXaXaXaXaXaXaXaXaXaXaXaXaXaXaXaXaXaXaXaXaXaXaXaXaXaXaXaX",
"aXaXaXaXaXaXaXaXaXaXaXaXaXaXaXaXaXaXaXaXaXaXaXaXaXaXaXaXaXaXaXaXaXaXaXaXaXaXaXaXaXaXaXaXaXaXaXaXaXaX",
"aXaXaXaXaXaXaXaXaXaXaXaXaXaXaXaXaXaXaXaXaXaXaXaXaXaXaXaXaXaXaXaXaXaXaXaXaXaXaXaXaXaXaX0X0XaXaXaXaXaX",
"aXaXaXaXaXaXaXaXaXaXaXaXaXaXaXaXaXaXaXaXaXaXaXaXaXaXaXaXaXaXaXaXaXaXaXaXaXaXaXaXaXaXaX5X5XaXaXaXaXaX",
"aXaXaXaXaXaXaXaXaXaXaXaXaXaXaXaXaXaXaXaXaXaXaXaXaXaXaXaXaXaXaXaXaXaXaXaXaXaXaXaXaXaXaX5X,XtXaXaXaXaX",
"aXaXaXaXaXaXaXaXaXaXaXaXaXaXaXaXaXaXaXaXaXaXaXaXaXaXaXaXaXaXaXaXaXaXaXaXaXaXaXaXaXaXaX5X,XqXaXaXaXaX",
"aXaXaXaXaXaXaXaXaXaXaXaXaXaXaXaXaXaXaXaXaXaXaXaXaXaXaXaXaXaXaXaXaXaXaXaXaXaXaXaXaXaXaX-X&X1XaXaXaXaX",
"aXaXaXaXaXaXaXaXaXaXaXaXaXaXaXaXaXaXaXaXaXaXaXaXaXaXaXaXaXaXaXaXaXaXaXaXaXaXaXaXaXaXaX+X+X1XeXaXaXaX",
"aXaXaXaXaXaXaXaXaXaXaXaXaXaXaXaXaXaXaXaXaXaXaXaXaXaXaXaXaXaXaXaXaXaXaXaXaXaXaXaXaXaXaX).).=X7XaXaXaX",
"aXaXaXaXaXaXaXaXaXaXaXaXaXaXaXaXaXaXaXaXaXaXaXaXaXaXaXaXaXaXaXaXaXaXaXaXaXaXaXaXaXaXaXG.).+X7XaXaXaX",
"aXaXaXaXaXaXaXaXaXaXaXaXaXaXaXaXaXaXaXaXaXaXaXaXaXaXaXaXaXaXaXaXaXaXaXaXaXaXaXaXaXaX.XF.'.@X1XaXaXaX",
"aXaXaXaXaXaXaXaXaXaXaXaXaXaXaXaXaXaXaXaXaXaXaXaXaXaXaXaXaXaXaXaXaXaXaXaXaXaXaXaXaXaXR.k.^. X=X8XaXaX",
"aXaXaXaXaXaXaXaXaXaXaXaXaXaXaXaXaXaXaXaXaXaXaXaXaXaXaXaXaXaXaXaXaXaXaXaXaXaXaXaXaXaXL.w.R.{.@X1XaXaX",
"aXaXaXaXaXaXaXaXaXaXaXaXaXaXaXaXaXaXaXaXaXaXaXaXaXaXaXaXaXaXaXaXaXaXaXaXaXaXaXaXaXaXJ.q.Y.].%X:XaXaX",
"aXaXaXaXaXaXaXaXaXaXaXaXaXaXaXaXaXaX/ aXaXaXaXaXaXaXaXaXaXaXaXaXaXaXaXaXaXaXaXaXaXaXU.t.P.].OX#XiXaX",
"aXaXaXaXaXaXaXaXaXaXaXaXaXaXaXaXaXaXZ Z V.aXaXaXaXaXaXaXaXaXaXaXaXaXaXaXaXaXaXaXaXaX0.r.P.].oX>XyXaX",
"aXaXaXaXaX ._ ' _ m.aXaXaXaXaXaXaXaX@.B L aXaXaXaXaXaXaXaXaXaXaXaXaXaXaXaXaXaXaXaX`.q.u.P.].oX,XyXaX",
"aXaXaXaXaXaXaXP n. .V.S.O.aXaXaXaXaXaXN N aXaXaXaXaXaXaXaXaXaXaXaXaXaXaXaXaXaXaXaXe.y.g.Y.Q.oX2XtXaX",
"aXaXaXaXaXaXaX .s O.+.^ Y h < U c.aXaXB.B X.aXaXaXaXaXaXaXaXaXaXaXaXaXaXaXaXaXaXaX>.y.a.Y.'.oX2XtXaX",
"aXaXaXaXaXaXaXaX~ O 3 2 h b f 1 1 l V C A N C aXaXaXaXaXaXaXaXaXaXaXaXaXaXaXaXaXP.:.y.i.Y.`.oX2XtXaX",
"aXaXaXaXaXaXaXaXaXaXE & : u r r e n m 4 N H ^ aXaXaXaXaXaXaXaXaXaXaXaXaXaXaXaXaX0.*.y.x.L.].oX1XtXaX",
"aXaXaXaXaXaXaXaXaXaXaXaXy ; * r K r ..Y H ( +.aXaXaXaXaXaXaXaXaXaXaXaXaXaXaXaX`.*.2.y.x.T.`.oX1XrXaX",
"aXaXaXaXaXaXaXaXaXaXaXaXaXaX% u z t R S.Z.S.4 aXaXaXaXaXaXaXaXaXaXaXaXaXaXaXaXb.*.2.a.l.R.[.oX7XrXaX",
"aXaXaXaXaXaXaXaXaXaXaXaXaXaX. t l f D.*XG E . aXaXaXaXaXaXaXaXaXaXaXaXaXaXaXE.-.5.7.f.K.Q.[.=X-XuXaX",
"aXaXaXaXaXaXaXaXaXaXaXaXaXaX= k d T n.M.1 o ; aXaXaXaXaXaXaXaXaXaXaXaXaXaXaX-.%.6.p.g.F.`.|.=X1XiXaX",
"aXaXaXaXaXaXaXaXaXaXaXaXaX] s g X ] I > # , I aXaXaXaXaXaXaXaXaXaXaXaXaXaXb.;.<.5.h.g.H.[. X-X1XeXaX",
"aXaXaXaXaXaXaXaXaXaXaXaXO.] n , , T e X > > ] aXaXaXaXaXaXaXaXaXaXaXaXaXR.8.5.6.6.p.g.Y.[. X;X,XyXaX",
"aXaXaXaXaXaXaXaXn.[ { E 7 s Q = & X . & < = aXaXaXaXaXaXaXaXaXaXaXaXaXaX5.4.%.6.r.g.l.W.'.OX:X,XeXaX",
"aXaXaXaXaXE m R aXaX# O # s aXI X * e , t < aXaXaXaXaXaXaXaXaXaXaXaXaX8.<.1.<.7.p.d.J.^.'.@X;X<XiXaX",
"aXj.] V  .aXaXaXaXE 1 7 7 U n.e r 0 ; 0 - t ] aXaXaXaXaXaXaXaXaXaXaXt.3.1.1.s.p.p.x.T.^.}.:X2X5XaXaX",
"n.aXaXaXaXaXaXaX) 1 g x j T N.k 0 0 * * r a s d c.aXaXaXaXaXaXaXaX0.=.<.,.4.s.f.g.z.(.!.oX#X>X9XaXaX",
"aXaXaXaXaXaXaXW e s h l f } n % * * . * q q n l y J aXaXaXaXaXaXf.3.,.4.7.t.f.w.K.T./.{.$X#X<X5XaXaX",
"aXaXaXaXaXaX) w k f f f k k ; . . % . ; 0 & e J y z v aXaXaXaX9.%.,.3.4.9.z.g.w.L.W.!.oX#X>X<XqXaXaX",
"aXaXaXaXaXx < k k i k v f ; 0 K f . X X & & ; a a p 6 F aXx.5.2.,.,.5.r.a.d.x.J.T.^.!.oX>X>X5XwXaXaX",
"aXaXaXP s f v z y J z y a r 0 aXaXs + g ~ 1 : : : @ 6 D :.&.%.1.<.6.t.p.a.x.z.W.^.!.}.#X>X<X<XaXaXaX",
"Q d t r b v k v v a J J a % ) aXaXj O V { $ +   @ S #.0.=.*.7.&.6.t.p.p.a.z.T.^.{.{.oX:X2X<X9XaXaXaX",
"< t k i k u i v v a z q 0 P aX) > R 9 9 ! ! V [ $.F.0.t.s.h.u.d.g.g.l.K.U.J.^.!.'.oX#X>X<X5X5XaXaXaX",
"f i k k u k v f k k q q * J d & # m ( H ( j._.+X|.R.R.F.k.w.H.H.J.L.T.T.W.^.'.{.}.%X:X;X<X9X5XaXaXaX",
"k a u k v i k k i = ; % K aX& & > # 4 ! o.Z.aXaXaX3X|.|.[.`.Q.Q.^.!.'.{.'.'.{.OX$X$X>X>X9X<XqXaXaXaX",
"k i c a a k v k u * < . aXaX. < < > > > j U $.m.aX7X=X=X4X@XOXoXoXoXOX}.+X@X4X>X#X#X2X<X<X<XiXaXaXaX",
"k f a k c v k f = w . K aXv - * ; - < - & %   + F _.5X7X8X4X:X#X:X#X:X:X;X;X:X>X>X>X>X>X<X5XpXaXaXaX",
"t v k z z a t % w - & aXaXaX  ; < < ; w . < < :   b aXiX&X;X2X;X2X>X:X8X2X1X2X;X<X>X2X<X<X<XaXaXaXaX",
"k f f k v y & ; -   ' aXaXaXK X , & w = e , + X : C.aXaX0XpX9X2X2X<X;X2X<X,X2X1X2X2X<X2X<XqXaXaXaXaX",
"; v d z ; ; X = X f aXaXaXaXaX} <   X %   X   g aXaXaXaXaXaXaXpXpX0X5X9X<X<X;X<X2X<X<X<X5XpXaXaXaXaX",
"' n < & ; X n n.aXaXaXaXaXaXaXaXaXaXc.x aXaXM.T A.aXaXaXaXaXaXaXaXaXiXiX5XeX9X<X<X,X<X<X<XiXaXaXaXaX",
"| c.c.aXaXaXaXaXaXaXaXaXaXaXaXaXaXaXaXaXaXaXaXaXD.aXaXaXaXaXaXaXaXaXaXaXqXaXaX<X9X9X<X5XqXaXaXaXaXaX",
"C.aXaXaXaXaXaXaXaXaXaXaXaXaXaXaXaXaXaXaXaXaXaXaXaXaXaXaXaXaXaXaXaXaXaXaXaXaXaX9XaXaX9X5XaXaXaXaXaXaX",
"aXaXaXaXaXaXaXaXaXaXaXaXaXaXaXaXaXaXaXaXaXaXaXaXaXaXaXaXaXaXaXaXaXaXaXaXaXaXaXaXaXaXaXqXaXaXaXaXaXaX"
};
