/* XPM */
static char *result[] = {
/* columns rows colors chars-per-pixel */
"50 50 172 2 ",
"   c #010203",
".  c #090603",
"X  c #040807",
"o  c #01060C",
"O  c #040A0E",
"+  c #0C0C0D",
"@  c #09120D",
"#  c #030711",
"$  c #040B13",
"%  c #0A0D13",
"&  c #050E19",
"*  c #0C0C19",
"=  c #041116",
"-  c #0C1115",
";  c #0F1817",
":  c #06121A",
">  c #0C141B",
",  c #07181F",
"<  c #0F181F",
"1  c #151514",
"2  c #191816",
"3  c #12151B",
"4  c #15191C",
"5  c #1A1B1A",
"6  c #1B1714",
"7  c #1D221E",
"8  c #21201E",
"9  c #2C2419",
"0  c #32281F",
"q  c #0D1521",
"w  c #0E1A21",
"e  c #141720",
"r  c #141A23",
"t  c #191E24",
"y  c #151F29",
"u  c #172025",
"i  c #1B2324",
"p  c #16212A",
"a  c #1B232B",
"s  c #1F292F",
"d  c #1C2631",
"f  c #1E2932",
"g  c #242525",
"h  c #262E27",
"j  c #21262C",
"k  c #232A2D",
"l  c #2B2C2C",
"z  c #3A332B",
"x  c #232730",
"c  c #232B33",
"v  c #292D34",
"b  c #262E39",
"n  c #273037",
"m  c #2C3235",
"M  c #27313A",
"N  c #2B333C",
"B  c #2C3A3F",
"V  c #353534",
"C  c #363C37",
"Z  c #3B3B34",
"A  c #31363C",
"S  c #38353F",
"D  c #36393E",
"F  c #3C3C3D",
"G  c #580D19",
"H  c #431716",
"J  c #581B1F",
"K  c #5F1923",
"L  c #671A24",
"P  c #4B2D25",
"I  c #433C33",
"U  c #5D383F",
"Y  c #612326",
"T  c #75232F",
"R  c #622D35",
"E  c #693037",
"W  c #484137",
"Q  c #47443F",
"!  c #594D3F",
"~  c #55493B",
"^  c #2F3841",
"/  c #333740",
"(  c #363B44",
")  c #3A3D43",
"_  c #783E45",
"`  c #3D4143",
"'  c #3D4349",
"]  c #3F4450",
"[  c #424446",
"{  c #44454C",
"}  c #42494D",
"|  c #4E4E4B",
" . c #4C4D45",
".. c #584F40",
"X. c #504F4A",
"o. c #534F46",
"O. c #55514C",
"+. c #5A534D",
"@. c #494E53",
"#. c #484F59",
"$. c #525152",
"%. c #5B5754",
"&. c #565855",
"*. c #53555C",
"=. c #55595F",
"-. c #595B5C",
";. c #605B57",
":. c #5C635C",
">. c #666257",
",. c #6D6050",
"<. c #696258",
"1. c #66615D",
"2. c #7D6E59",
"3. c #515860",
"4. c #5C5F63",
"5. c #5D6066",
"6. c #606467",
"7. c #686461",
"8. c #63656B",
"9. c #646B6B",
"0. c #6B6B6D",
"q. c #776F64",
"w. c #7E7160",
"e. c #7B736B",
"r. c #76716B",
"t. c #646C76",
"y. c #6A6E72",
"u. c #6D7175",
"i. c #6E747A",
"p. c #747576",
"a. c #7D7E7D",
"s. c #727779",
"d. c #904752",
"f. c #87575D",
"g. c #905B61",
"h. c #A45E69",
"j. c #8E6062",
"k. c #946865",
"l. c #827666",
"z. c #85817C",
"x. c #767B81",
"c. c #797980",
"v. c #807E83",
"b. c #C27B83",
"n. c #7E8288",
"m. c #848282",
"M. c #82878C",
"N. c #89878D",
"B. c #8D8D8D",
"V. c #888889",
"C. c #928B86",
"Z. c #9C938A",
"A. c #8E8E90",
"S. c #8C9095",
"D. c #939497",
"F. c #91939B",
"G. c #979A9E",
"H. c #AF868D",
"J. c #BE8C95",
"K. c #BB939B",
"L. c #B6A297",
"P. c #BCA99F",
"I. c #9B9DA4",
"U. c #BC9FA7",
"Y. c #A7AAA7",
"T. c #A5A9AD",
"R. c #BEA1A6",
"E. c #BDA1A8",
"W. c #B4B6B0",
"Q. c #C1A2AB",
"!. c #CDB5AA",
"~. c None",
/* pixels */
"~.~.~.~.~.~.~.~.~.~.~.~.~.~.~.~.~.~.~.~.~.~.~.~.~.~.~.~.~.~.~.~.~.~.~.~.~.~.~.~.~.~.~.~.~.~.~.~.~.~.",
"~.~.~.~.~.~.~.~.~.~.~.~.~.~.~.~.~.~.~.~.~.~.~.~.~.~.~.~.~.~.~.~.~.~.~.~.~.~.~.~.~.~.~.~.~.~.~.~.~.~.",
"~.~.~.~.~.~.~.~.~.~.~.~.~.~.~.~.~.~.~.~.~.~.~.~.~.~.~.~.~.~.~.~.~.~.~.~.~.~.~.~.~.~.~.~.~.~.~.~.~.~.",
"~.~.~.~.~.~.~.~.~.~.~.~.~.~.~.~.~.~.~.~.~.~.~.~.~.~.~.~.~.~.~.~.~.~.~.~.~.~.~.~.~.~.~.~.~.~.~.~.~.~.",
"~.~.~.~.~.~.~.~.~.~.~.~.~.~.~.~.~.~.~.~.~.~.~.~.~.~.~.~.~.~.~.~.~.~.~.~.~.~.~.~.~.~.~.~.~.~.~.~.~.~.",
"~.~.~.~.~.~.~.~.~.~.~.~.~.~.~.~.~.~.~.~.~.~.~.~.~.~.~.~.~.~.~.~.~.~.~.~.~.~.~.~.~.~.~.~.~.~.~.~.~.~.",
"~.~.~.~.~.~.~.~.~.~.~.~.~.~.~.~.~.~.~.~.~.~.~.~.~.~.~.~.~.~.~.~.~.~.~.~.~.~.~.~.~.~.~.~.~.~.~.~.~.~.",
"~.~.~.~.~.~.~.~.~.~.~.~.~.~.~.~.~.~.~.~.~.~.~.~.~.~.~.~.~.~.~.~.~.~.~.~.~.~.~.~.~.~.~.~.~.~.~.~.~.~.",
"~.~.~.~.~.~.~.~.~.~.~.~.~.~.~.~.~.~.~.~.~.~.~.~.~.~.~.~.~.~.~.~.~.~.~.~.~.~.~.~.~.~.~.~.~.~.~.~.~.~.",
"~.~.~.~.~.~.~.~.~.~.~.~.~.~.~.~.~.~.~.~.~.~.~.~.~.~.~.~.~.~.~.~.~.~.~.~.~.~.~.~.~.~.~.~.~.~.~.~.~.~.",
"~.~.~.~.~.~.~.~.~.~.~.~.~.~.~.~.~.~.~.~.~.~.~.~.~.~.~.~.~.~.~.~.~.~.~.~.~.~.~.~.~.~.~.~.~.~.~.~.~.~.",
"~.~.~.~.~.~.~.~.~.~.~.~.~.~.~.~.~.~.~.~.~.~.~.~.~.~.~.~.~.~.~.~.~.~.~.~.~.~.~.~.~.~.~.~.~.~.~.~.~.~.",
"~.~.~.~.~.~.~.~.~.~.~.~.~.~.~.~.~.~.~.~.~.~.~.~.~.~.~.~.~.~.~.~.~.~.~.~.~.~.~.~.~.~.~.~.~.~.~.~.~.~.",
"~.~.~.~.~.~.~.~.~.~.~.~.~.~.~.~.~.~.~.~.~.~.~.~.~._ ~.~.~.~.~.~.~.~.~.~.~.~.~.~.~.~.~.~.~.~.~.~.~.~.",
"~.~.~.~.~.~.~.~.~.~.~.~.~.~.~.~.~.~.~.~.~.~.~.~.~.H.R ..~.~.~.~.~.~.~.~.~.~.~.~.~.~.~.~.~.~.~.~.~.~.",
"~.~.~.~.~.~.~.~.~.~.~.~.~.B.F B.~.~.~.~.~.~.~.~.~.K.E L ~.~.~.~.~.~.~.~.~.~.~.~.~.~.~.~.~.~.~.~.~.~.",
"~.~.~.~.~.~.~.~.~.~.~.~.~.~.p.p.B.0.Y.~.~.~.~.~.~.~.g.G d.~.~.~.~.~.~.~.~.~.~.~.~.~.~.~.~.~.~.~.~.~.",
"~.~.~.~.~.~.~.~.~.~.~.~.~.~.~.g $.a.a.:.7 0.4.=.A.~.~.b.T h.~.~.~.~.~.~.~.~.~.~.~.~.~.~.~.~.~.~.~.~.",
"~.~.~.~.~.~.~.~.~.~.~.~.~.~.~.m.5 g C C g v 3 t t Z ~.K L G J.~.~.~.~.~.~.~.~.~.~.~.~.~.~.~.~.~.~.~.",
"~.~.~.~.~.~.~.~.~.~.~.~.~.~.~.~.~.V   @ 8 x r r i h 0 H Y _ f.~.~.~.~.~.~.~.~.~.~.~.~.~.~.~.~.~.~.~.",
"~.~.~.~.~.~.~.~.~.~.~.~.~.~.~.~.~.~.~.s.; % r r m h e.P k.j.~.~.~.~.~.~.~.~.~.~.~.~.~.~.~.~.~.~.~.~.",
"~.~.~.~.~.~.~.~.~.~.~.~.~.~.~.~.~.~.~.~.~.S * d B 5 >.L.!.P.e.~.~.~.~.~.~.~.~.~.~.~.~.~.~.~.~.~.~.~.",
"~.~.~.~.~.~.~.~.~.~.~.~.~.~.~.~.~.~.~.~.~.~.* n 7  .~.Z.W Z  .~.~.~.~.~.~.~.~.~.~.~.~.~.~.~.~.~.~.~.",
"~.~.~.~.~.~.~.~.~.~.~.~.~.~.~.~.~.~.~.~.~.N.3 V ; | W.9.X - [ ~.~.~.~.~.~.~.~.~.~.~.~.~.~.~.~.~.~.~.",
"~.~.~.~.~.~.~.~.~.~.~.~.~.~.~.~.~.~.~.~.~.A g g 6 m.&.= , : n.~.~.~.~.~.~.~.~.~.~.~.~.~.~.~.~.~.~.~.",
"~.~.~.~.~.~.~.~.~.~.~.~.~.~.~.~.~.~.~.~.m.8.S 2 8 F X = = w ~.~.~.~.~.~.~.~.~.~.~.~.~.~.~.~.~.~.~.~.",
"~.~.~.~.~.~.~.~.~.~.~.~.~.~.~.~.~.z.7.%.Z m ( % @ 1 + : $ M ~.~.~.~.~.~.~.~.~.~.~.~.~.~.~.~.~.~.~.~.",
"~.~.~.~.~.~.~.~.~.~.~.~.V.1.;.+.;.X.l . 1 O x.@.1 1 * > c B ~.~.~.~.~.~.~.~.~.~.~.~.~.~.~.~.~.~.~.~.",
"~.~.~.~.~.~.~.~.~.C.I +.~.~.~.~.~.-.g 5 i ` 8.4 4 4 > r p f n.~.~.~.~.~.~.~.~.~.~.~.~.~.~.~.~.~.~.~.",
"~.~.~.~.~.~.~.~.O.C.~.~.~.~.~.~.y.g A v m } y.t 3 - > r p n n s.~.~.~.~.~.~.~.~.~.~.~.~.~.~.~.~.~.~.",
"~.~.~.~.~.~.~.~.~.~.~.~.~.~.~.[ g k k k m 9.a & * % # : u i k k a } ~.~.~.~.~.~.~.~.~.~.~.~.~.~.~.~.",
"~.~.~.~.~.~.~.~.~.~.~.~.~.~.y.k a v a k v j % # # # o 3 3 4 k s u k ~.~.~.~.~.~.~.~.~.~.~.~.~.~.~.~.",
"~.~.~.~.~.~.~.~.~.~.~.~.~.6.4 s b p f n B 4 O $ $ > # 3 + 1 2 k n a 3 0.~.~.~.~.~.~.~.~.~.~.~.~.~.~.",
"~.~.~.~.~.~.~.~.~.~.8.' m x c c c M M s i r ) ~.~.o o X.Q 1 5 > , s s *.~.~.~.~.~.~.~.~.~.~.~.~.~.~.",
"~.~.~.~.~.~.~.~.~.t y c k b N N M M M N a > ~.~.~.3 . p.,.. + > & w & p.~.~.~.~.~.~.~.~.~.~.~.~.~.~.",
"~.~.~.~.~.~.~.m t c a a N b d B N f M p > ' ~.A r g   I ~ z 5 3 $ < & ~.~.~.~.~.~.~.~.~.~.~.~.~.~.~.",
"~.~.~.~.~.~.[ t d p f f p d M M b x t : > ) ) + j F V ! w.l.z : q & ] ~.~.~.~.~.~.~.~.~.~.~.~.~.~.~.",
"~.~.~.~.~.m.1 v d ^ d d f M B b r 3 3 & ( ) O % - X O.w.2.,.o.m q q ~.~.~.~.~.~.~.~.~.~.~.~.~.~.~.~.",
"~.~.~.~.~.l k k a b f b c b n c t 3 % t ~.{ + 3 1 4 1 9 ..w.z.M.t.] b { v.D.~.~.~.~.~.~.~.~.~.~.~.~.",
"~.~.~.~.~.8.t v c c c b b n n y e > # x.~.% + 3 : 4 - + 5 3 % } n.F.i.c.*.) ) { F.~.~.~.~.~.~.~.~.~.",
"~.~.~.~.~.~.4 k x ^ c c b b a r % e t ~.~.8.O : w w > t O : > %   u.~.~.~.I.A.( r / r ( 8.~.~.~.~.~.",
"~.~.~.~.~.~.=.j x d c c a c & q > o ~.~.~.~.o 3 3 $ w < > 3 >   3 ~.~.~.~.~.~.~.~.~.5.@.N N D #.#.t.",
"~.~.~.~.~.~.~.5.j v x b t > 3 % o ` ~.~.~.~.~.@.: % : = $ O O v D.~.~.~.~.~.~.~.~.~.~.~.~.i.u.3.( b ",
"~.~.~.~.~.~.~.~.y.3 3 # & o   / u.~.~.~.~.~.~.~.~.' O 4 ` n.` -.~.~.~.~.~.~.~.~.~.~.~.~.~.~.~.~.G.i.",
"~.~.~.~.~.~.~.G.T.4.S.~.~.~.~.~.~.~.~.~.~.~.~.~.~.~.~.~.~.~.~.~.~.~.~.~.~.~.~.~.~.~.~.~.~.~.~.~.~.~.",
"~.~.~.~.~.~.~.~.[ ~.~.~.~.~.~.~.~.~.~.~.~.~.~.~.~.~.~.~.~.~.~.~.~.~.~.~.~.~.~.~.~.~.~.~.~.~.~.~.~.~.",
"~.~.~.~.~.~.~.~.~.~.~.~.~.~.~.~.~.~.~.~.~.~.~.~.~.~.~.~.~.~.~.~.~.~.~.~.~.~.~.~.~.~.~.~.~.~.~.~.~.~.",
"~.~.~.~.~.~.~.~.~.~.~.~.~.~.~.~.~.~.~.~.~.~.~.~.~.~.~.~.~.~.~.~.~.~.~.~.~.~.~.~.~.~.~.~.~.~.~.~.~.~.",
"~.~.~.~.~.~.~.~.~.~.~.~.~.~.~.~.~.~.~.~.~.~.~.~.~.~.~.~.~.~.~.~.~.~.~.~.~.~.~.~.~.~.~.~.~.~.~.~.~.~.",
"E.Q.U.R.Q.R.R.R.R.E.E.E.E.E.E.E.E.R.R.R.R.R.R.E.U.E.E.E.E.E.E.R.R.R.R.E.E.E.E.E.E.U.E.Q.U.Q.E.U.Q.Q."
};
