/* XPM */
static char *result[] = {
/* columns rows colors chars-per-pixel */
"50 50 203 2 ",
"   c #030303",
".  c #0A0505",
"X  c #040A04",
"o  c #0C0A05",
"O  c #060509",
"+  c #0A0609",
"@  c #070B0B",
"#  c #0B090A",
"$  c #130405",
"%  c #170906",
"&  c #130D0B",
"*  c #190D0B",
"=  c #15080A",
"-  c #051205",
";  c #091407",
":  c #051A06",
">  c #061308",
",  c #071B09",
"<  c #091909",
"1  c #091A08",
"2  c #1A110B",
"3  c #13150D",
"4  c #0E0C13",
"5  c #1A0B10",
"6  c #0F1114",
"7  c #191612",
"8  c #25090D",
"9  c #2B0708",
"0  c #320507",
"q  c #3B0808",
"w  c #22140B",
"e  c #29180E",
"r  c #221207",
"t  c #371C08",
"y  c #200B10",
"u  c #261B16",
"i  c #0B230B",
"p  c #0C290D",
"a  c #092706",
"s  c #14280B",
"d  c #0B340B",
"f  c #093C0B",
"g  c #0C3D06",
"h  c #10390E",
"j  c #1A3F06",
"k  c #1F2413",
"l  c #0E3610",
"z  c #123213",
"x  c #31210C",
"c  c #3F270C",
"v  c #29211D",
"b  c #3C2512",
"n  c #3D2815",
"m  c #362411",
"M  c #2A3509",
"N  c #2C2F2E",
"B  c #3C2F24",
"V  c #37322B",
"C  c #480A08",
"Z  c #570707",
"A  c #491609",
"S  c #4D1012",
"D  c #6B0A0A",
"F  c #680603",
"G  c #730A09",
"H  c #790B0A",
"J  c #790807",
"K  c #7D1D04",
"L  c #7C140C",
"P  c #7A1906",
"I  c #6A100E",
"U  c #42260C",
"Y  c #442A0C",
"T  c #4B290D",
"R  c #552D0E",
"E  c #552507",
"W  c #423009",
"Q  c #5F360E",
"!  c #593A09",
"~  c #422712",
"^  c #422813",
"/  c #4A2B15",
"(  c #532E11",
")  c #4D361C",
"_  c #593312",
"`  c #6A2D0E",
"'  c #623707",
"]  c #64360B",
"[  c #693609",
"{  c #62380A",
"}  c #6B3607",
"|  c #742B0C",
" . c #493623",
".. c #553E27",
"X. c #533F2A",
"o. c #733338",
"O. c #074606",
"+. c #094706",
"@. c #054A03",
"#. c #0A4903",
"$. c #0A460A",
"%. c #0C4C0B",
"&. c #154209",
"*. c #065A05",
"=. c #0D540C",
"-. c #0C5C0C",
";. c #085404",
":. c #11550D",
">. c #115F0D",
",. c #124312",
"<. c #134B13",
"1. c #1C4C1F",
"2. c #0E5411",
"3. c #125413",
"4. c #135A16",
"5. c #094614",
"6. c #2A440C",
"7. c #244F07",
"8. c #30450D",
"9. c #294011",
"0. c #20501B",
"q. c #0C6C0B",
"w. c #096408",
"e. c #0A7309",
"r. c #097D07",
"t. c #197106",
"y. c #127F0F",
"u. c #157408",
"i. c #176C10",
"p. c #217007",
"a. c #206F14",
"s. c #207514",
"d. c #395639",
"f. c #286F25",
"g. c #267A22",
"h. c #515933",
"j. c #556732",
"k. c #692E47",
"l. c #6E2F4C",
"z. c #6B3148",
"x. c #454747",
"c. c #534E45",
"v. c #704645",
"b. c #7B6D5A",
"n. c #7F705B",
"m. c #6A6865",
"M. c #7E7461",
"N. c #8C0B0A",
"B. c #870F06",
"V. c #9B0605",
"C. c #96070A",
"Z. c #9D0509",
"A. c #990907",
"S. c #811406",
"D. c #881A0A",
"F. c #891211",
"G. c #A60607",
"H. c #B40606",
"J. c #B2060A",
"K. c #B4090A",
"L. c #A90F16",
"P. c #BC131E",
"I. c #811D28",
"U. c #87222F",
"Y. c #862A3C",
"T. c #952538",
"R. c #B12D3A",
"E. c #CA060A",
"W. c #C92B3C",
"Q. c #853D50",
"!. c #B93F54",
"~. c #A5334A",
"^. c #843B61",
"/. c #CF344A",
"(. c #C23D53",
"). c #D13C53",
"_. c #935F5C",
"`. c #BB435C",
"'. c #A45957",
"]. c #836F5A",
"[. c #80705B",
"{. c #9D4D71",
"}. c #A24861",
"|. c #B45E7C",
" X c #857D6B",
".X c #C2435F",
"XX c #CB5376",
"oX c #098109",
"OX c #108009",
"+X c #3F9C1D",
"@X c #419A1F",
"#X c #4C9F30",
"$X c #58A531",
"%X c #498348",
"&X c #CADB75",
"*X c #D9F971",
"=X c #BB618C",
"-X c #DD5C80",
";X c #C3628D",
":X c #8A9285",
">X c #96AA95",
",X c #B1ACA9",
"<X c None",
/* pixels */
"<X<X<X<X<X<X<X<X<X<X<X<X<X<X<X<X<X<X<X<X<X<X<X<X<X<X<X<X<X<X<X<X<X<X<X<X<X<X<X<X<X<X<X<X<X<X<X<X<X<X",
"<X<X<X<X<X<X<X<X<X<X<X<X<X<X<X<X<X<X<X<X<X<X<X<X<X<X<X<X<X<X<X<X<X<X<X<X<X<X<X<X<X<X<X<X<X<X<X<X<X<X",
"<X<X<X<X<X<X<X<X<X<X<X<X<X<X<X<X<X<X<X<X<X<X<X<X<X<X<X<X<X<X<X<X<X<X<X<X<X<X<X<X<X<X<X<X<X<X<X<X<X<X",
"<X<X<X<X<X<X<X<X<X<X<X<X<X<X<X<X<X<X<X<X<X<X<X<X<X<X<X<X<X<X<X<X<X<X<X<X<X<X<X<X<X<X<X<X<X<X<X<X<X<X",
"<X<X<X<X<X<X<X<X<X<X<X<X<X<X<X<X<X<X<X<X<X<XS 0 0 9 9 8 5 * 5 5 y 8 0 q <X<X<X<X<X<X<X<X<X<X<X<X<X<X",
"<X<X<X<X<X<X<X<X<X<X<X<X<X<X<X<X<X<X<X<XL C.G.H.H.J.L.Y.z.z.k.z.l.U.K.G.A.N.<X<X<X<X<X<X<X<X<X<X<X<X",
"<X<X<X<X<X<X<X<X<X<X<X<X<X<X<X<X<X<X.   D A.V.V.H.E.P.XX=X^.l.{.;X!.G.Z.A.N.9   <X<X<X<X<X<X<X<X<X<X",
"<X<X<X<X<X<X<X<X<X<X<X<X<X<X<X<X<X<X    t E E E P H.L.(.`.T.I.~..XR.V.K Q ! s i 3 <X<X<X<X<X<X<X<X<X",
"<X<X<X<X<X<X<X<X<X<X<X<X<X<X<X<X<X<X    d %.#.#.M J P L J S.K K P K K ! t.u.=.5.1   = <X<X<X<X<X<X<X",
"<X<X<X<X<X<X<X<X<X<X<X<X<X<X<X<X<X<X    a #.@.O.#.&.&.&.&.t.u.t.t.t.u.u.r.r.#.$.:   @ <X<X<X<X<X<X<X",
"<X<X<X<X<X<X<X<X<X<X<X<X<X<X<X<X<X<X    +.e.e.q.:.: 1 : : w.oXw.*.*.*.*.*.*.#.$.:   @ <X<X<X<X<X<X<X",
"<X<X<X<X<X<X<X<X<X<X<X<X<X<X<X<X<X<X    %.oXq.%.h X & h.j.s.oXw.@.@.O.@.#.#.@.#.>   # <X<X<X<X<X<X<X",
"<X<X<X<X<X<X<X<X<X<X<X<X<X<X<X<X<X<X.   %.y.<.    O k &X*X+Xr.w.#.@.O.@.@.@.g h 1   <X<X<X<X<X<X<X<X",
"<X<X<X<X<X<X<X<X<X<X<X<X<X<X<X<X<X<X    :.OX,.X     k &X*X+Xr.*.+.+.O.@.O.g ; > <X<X<X<X<X<X<X<X<X<X",
"<X<X<X<X<X<X<X<X<X<X<X<X<X<X<X<X<X<X<X<Xp p h 2.2.2.>.#X$Xa.*.f , : : : : : <X<X<X<X<X<X<X<X<X<X<X<X",
"<X<X<X<X<X<X<X<X<X<X<X<X<X<X<X<X<X<X<X<X4 O p 4.2.=.=.w.q.;.O.: O + . O   . <X<X<X<X<X<X<X<X<X<X<X<X",
"<X<X<X<X<X<X<X<X<X<X<X<X<X<X<X<X<X<X<X<X=   X > X . - f $.+.$.,   4 <X<X<X<X<X<X<X<X<X<X<X<X<X<X<X<X",
"<X<X<X<X<X<X<X<X<X<X<X<X<X<X<X<X<X<X<X<X@   l i.:.X   @ X f $.a   4 <X<X<X<X<X<X<X<X<X<X<X<X<X<X<X<X",
"<X<X<X<X<X<X<X<X<X<X<X<X<X<X<X<X<X<X<X<X@   h OXe.3.,.- . > , X O O 4 <X<X<X<X<X<X<X<X<X<X<X<X<X<X<X",
"<X<X<X<X<X<X<X<X<X<X<X<X<X<X<X<X<X<X<X<XO   p =.-.3.<.-   * w w r 2 r w <X<X<X<X<X<X<X<X<X<X<X<X<X<X",
"<X<X<X<X<X<X<X<X<X@                             X o o = % / ] Q ' ] Q / % o <X<X<X<X<X<X<X<X<X<X<X<X",
"<X<X<X<X<X<X<X@ @                               2 R R ( R Q ' ' ' ' ] ] R / & . <X<X<X<X<X<X<X<X<X<X",
"<X<X<X<X<X<X<X. X s $.d.m.v.D D Z A j +.O.$.%.$.6.! ] ] [ } ] ] ] [ [ } } _ %   <X<X<X<X<X<X<X<X<X<X",
"<X<X<X<X<X<X<Xo X 3.r.%X:X_.F.N.J I 8.>.-.-.-.w.7.W T T Y Y Y T T T T T / ^ * . <X<X<X<X<X<X<X<X<X<X",
"<X<X<X<X<X<X<X+ X <.i.,.@ # % $ . o . o $ o & * 3 $ $ $ $ # o $ . . O . o . <X<X<X<X<X<X<X<X<X<X<X<X",
"<X<X<X<X<X<X<X+ + ; i ; O # <X<X<X<X.   C G Y.|.}.G G J J A x t t e O   <X<X<X<X<X<X<X<X<X<X<X<X<X<X",
"<X<X<X<X<X<X<X<X# <X<X<X  <X<X<X<X<XO   o.!..X).W.Z.N.D.K E c Y ~ e     <X<X<X<X<X<X<X<X<X<X<X<X<X<X",
"<X<X<X<X<X<X<X<X<X<X<X<X<X<X<X<X<X<X    Q.-X/.K.J.Z.B.| Q Y c U ~ e     <X<X<X<X<X<X<X<X<X<X<X<X<X<X",
"<X<X<X<X<X<X<X<X<X<X<X<X<X<X<X<X<X<X.   H E.K.Z.C.N.B.` Q Y Y c n e     <X<X<X<X<X<X<X<X<X<X<X<X<X<X",
"<X<X<X<X<X<X<X<X<X<X<X<X<X<X<X<X<X<X    F G.Z.A.G 0 9 ~ / Y n e & #     <X<X<X<X<X<X<X<X<X<X<X<X<X<X",
"<X<X<X<X<X<X<X<X<X<X<X<X<X<X<X<X<X<X    o.'.o.Z C w w m U U b 2   . @ <X<X<X<X<X<X<X<X<X<X<X<X<X<X<X",
"<X<X<X<X<X<X<X<X<X<X<X<X<X<X<X<X<X<X    m.,Xm.7 u  .) ) ) )  .u   + <X<X<X<X<X<X<X<X<X<X<X<X<X<X<X<X",
"<X<X<X<X<X<X<X<X<X<X<X<X<X<X<X<X<X<X    c. X[.b.n.[.].[.].].n.V     <X<X<X<X<X<X<X<X<X<X<X<X<X<X<X<X",
"<X<X<X<X<X<X<X<X<X<X<X<X<X<X<X<X<X<X<X<Xu v B X.X.X...X.....h.y   O <X<X<X<X<X<X<X<X<X<X<X<X<X<X<X<X",
"<X<X<X<X<X<X<X<X<X<X<X<X<X<X<X<X<X<X<X<XO   o 7 w w e b U U ~ 2   . <X<X<X<X<X<X<X<X<X<X<X<X<X<X<X<X",
"<X<X<X<X<X<X<X<X<X<X<X<X<X<X<X<X<X<X<X<X@ .         . m U U n *   . <X<X<X<X<X<X<X<X<X<X<X<X<X<X<X<X",
"<X<X<X<X<X<X<X<X<X<X<X<X<X<X<X<X<X<X<X<X<X<X6       . x Y ^ n 7     <X<X<X<X<X<X<X<X<X<X<X<X<X<X<X<X",
"<X<X<X<X<X<X<X<X<X<X<X<X<X<X<X<X<X<X<X<X<X<X<X    O o n U w % 7 <X<X<X<X<X<X<X<X<X<X<X<X<X<X<X<X<X<X",
"<X<X<X<X<X<X<X<X<X<X<X<X<X<X<X<X<X<X<X<X<X<X<X      o M 8.<   <X<X<X<X<X<X<X<X<X<X<X<X<X<X<X<X<X<X<X",
"<X<X<X<X<X<X<X<X<X<X<X<X<X<X<X<X<X<X<X<X<X<X<X      1 f.g.i O 4 <X<X<X<X<X<X<X<X<X<X<X<X<X<X<X<X<X<X",
"<X<X<X<X<X<X<X<X<X<X<X<X<X<X<X<X<X<X<X<X<X<X<X. O O p :X>XN   . X o <X<X<X<X<X<X<X<X<X<X<X<X<X<X<X<X",
"<X<X<X<X<X<X<X<X<X<X<X<X<X<X<X<X<X<X<X<X<Xo z 3.=.2.1.x.x.1.2.p   @ <X<X<X<X<X<X<X<X<X<X<X<X<X<X<X<X",
"<X<X<X<X<X<X<X<X<X<X<X<X<X<X<X<X<X<X<X<X@   p 3.2.2.<.X X &.3.p     <X<X<X<X<X<X<X<X<X<X<X<X<X<X<X<X",
"<X<X<X<X<X<X<X<X<X<X<X<X<X<X<X<X<X<X. . O         X X       . . X @ <X<X<X<X<X<X<X<X<X<X<X<X<X<X<X<X",
"<X<X<X<X<X<X<X<X<X<X<X<X<X<X<X<X<X<X<X<X<X<X<X<X<X<X<X<X<X<X<X<X<X<X<X<X<X<X<X<X<X<X<X<X<X<X<X<X<X<X",
"<X<X<X<X<X<X<X<X<X<X<X<X<X<X<X<X<X<X<X<X<X<X<X<X<X<X<X<X<X<X<X<X<X<X<X<X<X<X<X<X<X<X<X<X<X<X<X<X<X<X",
"<X<X<X<X<X<X<X<X<X<X<X<X<X<X<X<X<X<X<X<X<X<X<X<X<X<X<X<X<X<X<X<X<X<X<X<X<X<X<X<X<X<X<X<X<X<X<X<X<X<X",
"<X<X<X<X<X<X<X<X<X<X<X<X<X<X<X<X<X<X<X<X<X<X<X<X<X<X<X<X<X<X<X<X<X<X<X<X<X<X<X<X<X<X<X<X<X<X<X<X<X<X",
"<X<X<X<X<X<X<X<X<X<X<X<X<X<X<X<X<X<X<X<X<X<X<X<X<X<X<X<X<X<X<X<X<X<X<X<X<X<X<X<X<X<X<X<X<X<X<X<X<X<X",
"<X<X<X<X<X<X<X<X<X<X<X<X<X<X<X<X<X<X<X<X<X<X<X<X<X<X<X<X<X<X<X<X<X<X<X<X<X<X<X<X<X<X<X<X<X<X<X<X<X<X"
};
