/* XPM */
static char *result[] = {
/* columns rows colors chars-per-pixel */
"50 50 205 2 ",
"   c #040303",
".  c #0A0505",
"X  c #040A04",
"o  c #0C0A05",
"O  c #060409",
"+  c #0A0509",
"@  c #060C09",
"#  c #0B0A0B",
"$  c #130405",
"%  c #180506",
"&  c #120906",
"*  c #120609",
"=  c #140B0B",
"-  c #1A0B09",
";  c #041305",
":  c #091406",
">  c #051308",
",  c #0B140A",
"<  c #091B0A",
"1  c #081B07",
"2  c #12120B",
"3  c #1B110C",
"4  c #1E180A",
"5  c #0C0E10",
"6  c #0F1F12",
"7  c #141113",
"8  c #230D0F",
"9  c #3C0909",
"0  c #28150E",
"q  c #311B0B",
"w  c #2E1F13",
"e  c #261A13",
"r  c #0C2C0C",
"t  c #0B220A",
"y  c #13270F",
"u  c #093E06",
"i  c #0D340B",
"p  c #0C3B0A",
"a  c #07380A",
"s  c #0F2A12",
"d  c #152518",
"f  c #0D3A13",
"g  c #113D10",
"h  c #1D3509",
"j  c #34210B",
"k  c #3B210F",
"l  c #3E290E",
"z  c #2F2016",
"x  c #342213",
"c  c #3A2414",
"v  c #3A2A18",
"b  c #3F3010",
"n  c #253F06",
"m  c #3E3832",
"M  c #590C0A",
"N  c #591A0A",
"B  c #6E0A0A",
"V  c #630A08",
"C  c #7B0B0A",
"Z  c #710A0B",
"A  c #7D1506",
"S  c #7E1613",
"D  c #791C1D",
"F  c #6E0E0F",
"G  c #44260C",
"H  c #432A0D",
"J  c #4A2A0D",
"K  c #4B260C",
"L  c #58290F",
"P  c #413109",
"I  c #433104",
"U  c #5D3A0B",
"Y  c #442A12",
"T  c #472813",
"R  c #4D3011",
"E  c #5B3311",
"W  c #752B0E",
"Q  c #64360C",
"!  c #69370B",
"~  c #65390B",
"^  c #6A380C",
"/  c #643914",
"(  c #6B1D29",
")  c #56273A",
"_  c #592736",
"`  c #493F35",
"'  c #7E2022",
"]  c #064C04",
"[  c #094B04",
"{  c #0C440C",
"}  c #0B4C0A",
"|  c #084707",
" . c #19460A",
".. c #085B07",
"X. c #0B540B",
"o. c #0D5C0D",
"O. c #095106",
"+. c #12590B",
"@. c #0D4912",
"#. c #144514",
"$. c #154A13",
"%. c #175619",
"&. c #185814",
"*. c #264807",
"=. c #215310",
"-. c #3E540A",
";. c #0A620A",
":. c #0B680F",
">. c #12690D",
",. c #0B7405",
"<. c #0A720B",
"1. c #0B7C0C",
"2. c #067E05",
"3. c #11730F",
"4. c #117F0D",
"5. c #0D6711",
"6. c #1B6B11",
"7. c #166A17",
"8. c #157413",
"9. c #177418",
"0. c #2B6A09",
"q. c #27610B",
"w. c #314731",
"e. c #2C5A2D",
"r. c #434809",
"t. c #435004",
"y. c #435209",
"u. c #594B3B",
"i. c #66533D",
"p. c #69533C",
"a. c #762A40",
"s. c #783654",
"d. c #58514A",
"f. c #4A5449",
"g. c #685440",
"h. c #547F52",
"j. c #6D6252",
"k. c #7C6A54",
"l. c #716454",
"z. c #787163",
"x. c #707670",
"c. c #7F6967",
"v. c #830C0C",
"b. c #8B0B06",
"n. c #950C07",
"m. c #9E0906",
"M. c #940B0B",
"N. c #9B0A0A",
"B. c #9C0607",
"V. c #8B1005",
"C. c #861A09",
"Z. c #870F13",
"A. c #900F10",
"S. c #931012",
"D. c #9D151D",
"F. c #9C1316",
"G. c #821419",
"H. c #A00509",
"J. c #A60807",
"K. c #B40406",
"L. c #B6070A",
"P. c #A01214",
"I. c #B5131A",
"U. c #BB0E17",
"Y. c #A31A25",
"T. c #9D3E3B",
"R. c #832D2C",
"E. c #C60506",
"W. c #CC0D14",
"Q. c #97374B",
"!. c #903C55",
"~. c #B63D57",
"^. c #853E62",
"/. c #CC2F42",
"(. c #A54964",
"). c #A14566",
"_. c #A14D74",
"`. c #B15672",
"'. c #927774",
"]. c #B6617F",
"[. c #C54057",
"{. c #D5425A",
"}. c #D7526E",
"|. c #D4607E",
" X c #088307",
".X c #12820D",
"XX c #1F8515",
"oX c #298A19",
"OX c #308032",
"+X c #549D2E",
"@X c #67B035",
"#X c #629E5F",
"$X c #7B817D",
"%X c #949F59",
"&X c #898879",
"*X c #AAC565",
"=X c #C1CF71",
"-X c #C6ED6B",
";X c #ECFF78",
":X c #D3678D",
">X c #E16288",
",X c #958C8E",
"<X c #989B99",
"1X c #B6AEAC",
"2X c None",
/* pixels */
"2X2X2X2X2X2X2X2X2X2X2X2X2X2X2X2X2X2X2X2X2X2X2X2X2X2X2X2X2X2X2X2X2X2X2X2X2X2X2X2X2X2X2X2X2X2X2X2X2X2X",
"2X2X2X2X2X2X2X2X2X2X2X2X2X2X2X2X2X2X2X2X2X2X2X2X2X2X2X2X2X2X2X2X2X2X2X2X2X2X2X2X2X2X2X2X2X2X2X2X2X2X",
"2X2X2X2X2X2X2X2X2X2X2X2X2X2X2X2X2X2X2X2X2X2X2X2X2X2X2X2X2X2X2X2X2X2X2X2X2X2X2X2X2X2X2X2X2X2X2X2X2X2X",
"2X2X2X2X2X2X2X2X2X2X2X2X2X2X% $ $ . . . . . . * $ % % 8 2X2X2X2X2X2X2X2X2X2X2X2X2X2X2X2X2X2X2X2X2X2X",
"2X2X2X2X2X2X2X2X2X2X2XG.S.M.M.G._ ) ) ) ) _ ( Z.b.M.M.b.S.G.2X2X2X2X2X2X2X2X2X2X2X2X2X2X2X2X2X2X2X2X",
"2X2X2X2X2X2X2X2X2X2X2Xv.B.J.L.I.(._.s.s.^._.~.U.E.E.K.J.B.v.0 2X2X2X2X2X2X2X2X2X2X2X2X2X2X2X2X2X2X2X",
"2X2X2X2X2X2X2X2X2X: : N C.C.n.Y.>X:X!.a.).:X}.U.E.n.A A A B .   2X2X2X2X2X2X2X2X2X2X2X2X2X2X2X2X2X2X",
"2X2X2X2X2X2X2X. , f | q.0.U V.N.F.D.A.M.S.D.D.N.J.J n n *.h     2X2X2X2X2X2X2X2X2X2X2X2X2X2X2X2X2X2X",
"2X2X2X2X2X2X2X. ; @.} ,. X0.-.y.t.y.t.t.r.P P I I  .] [ ] u     2X2X2X2X2X2X2X2X2X2X2X2X2X2X2X2X2X2X",
"2X2X2X2X2X2X2X  ; { [ ;.<.<.<.<.,.<.2. Xo.a a p p O.X.....{ X   2X2X2X2X2X2X2X2X2X2X2X2X2X2X2X2X2X2X",
"2X2X2X2X2X2X2X  ; { [ ] ] ] [ ] ] ] <.4.} , , O ; &.8.1.2.:.X   2X2X2X2X2X2X2X2X2X2X2X2X2X2X2X2X2X2X",
"2X2X2X2X2X2X#   ; { [ [ | ] ] | ] ] <. X+X*X%X2   1 t } 4.>.X   2X2X2X2X2X2X2X2X2X2X2X2X2X2X2X2X2X2X",
"2X2X2X2X2X2X2Xo < y r | ] ] ] ] [ [ <.2.@X;X=X, O     f 4.>.X   2X2X2X2X2X2X2X2X2X2X2X2X2X2X2X2X2X2X",
"2X2X2X2X2X2X2X2X2X# X i u u u | { { :.,.@X-X*Xy > , 1 g 7.+.X o 2X2X2X2X2X2X2X2X2X2X2X2X2X2X2X2X2X2X",
"2X2X2X2X2X2X2X2X2X2X2X# X X X # X > p O.7.oXXX8.3.5.7.$.> , 2X2X2X2X2X2X2X2X2X2X2X2X2X2X2X2X2X2X2X2X",
"2X2X2X2X2X2X2X2X2X2X2X2X2X2X2X7 O X i [ X.;.X.p i a f t   = 2X2X2X2X2X2X2X2X2X2X2X2X2X2X2X2X2X2X2X2X",
"2X2X2X2X2X2X2X2X2X2X2X2X2X2X2X2XO X i ] { i r X   1 r <   # 2X2X2X2X2X2X2X2X2X2X2X2X2X2X2X2X2X2X2X2X",
"2X2X2X2X2X2X2X2X2X2X2X2X2X2X2X2X# X r @.r X O @ > >.8.#.X . 2X2X2X2X2X2X2X2X2X2X2X2X2X2X2X2X2X2X2X2X",
"2X2X2X2X2X2X2X2X2X2X2X2X2X2X. # O O @ > X O < %.7.1..X$.  . 2X2X2X2X2X2X2X2X2X2X2X2X2X2X2X2X2X2X2X2X",
"2X2X2X2X2X2X2X2X2X2X2X2X2Xe q q q q q q 3   , g { { { y X   # 2X2X2X2X2X2X2X2X2X2X2X2X2X2X2X2X2X2X2X",
"2X2X2X2X2X2X2X2X2X2X2X3 % k / ~ ~ ~ ~ / G - = = & X     O                         # 2X2X2X2X2X2X2X2X",
"2X2X2X2X2X2X2X2X2X+ . Y E Q ^ ~ ~ ~ ~ ~ Q E E Q E 3               .                 # # 2X2X2X2X2X2X",
"2X2X2X2X2X2X2X2X2X  . R ^ ^ ^ ! ~ Q ~ ~ ! ! ! ^ U *.X.X.X.X.O. .G V B v.D c.x.e.+.r X   2X2X2X2X2X2X",
"2X2X2X2X2X2X2X2X2X+ * c T J T G J J J H H H K H P *.+.o.o.o.+.&.K B A Z.G.'.&XOX4.$.X . 2X2X2X2X2X2X",
"2X2X2X2X2X2X2X2X2X2X2Xo * . . . . * . o $ $ % * = 2 7 = & & o X # * $ $ = # , %.8.#.X # 2X2X2X2X2X2X",
"2X2X2X2X2X2X2X2X2X2X2X2X2X#   & q j j j N C C Z F (.].Q.Z M *   2X2X2X2X2X+   , t , + + 2X2X2X2X2X2X",
"2X2X2X2X2X2X2X2X2X2X2X2X2X2X  & v Y G H L C.C.M.H./.{.[.~.Q.$   2X2X2X2X2X2X+ + .   # 2X2X2X2X2X2X2X",
"2X2X2X2X2X2X2X2X2X2X2X2X2X2X  * c G K c R ! W V.H.L.L./.>X`.=   2X2X2X2X2X2X2X2X2X2X2X2X2X2X2X2X2X2X",
"2X2X2X2X2X2X2X2X2X2X2X2X2X2X  & v v K l R Q W V.N.S.m.L.W.P.$   2X2X2X2X2X2X2X2X2X2X2X2X2X2X2X2X2X2X",
"2X2X2X2X2X2X2X2X2X2X2X2X2X2X  . 8 3 x Y J R K 9 9 C m.H.K.b.$   2X2X2X2X2X2X2X2X2X2X2X2X2X2X2X2X2X2X",
"2X2X2X2X2X2X2X2X2X2X2X2X2X2X. #     w Y Y Y c 7 8 M B ' T.R..   2X2X2X2X2X2X2X2X2X2X2X2X2X2X2X2X2X2X",
"2X2X2X2X2X2X2X2X2X2X2X2X2X2X2X2X# + z Y T Y R Y v 3 # d.1X,X#   2X2X2X2X2X2X2X2X2X2X2X2X2X2X2X2X2X2X",
"2X2X2X2X2X2X2X2X2X2X2X2X2X2X2X2X    d.k.'.j.k.k.k.l.j.z.&Xz.#   2X2X2X2X2X2X2X2X2X2X2X2X2X2X2X2X2X2X",
"2X2X2X2X2X2X2X2X2X2X2X2X2X2X2X2X  . ` p.p.p.i.p.p.p.p.u.` ` 7 . 2X2X2X2X2X2X2X2X2X2X2X2X2X2X2X2X2X2X",
"2X2X2X2X2X2X2X2X2X2X2X2X2X2X2X2X  . w Y G k l j x x z 3     2X2X2X2X2X2X2X2X2X2X2X2X2X2X2X2X2X2X2X2X",
"2X2X2X2X2X2X2X2X2X2X2X2X2X2X2X2X    w Y I G x . . . . .   + 2X2X2X2X2X2X2X2X2X2X2X2X2X2X2X2X2X2X2X2X",
"2X2X2X2X2X2X2X2X2X2X2X2X2X2X2X2XX   z Y H H x         5 2X2X2X2X2X2X2X2X2X2X2X2X2X2X2X2X2X2X2X2X2X2X",
"2X2X2X2X2X2X2X2X2X2X2X2X2X2X2X2X# # e w x K x .       # 2X2X2X2X2X2X2X2X2X2X2X2X2X2X2X2X2X2X2X2X2X2X",
"2X2X2X2X2X2X2X2X2X2X2X2X2X2X2X2X2X2XO   4 H v o .     O 2X2X2X2X2X2X2X2X2X2X2X2X2X2X2X2X2X2X2X2X2X2X",
"2X2X2X2X2X2X2X2X2X2X2X2X2X2X2X2X2X2X#   i 6.&.> .       2X2X2X2X2X2X2X2X2X2X2X2X2X2X2X2X2X2X2X2X2X2X",
"2X2X2X2X2X2X2X2X2X2X2X2X2X2X2X2X2X, * O w.#Xh.# .     # 2X2X2X2X2X2X2X2X2X2X2X2X2X2X2X2X2X2X2X2X2X2X",
"2X2X2X2X2X2X2X2X2X2X2X2X2X2X2X2XX X , 1 f.<X$Xd < < < 6 2X2X2X2X2X2X2X2X2X2X2X2X2X2X2X2X2X2X2X2X2X2X",
"2X2X2X2X2X2X2X2X2X2X2X2X2X2X2X2X  X %.9.$.7 d 7.8.<.9.#.. # 2X2X2X2X2X2X2X2X2X2X2X2X2X2X2X2X2X2X2X2X",
"2X2X2X2X2X2X2X2X2X2X2X2X2X2X2X2X  X y s <   > r r r i <     # . 2X2X2X2X2X2X2X2X2X2X2X2X2X2X2X2X2X2X",
"2X2X2X2X2X2X2X2X2X2X2X2X2X2X2X2X#   .           . .       + . . 2X2X2X2X2X2X2X2X2X2X2X2X2X2X2X2X2X2X",
"2X2X2X2X2X2X2X2X2X2X2X2X2X2X2X2X2X2X2X2X2X2X2X2X2X2X2X2X2X2X2X2X2X2X2X2X2X2X2X2X2X2X2X2X2X2X2X2X2X2X",
"2X2X2X2X2X2X2X2X2X2X2X2X2X2X2X2X2X2X2X2X2X2X2X2X2X2X2X2X2X2X2X2X2X2X2X2X2X2X2X2X2X2X2X2X2X2X2X2X2X2X",
"2X2X2X2X2X2X2X2X2X2X2X2X2X2X2X2X2X2X2X2X2X2X2X2X2X2X2X2X2X2X2X2X2X2X2X2X2X2X2X2X2X2X2X2X2X2X2X2X2X2X",
"2X2X2X2X2X2X2X2X2X2X2X2X2X2X2X2X2X2X2X2X2X2X2X2X2X2X2X2X2X2X2X2X2X2X2X2X2X2X2X2X2X2X2X2X2X2X2X2X2X2X",
"2X2X2X2X2X2X2X2X2X2X2X2X2X2X2X2X2X2X2X2X2X2X2X2X2X2X2X2X2X2X2X2X2X2X2X2X2X2X2X2X2X2X2X2X2X2X2X2X2X2X"
};
