/* XPM */
static char *hit1705936427[] = {
/* columns rows colors chars-per-pixel */
"50 50 142 2 ",
"   c #4F2515",
".  c #492817",
"X  c #4E2C1B",
"o  c #542613",
"O  c #5B2717",
"+  c #572914",
"@  c #5B2A17",
"#  c #542C1B",
"$  c #5C2D1C",
"%  c #4F311F",
"&  c #55311E",
"*  c #5C321D",
"=  c #652F17",
"-  c #612D1C",
";  c #63331E",
":  c #6B361C",
">  c #61391F",
",  c #6A3A1F",
"<  c #723B1E",
"1  c #472D20",
"2  c #4E2E24",
"3  c #532F22",
"4  c #5B2E21",
"5  c #4D3125",
"6  c #543324",
"7  c #5B3424",
"8  c #573926",
"9  c #5C3A25",
"0  c #553629",
"q  c #5B362A",
"w  c #563B2B",
"e  c #5D3B2B",
"r  c #563C33",
"t  c #5D3C31",
"y  c #633523",
"u  c #6A3623",
"i  c #643A24",
"p  c #6B3B24",
"a  c #633729",
"s  c #683728",
"d  c #633C2B",
"f  c #6B3D2B",
"g  c #713522",
"h  c #723C24",
"j  c #7A3F21",
"k  c #723E2A",
"l  c #633D32",
"z  c #6D3E31",
"x  c #723F31",
"c  c #5E402D",
"v  c #574233",
"b  c #5E4133",
"n  c #584839",
"m  c #664127",
"M  c #6D4125",
"N  c #65412D",
"B  c #6C422C",
"V  c #63482D",
"C  c #6D482E",
"Z  c #724224",
"A  c #7A4325",
"S  c #73432D",
"D  c #7A432C",
"F  c #75492E",
"G  c #7B492D",
"H  c #7E502F",
"J  c #654332",
"K  c #6B4433",
"L  c #654934",
"P  c #6C4934",
"I  c #654539",
"U  c #6C4639",
"Y  c #674C3B",
"T  c #6D4B3A",
"R  c #734532",
"E  c #7B4531",
"W  c #744A34",
"Q  c #7B4B34",
"!  c #74463A",
"~  c #79473C",
"^  c #734C3B",
"/  c #7C4D3A",
"(  c #745136",
")  c #7A5036",
"_  c #75523D",
"`  c #7C523C",
"'  c #7E593C",
"]  c #634B41",
"[  c #6D4C41",
"{  c #754D41",
"}  c #735443",
"|  c #7B5442",
" . c #725847",
".. c #7E5A44",
"X. c #775B4D",
"o. c #7D5B49",
"O. c #7F604C",
"+. c #814624",
"@. c #894F27",
"#. c #82452A",
"$. c #89472D",
"%. c #834B2C",
"&. c #884B2B",
"*. c #8A522D",
"=. c #91562E",
"-. c #824633",
";. c #834C34",
":. c #8A4D34",
">. c #834E39",
",. c #8A4C39",
"<. c #904F3D",
"1. c #845235",
"2. c #8A5334",
"3. c #8C5937",
"4. c #83533B",
"5. c #8B543B",
"6. c #84593D",
"7. c #8C5A3D",
"8. c #925434",
"9. c #995935",
"0. c #92563C",
"q. c #935A3C",
"w. c #995E3C",
"e. c #94613E",
"r. c #8C4D41",
"t. c #825541",
"y. c #8B5542",
"u. c #835A43",
"i. c #8B5B43",
"p. c #835B4A",
"a. c #8B5E48",
"s. c #935441",
"d. c #9A5545",
"f. c #915D43",
"g. c #995B42",
"h. c #905B49",
"j. c #995C49",
"k. c #8E6042",
"l. c #86614D",
"z. c #91654D",
"x. c #996A4C",
"c. c #8D6250",
/* pixels */
"0 w q 6 5 w 6 I } r l q 3 6 6 3 q [ 0 q e & 6 0 6 q ] v v 0 2 1 5 6 6 I 6 7 0 0 8 e 7 6 c J e 6 q 3 ",
"X 6   J [ U ! ^ | K K f K f ^ ^ { | I a f f 7 J N e b 0 0 6 e 0 e i 9 J 7 d d N 6 N f N P J N d J 0 ",
"@ $ $ R W W S f B f f D p.R Q E S S R k D :.f k u @ $ # o $ f y Q ! p B p E >.i.F >.,.Q ;.Q 4.Q ..Y ",
"o o ; S R / E W F R R E i./ 4.4.R f D f D 1.D R : - + $ $ - B f Q E f B D Q Q t.S / >.Q Q Q 4.Q | L ",
"7 &   f N 6 7 $ 6 7 y 7 N K 7 d a e e 9 i K J l 6 t 3 2 3 3 q l l e 6 e N P d K J m z 7 9 i N i c 8 ",
"^ ^ U ~ ^ P ^ / ^ _ | ` | ..P R K I J J R B T K l U l r t q q l q 3 % 6 d N q J L 7 # 4 6 9 J z U K ",
"S E t.R s Q k y.i.t.4.>.Q / Q R R S s y u = y y u k R a s - $ y - O y a K k $ y y O O k f Q y.>.Q ;.",
"k R E E D R k 4.y./ >.4./ W ) f D k D k D < u s : u ^ a s - y y 4 o 4 s x s $ * $ $ - u y >.y./ E ;.",
"; y ; ; * ; ; , W i p ; y * * # * U 7 y y i e a d d Y e 6 9 6 % X . X e e e 9 6 X # 7 7 P i N d d 9 ",
"Q ) Q Q F Q E Q ` W Q W ' f F f f R f K W 4.^ T P J Y b c T _ V N 6 8 N d 7 7 N J K f s m 9 7 & e w ",
"D ;.:.,.Q Q E E E Q Q :.i.D E D D D E E %.5.E Q S , B B m F ) p y @ o y ; - - R S R g s 7 ; ; ; P c ",
"p k k Q E R k D p B p D / S R k h f D E D 2.^ E f p B N B M Q p u $ * y y - - ~ f S s u 7 y u y U e ",
"7 7 $ e 7 9 4 a 9 e 7 7 a e 6 4 q 6 3 q i N J 0 3 3 5 0 d 9 d N 6 y e 6 4 6 # N e e q 6 5 % 7 6 J e ",
"J d 4 d 7 e d K  .T ! q l e 6 # t I e t 9 9 I 0 7 t I U | ^ ^ ^ T ^ | T J ` Y _ { T ^ ^ L U | | t.' ",
"f i $ s y i i ! p./ R s d # 4 # f ^ l a y p R s $ * z ! >.;.E D D ;.i./ D >.S W Q Q / >.W W ` ;.;.;.",
"y * $ y * * ; s / ! y f y $ y * R ^ i * ; i f # @ $ x R R E E k D D 6.1.D Q S Q W W E y.Q W Q Q ;.;.",
"& d f K N R Q R 4.B f f d 9 f a a | d 7 9 N 6 9 * $ ! e a a a 7 F f S 6.M B * m * m B M ` m m y d # ",
"9 e N ` | t.` >.t./ t.4.| P f y f R 7 # 9 Y L U 6 4 l a l q b b / Q Q ( S S W u.C u.u.' u.u.u.u.} w ",
"7 i f W W i.y.>.4.) ,.F / B a i y y q & & m 9 c $ # 4 7 q 3 b U 1.>.Q Q >.Q W ) f ` t.Q W ) ) / } v ",
"# # ; R W W k k p f p u W N s a y # 7 & 7 J V e 7 7 4 7 d 6 J K R Q ! R Q ~ R p.^ R / S R F R R L w ",
"i 7 a ! f f s x s x y y f J 4 7 z d U K f x d 7 f U m c d 4 l z y a a 7 l d d T T d l f l e y 7 U J ",
"a s y y # y k x t.^ y 4 4 d 6 q J K | t.E ~ R R K p._ U f 4 a z y a I J { K l e e d a K d N y 7 f B ",
"f y y k i y u ! ~ K y y 7 d d d u.p.) Q E ,.E Q F a.' F f y u D * 7 P K R d N N d m * B d m i i p f ",
"- $ - ; * ; y p ^ a y 4 & 7 7 * R / F k u g u S p 1.W p p : - y i y m W f s 9 * 9 * + y M i * * ; i ",
"i F M W i W ( W ^ P N N ( 9 N e z K f q q f d N f >.~ ! R a K y / Q ' u.4.4.Q Q M ) Q 4.` ) F F L 8 ",
"W W ! c.` T J P J K U T } c I d 3 l J e q T e { ~ z ~ ~ R R o.U ` 4.Q 4.4.4.1.) F 7.1.4.6.i.4.`  .n ",
"W / ~ p.T ^ R U Y U K z T P K d l l J 5 w [ J T { x { { ! K o.U ! ;.Q 4.4.y.;.4.Q 6.5.y.a.i.4.|  .n ",
"u s s K l a y a 6 q a s U ^ z f l l I e l ^ J J z z d d J i J W p h f ; h h y D D S : A ; ; h f _ b ",
";.k D D E p s k y B Q / 4.y.>.4.R ^ | t.r.>.y.4.1.) B F >.4.Q f.7.5.5.k #.,.G 1.7.2.Q :.; F 1.;.3.6.",
"y.>.>.E / W R R K B >.Q 4.4.,.>.^ P W ~ -.x y.y.Q 1.( ` 4.5.:.5.5.1.y.S Q f.1.G 6.,.1.h.F ) 4.4.1.1.",
"^ B P ( _ P e K U c K W _ ^ Q W J I J ^ ~ >./ / W W ` ( ^ Q 4./ / / ^ ( R 4.' W ( ) / ' W P _ t.' ' ",
"i B i * 8 L d N _ m N B N f W W T ^ l U f ~ a ^ W Q p.W 4.Q W a B B F z.Q B P N d K K f P 9 f N a 7 ",
";.4.;.Q W 7.;.2.2.2.5.;.6.E ,.Q E Q E r.r.s.Q y.;.,.,.0.d.s.h.D D #.2.0.w.d.Q / f i.;.;.;.3.5.4.` d ",
"4.4.>.>.4.6.%.1.2.1.;.Q u.) Q S F D >.s./ r.) 6.5.5.1.s.,.,.i.R D j &.0.0.0.D Q ~ / / >.i.;.1.4.^ L ",
"K N f K P P s K U ( P B ` _ f e c V N N N ) C ( C B V ( ^ W ..W f S K W Q Q M Q F W W K P P ^ B ( J ",
"U N B P ' Q R / c L ) W ) u.T _ T V C ' S ' 6.( ( C n L ( C ( B N N K J ^ Q Q 5.Q S N ` e N p f W f ",
":.:.$.&.q.0.,.0.4.4.g.8.$.:.h D Q >.;.s.5.0.5.q.5.5./ S ;.g h p u p R B 5.5.:.*.2.G Q 4., F < h , ; ",
"&.$.+.#.2.8.5.0.i.;.0.8.:.%.#.j ,.,.;.g.:.0.7.5.:.s.t.S -.g h S u h Q G 5.0.2.1.;.2.:.;.S G #.< , f ",
"A , h S p F C W u.B W J N m y p M ' k k D K N P K Q ` f x y f e a i F W E E B T P N f F F m Z i 9 8 ",
"H F Q 4.N T P ) ..W P N ( * , f B i.>.>.E K J _ ) ) a.4.y.t.o.Y W G 1.k.;.6.) o.T ..' i.k.6.7.` _ v ",
"+.&.#.5.1.p , D 1.Q h p B G h < A A 2.#.x ,.W ) 5.0.1.0.s.d.c.W &.*.@.=.9.q.7.` W i.3.5.e.e.e.x.l.7 ",
"#.:.j 5.4.f , D Q F p S / F : < A G 5.-.;.Q F ) ;.5.i.i.j.>.i./ %.*.*.=.=.9.*.3.G H 5.6.k.3.1.6.4.i ",
"s y p W ) K s U d U B f W W f B C i B W F ) _ m K P c c U B ` ' W F f y h D A 6.) W ^ f t L N B 4.W ",
"t.4.4.i.a.k.y.c.T T W S D E N B _ _ W ` / Q ( C W } c e U / ' u...R ^ J >.4.6.7.i.i.| | I X.| ) 6.6.",
"1.3.7.e.3.q.3.f.6.G A A j A F p Q ) ;.>.D A p f p ` K N D ,.1./ / f ( W 1.2.2.2.2.7.Q u.K _ ' ) +.*.",
"D ;.1.2.1.3.2.2.*.Z j < : < A Z Q F D E p D F m u Q ` f x D >.F F f ( 4.D G G %.%.1.F 4.F m G A F F ",
"B S p S m S Q G H M p B p i p Q S Q k u p R 9 W F R 4.S E h W i F R ) q.;.%.G F M 1.2.q.q.&.@.1.N 9 ",
"K f a / _ W Q G G F p 9 U o.` 4.R S k k R t.K ^ B p Q S k k _ ^ / E F G &.%.Q Q W z.k.q.q.e.2.3...b ",
"f B a ~ | W F F G D f f T l.R Q F D D S S ` o.T K W W K S F _ { R R S %.;.1.F B ' t.i.q.q.q.q.7.' b ",
"i p $ f W B p p p : s y U o.f M p p u u p S { J d a m i i y K J a p : h h h y f m B f Z < Z < M ( 8 "
};
