/* XPM */
static char *result[] = {
/* columns rows colors chars-per-pixel */
"50 50 219 2 ",
"   c #040303",
".  c #0A0505",
"X  c #040B04",
"o  c #0A0A06",
"O  c #050409",
"+  c #0A0609",
"@  c #0D0A0A",
"#  c #060C09",
"$  c #120505",
"%  c #140B05",
"&  c #1A0C06",
"*  c #110C0A",
"=  c #1C0C0A",
"-  c #061206",
";  c #081306",
":  c #061A05",
">  c #091A06",
",  c #0A1409",
"<  c #0B1C0B",
"1  c #071809",
"2  c #1E1306",
"3  c #1C120C",
"4  c #13110E",
"5  c #100F11",
"6  c #1D1511",
"7  c #171414",
"8  c #3B0808",
"9  c #251705",
"0  c #291805",
"q  c #22150A",
"w  c #26190B",
"e  c #2A1A0B",
"r  c #281509",
"t  c #351E0E",
"y  c #391E0D",
"u  c #251E1D",
"i  c #2C1D11",
"p  c #311A13",
"a  c #2E0609",
"s  c #0B240B",
"d  c #0A2B0A",
"f  c #082607",
"g  c #162B0A",
"h  c #0C340B",
"j  c #0D3B0C",
"k  c #063E07",
"l  c #12320E",
"z  c #133E0D",
"x  c #112512",
"c  c #1B2216",
"v  c #0E3610",
"b  c #163814",
"n  c #34230C",
"m  c #3A200D",
"M  c #2A211B",
"N  c #2B2119",
"B  c #342314",
"V  c #37291B",
"C  c #3C2A19",
"Z  c #3A2616",
"A  c #203F16",
"S  c #24350A",
"D  c #272626",
"F  c #233024",
"G  c #373E37",
"H  c #470C0B",
"J  c #55090B",
"K  c #560909",
"L  c #511812",
"P  c #6B0C0D",
"I  c #7C0A0A",
"U  c #7A1B06",
"Y  c #7F0F13",
"T  c #68130D",
"R  c #45290D",
"E  c #4B2A0C",
"W  c #41240A",
"Q  c #55210B",
"!  c #522C0D",
"~  c #5C340D",
"^  c #57360D",
"/  c #422912",
"(  c #4B2C12",
")  c #482E1B",
"_  c #512F10",
"`  c #4C3013",
"'  c #523110",
"]  c #5D3512",
"[  c #593618",
"{  c #48340D",
"}  c #64230A",
"|  c #7A2107",
" . c #752909",
".. c #62350C",
"X. c #68380C",
"o. c #623513",
"O. c #6F3311",
"+. c #401F29",
"@. c #482A28",
"#. c #543429",
"$. c #663C29",
"%. c #6C2E2D",
"&. c #094A07",
"*. c #0D430C",
"=. c #0C4B0B",
"-. c #074806",
";. c #104A0B",
":. c #0B5908",
">. c #0E4B10",
",. c #0D4310",
"<. c #144C13",
"1. c #194F15",
"2. c #195615",
"3. c #1A590D",
"4. c #215E0B",
"5. c #3D5A0C",
"6. c #0D640B",
"7. c #0B670A",
"8. c #12680D",
"9. c #0E730A",
"0. c #0D7B0C",
"q. c #157806",
"w. c #14740B",
"e. c #127B0D",
"r. c #157707",
"t. c #146813",
"y. c #0E7111",
"u. c #127412",
"i. c #177815",
"p. c #276B09",
"a. c #336109",
"s. c #346010",
"d. c #266312",
"f. c #2F5D2C",
"g. c #396025",
"h. c #3C7123",
"j. c #59420C",
"k. c #4B4E08",
"l. c #584731",
"z. c #784237",
"x. c #406F2B",
"c. c #69763E",
"v. c #7D2F43",
"b. c #6D354D",
"n. c #73334D",
"m. c #78344F",
"M. c #7F3652",
"N. c #555052",
"B. c #6A5D57",
"V. c #7F5850",
"C. c #526E4F",
"Z. c #6C6757",
"A. c #7A6A59",
"S. c #79705D",
"D. c #8D0D09",
"F. c #8F0A07",
"G. c #910C06",
"H. c #920A0A",
"J. c #9A0707",
"K. c #871707",
"L. c #921007",
"P. c #970D14",
"I. c #891619",
"U. c #9D1619",
"Y. c #A50909",
"T. c #BA0A09",
"R. c #A0161E",
"E. c #A5120D",
"W. c #802105",
"Q. c #8D182A",
"!. c #9F1E2B",
"~. c #A41C28",
"^. c #962C2A",
"/. c #83273D",
"(. c #993A3B",
"). c #932F3B",
"_. c #A52431",
"`. c #C00406",
"'. c #C9273B",
"]. c #853D5D",
"[. c #B83951",
"{. c #C73A51",
"}. c #9A5753",
"|. c #B0464F",
" X c #80705E",
".X c #826D5C",
"XX c #9E5D65",
"oX c #AF4E71",
"OX c #816D61",
"+X c #867A6E",
"@X c #A86A68",
"#X c #C7465F",
"$X c #C55576",
"%X c #DB5373",
"&X c #0D810C",
"*X c #0A8404",
"=X c #10810C",
"-X c #69963E",
";X c #658D38",
":X c #61815F",
">X c #689946",
",X c #79A44A",
"<X c #7A8B77",
"1X c #828E7B",
"2X c #B6D563",
"3X c #C0DF62",
"4X c #CAD973",
"5X c #D9F677",
"6X c #EAFF7C",
"7X c #B15D80",
"8X c #BD638B",
"9X c #DE719B",
"0X c #C76188",
"qX c #E16490",
"wX c #948688",
"eX c #94968C",
"rX c #AF9A96",
"tX c #B9A1A0",
"yX c None",
/* pixels */
"yXyXyXyXyXyXyXyXyXyXyXyXyXyXyXyXyXyXyXyXyXyXyXyXyXyXyXyXyXyXyXyXyXyXyXyXyXyXyXyXyXyXyXyXyXyXyXyXyXyX",
"yXyXyXyXyXyXyXyXyXyXyXyXyXyXyXyXyXyXyXyXyXyXyXyXyXyXyXyXyXyXyXyXyXyXyXyXyXyXyXyXyXyXyXyXyXyXyXyXyXyX",
"yXyXyXyXyXyXyXyXyXyXyXyXyXyXyXyXyXyXyXI.I.v.b.b.b.n.n.b.b.n.+.@ yXyXyXyXyXyXyXyXyXyXyXyXyXyXyXyXyXyX",
"yXyXyXyXyXyXyXyXyXyXyXyXyXyXyXyXyX. = I U.0XoXb.}.8X7Xn.v.Q.I.P H @ yXyXyXyXyXyXyXyXyXyXyXyXyXyXyXyX",
"yXyXyXyXyXyXyXyXyXyXyXyXyXyXyXyXyX  $ D.P.[.[.Q.!.{.{.~.P.J.| j.n   yXyXyXyXyXyXyXyXyXyXyXyXyXyXyXyX",
"yXyXyXyXyXyXyXyXyXyXyXyXyXyXyXyXyX  . } | U U | K.T.T.T.Y.K.k.e.j   yXyXyXyXyXyXyXyXyXyXyXyXyXyXyXyX",
"yXyXyXyXyXyXyXyXyXyXyXyXyXyXyXyXyX  X t.u.w.r.q.5.U L.K.^ p.q.0.j   yXyXyXyXyXyXyXyXyXyXyXyXyXyXyXyX",
"yXyXyXyXyXyXyXyXyXyXyXyXyXyXyXyXyXO # -.:.:.7.0.q.p.a.a.d.:.:.:.d   yXyXyXyXyXyXyXyXyXyXyXyXyXyXyXyX",
"yXyXyXyXyXyXyXyXyXyXyXyXyXyXyXyXyX  # k *.d j u.0.*X*X*X6.d h -.f   yXyXyXyXyXyXyXyXyXyXyXyXyXyXyXyX",
"yXyXyXyXyXyXyXyXyXyXyXyXyXyXyXyXyX> : g.g., 1 :.6.w.8.8.z O b h.A ; < yXyXyXyXyXyXyXyXyXyXyXyXyXyXyX",
"yXyXyXyXyXyXyXyXyXyXyXyXyXyXyX+ o h 2.2X4X6 O X > =.j #   O c.5X-X*.<   yXyXyXyXyXyXyXyXyXyXyXyXyXyX",
"yXyXyXyXyXyXyXyXyXyXyXyXyXyXyX+ X v 4.3X4Xc     ; *.h       c.6X-X&.<   yXyXyXyXyXyXyXyXyXyXyXyXyXyX",
"yXyXyXyXyXyXyXyXyXyXyXyXyXyXyXyX4 s l ;X>X1.*.z =.6.:.*.,.*.x.,Xg.f < yXyXyXyXyXyXyXyXyXyXyXyXyXyXyX",
"yXyXyXyXyXyXyXyXyXyXyXyXyXyXyXyXyXo o d k y.9.6.6.6.7.6.7.9.:.h :   yXyXyXyXyXyXyXyXyXyXyXyXyXyXyXyX",
"yXyXyXyXyXyXyXyXyXyXyXyXyXyXyXyXyX.   X - b j - X X # X f >.d #     yXyXyXyXyXyXyXyXyXyXyXyXyXyXyXyX",
"yXyXyXyXyXyXyXyXyXyXyXyXyXyXyXyXyXyXyXyXyX1 -   # h s   # 1 , yXyXyXyXyXyXyXyXyXyXyXyXyXyXyXyXyXyXyX",
"yXyXyXyXyXyXyXyXyXyXyXyXyXyXyXyXO . + + @ O X < h -.*.d >   @ +   O @ @ yXyXyXyXyXyXyXyXyXyXyXyXyXyX",
"yXyXyXyXyXyXyXyXyXyXyXyXyXyXyX6 = 2 3 3 q D F ;.&.&.&.=.b D M 3 & = 3 3 u yXyXyXyXyXyXyXyXyXyXyXyXyX",
"yXyXyXyXyXyXyXyXyXyXyXyXyX5 * R ~ ..^ o.z.1X<X1.;.&.=.>.C.eXA.~ ..o.] [ p + yXyXyXyXyXyXyXyXyXyXyXyX",
"yXyXyXyXyXyXyXyXyXyXyXyX. Z ` ( ! ..X.X.o.l.l.<X:X&.f.1XA.l.[ ..^ E E E ( ( 3 + yXyXyXyXyXyXyXyXyXyX",
"yXyXyXyXyXyXyXyXyXyX+ e B ( ' ( Z m y ~ ..W ` B.Z.C.A.}.z.W E ! t q m R ' ! W B 6 yXyXyXyXyXyXyXyXyX",
"yXyXyXyXyXyXyXyXyXyX. m X.R n t e o + E ~ E E Q $.wXXXG.T ! R / 3   6 B i B ] ] & O yXyXyXyXyXyXyXyX",
"yXyXyXyXyXyXyXyXyXyX  m ~ e . + o + + y E ~  .G.Q.M./.J.K.O.! / 3   . + o + ! ] % O yXyXyXyXyXyXyXyX",
"yXyXyXyXyXyXyXyXyXyX  z p.l   yXyX  X B E .. .G.^.0XoXG.U O.^ / 3   yXyX.   E ] % O yXyXyXyXyXyXyXyX",
"yXyXyXyXyXyXyXyXyXyX  &.&Xh   yXyX  X n R _ } F.~.9X$XJ.G.K.} R q   yXyX    ! ] %   yXyXyXyXyXyXyXyX",
"yXyXyXyXyXyXyXyXyXyX  S s.g   yXyX  . w n Z Q G.~.%X#X_.R.Y.T n &   yXyX    ! ..%   yXyXyXyXyXyXyXyX",
"yXyXyXyXyXyXyXyXyXyX. H K.8 + yXyX  + O @ Z Q F.Y.`.{.qX|.J.J       yXyX  . { ^ &   yXyXyXyXyXyXyXyX",
"yXyXyXyXyXyXyXyXyXyXO J H.8   yXyXyXyX  o B Q D.J.Y.Y.~.~.D.J       yXyX    3.d.; O yXyXyXyXyXyXyXyX",
"yXyXyXyXyXyXyXyXyXyXJ ).@X@.  yXyXyX.   + 3 r H K F.J.J.I J a O   yXyXyX  X 7.w.: O yXyXyXyXyXyXyXyX",
"yXyXyXyXyXyXyXyXyXyXP V.eXG   yXyX      + u u u @.(.^.^.%.p 7   . yXyXyX  # 7.u.>   yXyXyXyXyXyXyXyX",
"yXyXyXyXyXyXyXyXyXyX  d >.d # yXyXo   . 7 Z.S..X+XrXeXOX.XS.#.      yXyX  # 6.8.: O yXyXyXyXyXyXyXyX",
"yXyXyXyXyXyXyXyXyXyX  d *.f   O X 3 q q r V / C C u D 6 N C N 3 q q *       -.=.- . yXyXyXyXyXyXyXyX",
"yXyXyXyXyXyXyXyXyXyX  s =.s       q 0 0 0 0 0 0 2       % 0 0 0 0 0 %       j *.-   yXyXyXyXyXyXyXyX",
"yXyXyXyXyXyXyXyXyXyX  s v d s o   q 0 0 0 2 2 q %       . 3 q 0 0 w %   - < h l X   yXyXyXyXyXyXyXyX",
"yXyXyXyXyXyXyXyXyXyX+ . X <.i.h @ 3 r w q +                 & 9 0 9 . X h z 1     . yXyXyXyXyXyXyXyX",
"yXyXyXyXyXyXyXyXyXyXyX+   <.=Xy.t.< + o @ yXyXyXyXyXyXyXyXyX* + o .     X X + O yXyXyXyXyXyXyXyXyXyX",
"yXyXyXyXyXyXyXyXyXyXyXyXyXl *.j h - O @ yXyXyXyXyXyXyXyXyXyXyX  8 J J J p yXyXyXyXyXyXyXyXyXyXyXyXyX",
"yXyXyXyXyXyXyXyXyXyXyXyXyXyX@       O yXyXyXyXyXyXyXyXyXyXyXyX$ #.(.U.D.yXyXyXyXyXyXyXyXyXyXyXyXyXyX",
"yXyXyXyXyXyXyXyXyXyXyXyXyXyXyX        yXyXyXyXyXyXyXyXyXyXyX4 . B.tX|.I.yXyXyXyXyXyXyXyXyXyXyXyXyXyX",
"yXyXyXyXyXyXyXyXyXyXyXyXyXyXyX        + @ yXyXyXyXyXyXyXyXyX4 + L ^.@XrXyXyXyXyXyXyXyXyXyXyXyXyXyXyX",
"yXyXyXyXyXyXyXyXyXyXyXyXyXyXyXO   s s X + yXyXyXyXyXyXyXyXyX* . J P.%.N.yXyXyXyXyXyXyXyXyXyXyXyXyXyX",
"yXyXyXyXyXyXyXyXyXyXyXyXyXyXyXx d h l < @ yXyXyXyXyXyXyXyXyXyX* H T N d c yXyXyXyXyXyXyXyXyXyXyXyXyX",
"yXyXyXyXyXyXyXyXyXyXyXyXyX7 < 2.i.d , yXyXyXyXyXyXyXyXyXyXyXyXyX7 @ <.i.h , yXyXyXyXyXyXyXyXyXyXyXyX",
"yXyXyXyXyXyXyXyXyXyXyXyXo <.t.0.e.=.b 1 o yXyXyXyXyXyXyXyXyXyXX x z 8.0.y.t.x + yXyXyXyXyXyXyXyXyXyX",
"yXyXyXyXyXyXyXyXyXyXX +   d j h h d < # . yXyXyXyXyXyXyXyXyXyX  , f d h h h ;   @ @ yXyXyXyXyXyXyXyX",
"yXyXyXyXyXyXyXyXyXyX                    5 yXyXyXyXyXyXyXyXyXyX                    + yXyXyXyXyXyXyXyX",
"yXyXyXyXyXyXyXyXyXyXyXyXyXyXyXyXyXyXyXyXyXyXyXyXyXyXyXyXyXyXyXyXyXyXyXyXyXyXyXyXyXyXyXyXyXyXyXyXyXyX",
"yXyXyXyXyXyXyXyXyXyXyXyXyXyXyXyXyXyXyXyXyXyXyXyXyXyXyXyXyXyXyXyXyXyXyXyXyXyXyXyXyXyXyXyXyXyXyXyXyXyX",
"yXyXyXyXyXyXyXyXyXyXyXyXyXyXyXyXyXyXyXyXyXyXyXyXyXyXyXyXyXyXyXyXyXyXyXyXyXyXyXyXyXyXyXyXyXyXyXyXyXyX",
"yXyXyXyXyXyXyXyXyXyXyXyXyXyXyXyXyXyXyXyXyXyXyXyXyXyXyXyXyXyXyXyXyXyXyXyXyXyXyXyXyXyXyXyXyXyXyXyXyXyX"
};
