/* XPM */
static char *result[] = {
/* columns rows colors chars-per-pixel */
"50 50 226 2 ",
"   c #040303",
".  c #0A0504",
"X  c #030B03",
"o  c #0A0B05",
"O  c #05050A",
"+  c #0A0609",
"@  c #050B09",
"#  c #0C0A0A",
"$  c #140B06",
"%  c #190E07",
"&  c #140D09",
"*  c #1B0C0A",
"=  c #170305",
"-  c #051305",
";  c #061B06",
":  c #091B06",
">  c #0B150A",
",  c #071D08",
"<  c #0B1C0B",
"1  c #1C1107",
"2  c #17100A",
"3  c #1B120A",
"4  c #161407",
"5  c #140815",
"6  c #0B1512",
"7  c #141714",
"8  c #280909",
"9  c #3F0A09",
"0  c #340608",
"q  c #251606",
"w  c #2A1705",
"e  c #2A1806",
"r  c #24150A",
"t  c #29150B",
"y  c #261A0A",
"u  c #2B1A0B",
"i  c #261B13",
"p  c #2A1C12",
"a  c #341812",
"s  c #072A06",
"d  c #072309",
"f  c #0B240C",
"g  c #062B08",
"h  c #0B2C0B",
"j  c #072406",
"k  c #17270C",
"l  c #0C330C",
"z  c #0C3D0A",
"x  c #093306",
"c  c #11390D",
"v  c #0F2012",
"b  c #132913",
"n  c #153A12",
"m  c #123312",
"M  c #33210F",
"N  c #3D230E",
"B  c #373B08",
"V  c #2E2214",
"C  c #332214",
"Z  c #3B2512",
"A  c #3E2912",
"S  c #372E12",
"D  c #2D360B",
"F  c #2D2724",
"G  c #342E29",
"H  c #312422",
"J  c #33332E",
"K  c #393027",
"L  c #3B3C3B",
"P  c #383A33",
"I  c #5A0B0C",
"U  c #551413",
"Y  c #4B0F14",
"T  c #650A06",
"R  c #66080D",
"E  c #7D150F",
"W  c #43270D",
"Q  c #43290E",
"!  c #4B2B0C",
"~  c #542F0D",
"^  c #5A2A08",
"/  c #48300A",
"(  c #55300D",
")  c #5E350C",
"_  c #422512",
"`  c #422912",
"'  c #4A2C11",
"]  c #492815",
"[  c #5B291A",
"{  c #4E351B",
"}  c #5A3314",
"|  c #563417",
" . c #6E2706",
".. c #762306",
"X. c #653305",
"o. c #64350C",
"O. c #65380B",
"+. c #69390B",
"@. c #633612",
"#. c #653813",
"$. c #6A3813",
"%. c #673A19",
"&. c #7D3A0A",
"*. c #452E2F",
"=. c #4A3623",
"-. c #732020",
";. c #612A2B",
":. c #064B04",
">. c #094A04",
",. c #0D430B",
"<. c #064A08",
"1. c #0A4A09",
"2. c #094405",
"3. c #16450A",
"4. c #055203",
"5. c #0B5209",
"6. c #0C5B0B",
"7. c #085605",
"8. c #115A0E",
"9. c #0C4810",
"0. c #154914",
"q. c #145215",
"w. c #1B521A",
"e. c #175B13",
"r. c #224106",
"t. c #3A4F0E",
"y. c #3F5110",
"u. c #355F08",
"i. c #0B610C",
"p. c #0C6D0B",
"a. c #086A09",
"s. c #166909",
"d. c #0B7E04",
"f. c #0C730B",
"g. c #0C7C0C",
"h. c #137B0B",
"j. c #16780A",
"k. c #166817",
"l. c #137211",
"z. c #197711",
"x. c #0E6812",
"c. c #38640C",
"v. c #33640B",
"b. c #2D6B0B",
"n. c #2D4B2B",
"m. c #4D4B0B",
"M. c #474E0A",
"N. c #53440B",
"B. c #455906",
"V. c #564411",
"C. c #6A4106",
"Z. c #4C402B",
"A. c #7A5E3F",
"S. c #6A4E30",
"D. c #3F3F42",
"F. c #762E47",
"G. c #6F314B",
"H. c #76344A",
"J. c #7B3455",
"K. c #773654",
"L. c #635D4F",
"P. c #7C5D44",
"I. c #755D45",
"U. c #675552",
"Y. c #796040",
"T. c #756A5B",
"R. c #7A6C5B",
"E. c #786957",
"W. c #60765B",
"Q. c #8C0E0B",
"!. c #890D0A",
"~. c #940B05",
"^. c #9A090A",
"/. c #980807",
"(. c #891408",
"). c #8B0F15",
"_. c #950E11",
"`. c #8B1115",
"'. c #9C1F1D",
"]. c #B70705",
"[. c #A71603",
"{. c #AD0F13",
"}. c #882C05",
"|. c #922103",
" X c #94221C",
".X c #871A22",
"XX c #991822",
"oX c #A61621",
"OX c #852F27",
"+X c #AC2533",
"@X c #B02638",
"#X c #C60808",
"$X c #CA2937",
"%X c #8C2C42",
"&X c #B53249",
"*X c #C63247",
"=X c #984D54",
"-X c #924E45",
";X c #A74D4A",
":X c #974F6B",
">X c #A55278",
",X c #937E6E",
"<X c #8A6666",
"1X c #AB7677",
"2X c #CC455E",
"3X c #C95372",
"4X c #DC516B",
"5X c #068303",
"6X c #098104",
"7X c #0C820A",
"8X c #118009",
"9X c #128014",
"0X c #788974",
"qX c #878776",
"wX c #BC6088",
"eX c #C86D95",
"rX c #D5658E",
"tX c #DF76A2",
"yX c #8D968B",
"uX c #8D9686",
"iX c #979489",
"pX c #878E81",
"aX c #AA9696",
"sX c #BA9597",
"dX c #ADA099",
"fX c None",
/* pixels */
"fXfXfXfXfXfXfXfXfXfXfXfXfXfXfXfXfXfXfXfXfXfXfXfXfXfXfXfXfXfXfXfXfXfXfXfXfXfXfXfXfXfXfXfXfXfXfXfXfXfX",
"fXfXfXfXfXfXfXfXfXfXfXfXfXfXfXfXfXfXfXfXfXfXfXfXfXfXfXfXfXfXfXfXfXfXfXfXfXfXfXfXfXfXfXfXfXfXfXfXfXfX",
"fXfXfXfXfXfXfXfXfXfXfXfXfXfXfXfXfXfXfXfXfXfXfXfXfXfXfXfXfXfXfXfXfXfXfXfXfXfXfXfXfXfXfXfXfXfXfXfXfXfX",
"fXfXfXfXfXfXfXfXfXfXfXfXfXfXfXfXfXfXfXfXfXfXfXfXfXfXfXfXfXfXfXfXfXfXfXfXfXfXfXfXfXfXfXfXfXfXfXfXfXfX",
"fXfXfXfXfXfXfXfXfXfXfXfXfXfXfXfXQ.).%XJ.K.G.K.K.J.J.H.F.F.F.Y = 8 fXfXfXfXfXfXfXfXfXfXfXfXfXfXfXfXfX",
"fXfXfXfXfXfXfXfXfXfXfXfXfX.   9 Q._.3XeX>XG.%XwXeX:XG.F..X).!.E U * O fXfXfXfXfXfXfXfXfXfXfXfXfXfXfX",
"fXfXfXfXfXfXfXfXfXfXfXfXfX.   0 /./.+X&X@XoX+XrXtX2XoXoX^.~.X.M.B #   fXfXfXfXfXfXfXfXfXfXfXfXfXfXfX",
"fXfXfXfXfXfXfXfXfXfXfXfXfX    r o. .X.X.(.].{.4X4X$X].[...X.v.7Xx.X   fXfXfXfXfXfXfXfXfXfXfXfXfXfXfX",
"fXfXfXfXfXfXfXfXfXfXfXfXfX    s l.l.j.h.N.~.[.#X#X]./. .c.8Xj.h.e.@   fXfXfXfXfXfXfXfXfXfXfXfXfXfXfX",
"fXfXfXfXfXfXfXfXfXfXfXfXfX@   ; >.7.g.7XM.(./.].#X].~. .c.j.s.8.n @ O fXfXfXfXfXfXfXfXfXfXfXfXfXfXfX",
"fXfXfXfXfXfXfXfXfXfXfXfXfX    : 1.4.f.7Xb.M.C.[.#X}.N.N.+.&.-X<XU.> . fXfXfXfXfXfXfXfXfXfXfXfXfXfXfX",
"fXfXfXfXfXfXfXfXfXfXfXfXfX7 > g >.>.f.6X6Xd.b.O.}.u.d.B.|.].*X3X=X4 > > fXfXfXfXfXfXfXfXfXfXfXfXfXfX",
"fXfXfXfXfXfXfXfXfXfXfX. X m ,.>.:.:.f.d.d.5Xd.d.d.d.d.v.../.Q.E ^ D ,.;   . fXfXfXfXfXfXfXfXfXfXfXfX",
"fXfXfXfXfXfXfXfXfXfXfX  X m 9.1.:.:.5.4.a.g.d.5Xd.d.d.v...~.^ r.3.>.1.;   + fXfXfXfXfXfXfXfXfXfXfXfX",
"fXfXfXfXfXfXfXfXfXfXfXfXfX7 d x >.>.1.:.a.g.5X5X5Xd.d.l.D / r.>.z s < < fXfXfXfXfXfXfXfXfXfXfXfXfXfX",
"fXfXfXfXfXfXfXfXfXfXfXfXfX    - x x ,.:.7.a.f.f.a.a.f.a.4.>.z x h   O fXfXfXfXfXfXfXfXfXfXfXfXfXfXfX",
"fXfXfXfXfXfXfXfXfXfXfXfXfXO     @ X m ,.:.:.,.<.>.>.<.<.z ,.d .       fXfXfXfXfXfXfXfXfXfXfXfXfXfXfX",
"fXfXfXfXfXfXfXfXfXfXfXfXfXfXfXfXfXfX> - s <.<.>.>.>.>.z - o 7 fXfXfXfXfXfXfXfXfXfXfXfXfXfXfXfXfXfXfX",
"fXfXfXfXfXfXfXfXfXfXfX+ O O O O O + O   j <.>.1.:.:.:.z X O # #   O O + # fXfXfXfXfXfXfXfXfXfXfXfXfX",
"fXfXfXfXfXfXfXfXfXfXi i r q r r i i P L J 1.:.>.:.:.:.3.n.L H t r r r r t i fXfXfXfXfXfXfXfXfXfXfXfX",
"fXfXfXfXfXfXfXfX& $ t | ) X.O.O.o.%.qXiXW.w.w.w.w.w.w.n.pXiXP.#.O.o.@.O.@.] * & fXfXfXfXfXfXfXfXfXfX",
"fXfXfXfXfXfX# . Z | [ ] ! ) O.@.O.@.| =.L.iXuXuXyXyXyXqX=.=.} $.} ' ` ! ] ! | { r + 2 fXfXfXfXfXfXfX",
"fXfXfXfX. 3 A N ' ( ! ` _ M t N o.o.^ ~ S.A.P.P.E.A.P.S.' W ! ' ` * * M _ ! ~ ( ] _ C + + fXfXfXfXfX",
"fXfXfX+   $ ) #.W p p p p #   1 ( ) $.+.X.X.X.X.X.+.o.) ~ ! ' Q C     r p i p u ( $._   O fXfXfXfXfX",
"fXfXfX    % N.V.y . @ + .     % Q ! } @.) ) o.) X.X.O.O.) ) ! Q C             . ] $._     fXfXfXfXfX",
"fXfXfX.   : s.z.h . # fXfX@   % A Q Q Q Q ! Q Q ! ( +.o./ ! Q Q C     fXfXfXO . ' #._ .   fXfXfXfXfX",
"fXfXfX.   ; h.h.x   # fXfX    % Q Q W W Q ` W A Q ^ +.) Q Q Q ` C     fXfXfX  . ' $.W .   fXfXfXfXfX",
"fXfXfX    > t.M.k   O fXfX    o u u A ` W W ` Q A / ( ( ! Q A Q C     fXfXfX    ! $._     fXfXfXfXfX",
"fXfXfX+   8 !.Q.9 = O fXfXfX      . C ` W Q W Q Q W W W Q A Z C V .   fXfXfX  . / V.S     fXfXfXfXfX",
"fXfXfX=   8 ).).9   O fXfXfXfXfX  . C _ W Q A ` W A A Q A A r o #     fXfXfX  X e.z.0.    fXfXfXfXfX",
"fXfXfXU R -.1X1X*.  # fXfXfX  #   O & * % $ & & $ & & % % * $     fXfXfXfXfX  X i.7Xq.    fXfXfXfXfX",
"fXfXfXY R [ 0X0XJ   + fXfX      O # F G G G G G G G G G J G 7     fXfXfXfXfX. X i.8X9.X   fXfXfXfXfX",
"fXfXfXo   o ,.9.< X + fXfXo . + . & L.R.R.R.R.E.E.T.T.T.R.R.K . . . . fXfXfX  X 6.l.9.X   fXfXfXfXfX",
"fXfXfX.   - :.,.d . O O . 3 q r r w M M M C V % & # # 3 V C y w q q 3 $     O   z 7.l     fXfXfXfXfX",
"fXfXfX+   - ,.1.; . + O   1 y e e e w w e y r .       . q y u t w e y $         c 1.l     fXfXfXfXfX",
"fXfXfX#   - b l l m h O   r u w e t 1 3 1 % 2         . 1 % r p e y y $   @ ; d h l < .   fXfXfXfXfX",
"fXfXfXfX. #   X q.9Xx.d > r t r r r & O                 @ . 3 3 q q q o   ; n n > + # X   fXfXfXfXfX",
"fXfXfXfXfXfX  X q.g.g.p.k.f + # o + fXfXfXfXfXfXfXfXfXfXfXfXo . . . . . .   @ -   O # fXfXfXfXfXfXfX",
"fXfXfXfXfXfXfXfXb h h h h @ . + fXfXfXfXfXfXfXfXfXfXfXfXfXfX.   = I T T T U fXfXfXfXfXfXfXfXfXfXfXfX",
"fXfXfXfXfXfXfXfXfX@           + fXfXfXfXfXfXfXfXfXfXfXfXfXfX#   a =X;X'./.E fXfXfXfXfXfXfXfXfXfXfXfX",
"fXfXfXfXfXfXfXfXfXfXfX          fXfXfXfXfXfXfXfXfXfXfXfXfXfX+   F aXsX;X XOXfXfXfXfXfXfXfXfXfXfXfXfX",
"fXfXfXfXfXfXfXfXfXfXfX          X   fXfXfXfXfXfXfXfXfXfXfXfXO . 8 `.'.1XdXaXfXfXfXfXfXfXfXfXfXfXfXfX",
"fXfXfXfXfXfXfXfXfXfXfX    v l j . . fXfXfXfXfXfXfXfXfXfXfXfX# . 8 !./.;.n.D.fXfXfXfXfXfXfXfXfXfXfXfX",
"fXfXfXfXfXfXfXfXfXfXb m l l x f # # fXfXfXfXfXfXfXfXfXfXfXfXfX# 8 U I V l b fXfXfXfXfXfXfXfXfXfXfXfX",
"fXfXfXfXfXfXfXfXb 6 l h.z.x @ 6 fXfXfXfXfXfXfXfXfXfXfXfXfXfXfXfXfXo - 6.7Xe.d > fXfXfXfXfXfXfXfXfXfX",
"fXfXfXfXfXfX  X w.k.l.g.g.6.9.h o   fXfXfXfXfXfXfXfXfXfXfXfX#   > n ,.p.6Xf.l.k.f 5 5 fXfXfXfXfXfXfX",
"fXfXfXfX  .   . < g f h s : > -   . fXfXfXfXfXfXfXfXfXfXfXfX#   X o < g s s g h o + # @ # fXfXfXfXfX",
"fXfXfXfX          O         O   . # fXfXfXfXfXfXfXfXfXfXfXfXfX. .                 .       fXfXfXfXfX",
"fXfXfXfXfXfXfXfXfXfXfXfXfXfXfXfXfXfXfXfXfXfXfXfXfXfXfXfXfXfXfXfXfXfXfXfXfXfXfXfXfXfXfXfXfXfXfXfXfXfX",
"fXfXfXfXfXfXfXfXfXfXfXfXfXfXfXfXfXfXfXfXfXfXfXfXfXfXfXfXfXfXfXfXfXfXfXfXfXfXfXfXfXfXfXfXfXfXfXfXfXfX"
};
