/* XPM */
static char *_66eac15dfba4fccb8bce9ecaf2e8adaiEJoqBtRX7tgLJNv[] = {
/* columns rows colors chars-per-pixel */
"50 50 166 2 ",
"   c None",
".  c #010101",
"X  c #090401",
"o  c #0F0904",
"O  c #070808",
"+  c #0A0A0A",
"@  c #140B05",
"#  c #190D06",
"$  c #130E0C",
"%  c #1D0D09",
"&  c #0F100F",
"*  c #17110D",
"=  c #1A130D",
"-  c #0F1010",
";  c #151413",
":  c #1B1613",
">  c #171918",
",  c #1A1B1A",
"<  c #25160C",
"1  c #2A170B",
"2  c #2D190C",
"3  c #331C0D",
"4  c #201711",
"5  c #261E13",
"6  c #2B1B10",
"7  c #231E1B",
"8  c #321F11",
"9  c #381E10",
"0  c #39210F",
"q  c #22201F",
"w  c #322216",
"e  c #3C2212",
"r  c #30241C",
"t  c #1F2120",
"y  c #232423",
"u  c #2C2723",
"i  c #272926",
"p  c #333633",
"a  c #432514",
"s  c #472915",
"d  c #4C2B16",
"f  c #452719",
"g  c #4F2E18",
"h  c #512F17",
"j  c #512D1A",
"k  c #4F351C",
"l  c #56341C",
"z  c #5E351D",
"x  c #56391E",
"c  c #5A3A1F",
"v  c #64351F",
"b  c #62391E",
"n  c #47372A",
"m  c #513725",
"M  c #503A23",
"N  c #5B3C20",
"B  c #6B3723",
"V  c #6C3D21",
"C  c #743C26",
"Z  c #3C423E",
"A  c #55473B",
"S  c #54493E",
"D  c #684129",
"F  c #754224",
"G  c #7B4227",
"H  c #72472A",
"J  c #7C4228",
"K  c #7A4B28",
"L  c #7C5A3E",
"P  c #434643",
"I  c #454945",
"U  c #494C47",
"Y  c #474B48",
"T  c #4A4E4B",
"R  c #4D524E",
"E  c #5C5242",
"W  c #52544F",
"Q  c #5C564C",
"!  c #4F5550",
"~  c #515651",
"^  c #555A55",
"/  c #5A5D56",
"(  c #575D58",
")  c #5A5E59",
"_  c #605A4E",
"`  c #5D625B",
"'  c #666156",
"]  c #61655D",
"[  c #65685E",
"{  c #636761",
"}  c #656963",
"|  c #696D65",
" . c #676D68",
".. c #6B6F69",
"X. c #6C7067",
"o. c #6D726A",
"O. c #72756C",
"+. c #75796E",
"@. c #797B6F",
"#. c #767A71",
"$. c #7A7D74",
"%. c #804D27",
"&. c #82462A",
"*. c #834C2A",
"=. c #8C4E2C",
"-. c #86522C",
";. c #8A522C",
":. c #92552D",
">. c #945A2F",
",. c #8F5630",
"<. c #925630",
"1. c #965B31",
"2. c #9B5D32",
"3. c #A15E34",
"4. c #9E6134",
"5. c #A36535",
"6. c #A66937",
"7. c #AB6A37",
"8. c #A76338",
"9. c #A9643A",
"0. c #AB6439",
"q. c #A76938",
"w. c #AD6D38",
"e. c #AF693C",
"r. c #AE6C39",
"t. c #B26C3D",
"y. c #B36C3C",
"u. c #B86F3F",
"i. c #B8773F",
"p. c #BA743E",
"a. c #BD783F",
"s. c #BD7341",
"d. c #BD7A41",
"f. c #C07542",
"g. c #C07D42",
"h. c #C37E42",
"j. c #7B8077",
"k. c #7D8076",
"l. c #7E8177",
"z. c #7D8176",
"x. c #7E8176",
"c. c #7E8278",
"v. c #7F8379",
"b. c #7D8279",
"n. c #7F847A",
"m. c #7F857C",
"M. c #7E827A",
"N. c #808377",
"B. c #808276",
"V. c #80837A",
"C. c #82857A",
"Z. c #818579",
"A. c #82867C",
"S. c #81857C",
"D. c #84877C",
"F. c #81857B",
"G. c #83887F",
"H. c #85897F",
"J. c #86897E",
"K. c #82887F",
"L. c #C48043",
"P. c #838980",
"I. c #848980",
"U. c #858980",
"Y. c #888C81",
"T. c #898D85",
/* pixels */
"                                                                                                    ",
"                                                                                                    ",
"                                             . . . . . .                                            ",
"                                        ` P.H.I.G.G.S.b.X.                                          ",
"                                        { b.l.l.l.$...X.{                                           ",
"                                        ^ #.$.$.$.$.....)                                           ",
"                                        R o.#.$.$.$.O.X.!                                           ",
"                                    | X.~ { #.O.+.$.#.O.( O.o.`                                     ",
"                      { #...     .#.$.#.` ^ #.O.#.#.$.X.{ m.#.#.X.~   b.$.                          ",
"                    X.$.$.#.} { m.$.#.+.| ^ l.b.V.l.$...o.$.O.X.#.` $.Y.H.#.^                       ",
"                  ^ #.+.#.#.#.} ..j.$.X.) U ) ] ] ] ` W { O.#.+.] ..H.H.D.Z.O.                      ",
"                    } O.#.+.#.#.` } _ n 8 6 = + + + + + + i R ] { H.Z.B.b.n.}                       ",
"                    R ` +.+.#.#.Q m s a 3 2 @ X . . . . . . . ; ) Z.l.S.#.] R                       ",
"                    #...] O...Q D F l s 3 2 @ X . . . . . . . . + P ..X.] #...                      ",
"                  X.l.$.` ^ S H 2.-.z s 0 3 @ X . . . . . . . . . + p ( j.S.b.`                     ",
"                ~ +.#.l.+.A -.1.9.,.z d e 3 @ X . . . . . . . . . . O P $.S.b.O.U                   ",
"                ) ] O.$.' *.i.5.e.,.b h e 3 # X . . . . . . . . . . . + / $.O.] ~                   ",
"              } #.o.X...L 8.h.w.t.;.b g e 2 # X . . . . . . . . . . . . y ` ..X...                  ",
"              X.+.+.#._ 4.y.L.t.y.-.z d e 2 # X . . . . . . . . . . . . . W +.+.O.`                 ",
"              [ +.O.X.E 6.s.L.w.y.-.l s 0 2 @ X . . . . . . . . . . . . . I O.O.+.]                 ",
"              ` | } ( M 6.y.d.5.y.<.z d e w : o . . . . . . . . . . . . . > ` } { )                 ",
"          } b.b.b.G.] x 5.0.d.6.u.<.b h e u q * . . . . . . . . . . . . . & { b.$.S.S.#.~           ",
"        R #.#.O.X.O./ N 5.y.d.w.y.;.b h 8 q i : . . . . . . . . . . . . . - } $.l.S.#.+.R           ",
"        ~ j.#.Z.V.+./ N 6.y.h.w.t.;.z d w 7 > * . . . . . . . . . . . . . - o.#.$.l.$.+.R           ",
"        T O.#.$.$.$./ N q.s.L.r.e.*.l s r , ; $ . . . . . . . . . . . . . - #.$.$.$.#.O.R           ",
"        Y } } | | O./ N 5.f.h.7.0.%.h a 7 y : @ . . . . . . . . . . . . . - ..+...X.| ] U           ",
"          R R ~ ( ( U N 5.f.g.5.0.-.h e 4 : < # . . . . . . . . . . . . . - R ) ) ~ R U P           ",
"              ..T.V./ x 5.s.a.2.y.-.d e < < 1 # . . . . . . . . . . . . . - } n.$.(                 ",
"              X.T.V.] x 5.s.d.4.y.;.s e 8 8 < # . . . . . . . . . . . . . - #.$.+.`                 ",
"              ] $.B.] x 5.s.d.4.y.-.h a e 2 % o . . . . . . . . . . . . . - o.#.O.`                 ",
"              ] @.$./ c 5.s.h.7.p.:.l s 9 2 @ X . . . . . . . . . . . . . - | X.{ (                 ",
"              ` ..} W N 5.f.a.5.y.;.h s e 2 @ X . . . . . . . . . . . . . - ` ..] ^                 ",
"          T R ~ ( ~ I x 5.s.d.5.0.%.d a e 2 @ X . . . . . . . . . . . . . - R ) ( ~ T               ",
"        Y O.b.S.I.Z.` x 5.s.h.5.2.*.d a e 2 @ X . . . . . . . . . . . . . - ..$.$.$.$.O.!           ",
"        U #.$.$.$.$./ c 5.s.i.>.:.F d a e 2 @ . . . . . . . . . . . . . . - X.....l.S.#.R           ",
"        R $.$.Z.$.O./ x 5.t.i.:.=.F s e 3 1 X . . . . . . . . . . . . . . - #.#.+.B.B.+.~           ",
"        R j.$.B.$.O./ c 5.3.t.*.&.V a 9 3 @ . . . . . . . . . . . . . . . + O.Z.l.l.#.O.~           ",
"        U O.$.#.X...W N 2.:.5.F C b a 3 @ . . . . . . . . . . . . . . . . + { $.#.$.#.} Y           ",
"          ^ ( ^ ) ) T x >.=.<.V B z e @ . . . . O O O O O O O O O O O O X ; Y ) ` ^ ~ P Z           ",
"              ` $.$./ x 1.&.&.v B j @ . O + + + + + + + + + + O O O O + O > { $.$.`                 ",
"              ] +.$.] x >.J G z j $ + + + + + + + + O O O O O O O O O O O , #.#.+.`                 ",
"              ..#.O.] x ;.C J f $ + + + + O O O O O O O                   t o.#.#.]                 ",
"              ..#.X.( x -.C l $ O + + + O O                               i } +.$...                ",
"              ] ..{ W k K f $ + + + + +                                     ` +.$.}                 ",
"              I R U Z 5 5 ; % + +                                           P R ~ R                 ",
"                                                                                                    ",
"                                                                                                    ",
"                                                                                                    ",
"                                                                                                    ",
"                                                                                                    "
};
