/* XPM */
static char *_795f17fad01461cdc9c3231d15fecb57vJFDT7JETPHER2z[] = {
/* columns rows colors chars-per-pixel */
"50 50 187 2 ",
"   c None",
".  c #3D3C3B",
"X  c #592F1B",
"o  c #5B321B",
"O  c #63351E",
"+  c #4D3B2C",
"@  c #5A3E2C",
"#  c #4A3D32",
"$  c #663621",
"%  c #6B3723",
"&  c #6D3923",
"*  c #623F2D",
"=  c #733C25",
"-  c #783E27",
";  c #773E28",
":  c #7A3E29",
">  c #54412F",
",  c #4C463E",
"<  c #4E493E",
"1  c #46423C",
"2  c #564432",
"3  c #5D4534",
"4  c #59493D",
"5  c #6B4027",
"6  c #6A412A",
"7  c #65402C",
"8  c #7C4226",
"9  c #77462B",
"0  c #7D432A",
"q  c #7D492E",
"w  c #644D35",
"e  c #634633",
"r  c #794B30",
"t  c #65503F",
"y  c #6C5339",
"u  c #7E5133",
"i  c #71553B",
"p  c #3E4341",
"a  c #424644",
"s  c #444946",
"d  c #464B48",
"f  c #494E4A",
"g  c #4D4942",
"h  c #534D43",
"j  c #4E514D",
"k  c #555145",
"l  c #5A5246",
"z  c #53524C",
"x  c #5A554B",
"c  c #4F5450",
"v  c #515651",
"b  c #555954",
"n  c #5A5C55",
"m  c #5A5E59",
"M  c #565C58",
"N  c #6D5444",
"B  c #655A4E",
"V  c #715844",
"C  c #615C53",
"Z  c #5D625C",
"A  c #676157",
"S  c #62655E",
"D  c #65685F",
"F  c #6E685D",
"G  c #6A6358",
"H  c #72695E",
"J  c #78695D",
"K  c #5F6560",
"L  c #636661",
"P  c #686766",
"I  c #656A63",
"U  c #696D65",
"Y  c #6B6D69",
"T  c #756C60",
"R  c #6E7167",
"E  c #6D726A",
"W  c #72766C",
"Q  c #75796F",
"!  c #797B6F",
"~  c #727571",
"^  c #767B72",
"/  c #7A7E74",
"(  c #7A7F78",
")  c #814627",
"_  c #83442C",
"`  c #8A472F",
"'  c #844C2B",
"]  c #8D4B2E",
"[  c #85502F",
"{  c #8D532D",
"}  c #91542E",
"|  c #91582F",
" . c #844E30",
".. c #8C4C32",
"X. c #8C4733",
"o. c #914C31",
"O. c #994E37",
"+. c #8D5534",
"@. c #825839",
"#. c #8C5A3C",
"$. c #945332",
"%. c #9B5333",
"&. c #955A31",
"*. c #9C5C34",
"=. c #945638",
"-. c #9C543A",
";. c #9A5939",
":. c #A25736",
">. c #A45B35",
",. c #A7563D",
"<. c #A25E3B",
"1. c #AB5D39",
"2. c #9E6233",
"3. c #A36435",
"4. c #A96E37",
"5. c #A36239",
"6. c #AB633B",
"7. c #AC6B39",
"8. c #A96236",
"9. c #B3663C",
"0. c #B36B3E",
"q. c #BB6D3F",
"w. c #AD713A",
"e. c #B4733C",
"r. c #B9743E",
"t. c #B7793D",
"y. c #BA7A3E",
"u. c #81624A",
"i. c #9C6841",
"p. c #9F7455",
"a. c #AC6442",
"s. c #B56941",
"d. c #BC6D41",
"f. c #B56141",
"g. c #BC7341",
"h. c #BE7A40",
"j. c #B2764C",
"k. c #91796A",
"l. c #C37543",
"z. c #C87747",
"x. c #C57B44",
"c. c #CA7D47",
"v. c #C47248",
"b. c #C67B48",
"n. c #CC7E48",
"m. c #CD774B",
"M. c #D47F4E",
"N. c #7D8176",
"B. c #7E8278",
"V. c #7D827A",
"C. c #C3813F",
"Z. c #BC835F",
"A. c #808377",
"S. c #82857A",
"D. c #83877C",
"F. c #82857B",
"G. c #85897E",
"H. c #85887F",
"J. c #B58669",
"K. c #BE8F71",
"L. c #C58444",
"P. c #CA8346",
"I. c #C68844",
"U. c #CD8B46",
"Y. c #CE814A",
"T. c #CE8149",
"R. c #CF8C48",
"E. c #D5864E",
"W. c #D2844B",
"Q. c #D48A4B",
"!. c #D98B4E",
"~. c #D6914D",
"^. c #DC934F",
"/. c #DA8650",
"(. c #DC8C51",
"). c #DC9251",
"_. c #E19353",
"`. c #E49855",
"'. c #E79958",
"]. c #868787",
"[. c #868A80",
"{. c #8B8F85",
"}. c #878888",
"|. c #908D8A",
" X c #8C9088",
".X c #969899",
"XX c #9C9B9A",
/* pixels */
"                                                                                                    ",
"                                          ^ ^ ^ ^ ^ ^ ^ Q                                           ",
"                                        E [.D.G.D.D.B./ ^ L                                         ",
"                                        I / / / / B.E I E b                                         ",
"                                        n ^ ^ / / B.Q U I f                                         ",
"                                        j W ^ / Q / Q Q U f                                         ",
"                      n           L ^ E j L Q Q E / ^ / I Z B.^ U         U                         ",
"                    Y / E j   Y ^ / ~ Q b b / Q ^ ^ ^ / S ~ / Q ^ ^ Z   / G./                       ",
"                  ~ / ^ ^ E Z N.V./ ^ ~ L M N.N.B.B./ Q Z / ^ Q E Q Z Q {.G.F.Q b                   ",
"                I / Q ^ ^ ^ E Z ^ ^ ^ I n h G H F T H A x U W ^ Q D L D.G.G.D.F.E                   ",
"                v U Q ^ Q Q / U Z A N 6 q ..=.;.' a.<.=.=.9 i B S Z G.F.A.N.F./ m                   ",
"                  v L ^ Q ^ ^ S + 9 %.*.<.6.6.6.&.v.s.0.s.6.6. .* C B./ A.F.E Z f                   ",
"                m / I L Q E n @ 9 *.0.6.0.d.g.g.3.E.n.z.l.g.g.&.<.r h S E I L / S                   ",
"              v / / / m b h 7 { $.5.g.g.x.n.n.z.7._.E.W.Y.n.Y.5.d.0.' 2 f Y F.D./ n                 ",
"              U / ^ N.Q , 5 *.6.*.0.Y.c.Y.W.W.Y.y.'.!.!.E.W./.7.b.x.0.+.3 R B.D.B.W f               ",
"            v m U Q N.n 5 *.0.r.7.h.!.T.W.!.!.W.y.'.!.!.E.W.!.e.W.Y.l.g.$.t Q / W L j               ",
"            Q Q U U R 3 $.6.g.x.e.x.!.W.!.!.!.W.y.`.!.E.W.W.!.r.Q.E.n.l.0.+.x L U U I               ",
"            Q Q ^ Q l ' 6.g.n.Y.e.L.!.!.^.!.!.W.y.`.E.W.W.W.!.r.I.!.Y.z.g.6.e I ^ Q W Z             ",
"          z Q Q Q E N 2.r.z.n.W.r.U.!.!.(.!.E.Y.y._.W.W.W.W.!.r.U.Q.P.x.l.r.#.I W Q Q U             ",
"          j U I I n u 0.l.n.W.!.h.U.!.!.!.W.W.c.y._.E.W.W.E.!.r.U.!.Y.P.z.g.6.l I I U Z             ",
"      Z / / ( V./ k | n.Y.W.!.!.x.Q.(.!.!.W.W.Y.t._.!.!.!.!.^.y.Q.!.!.W.T.c.0.2 U ^ E ^ D.F.I       ",
"    s E ^ ^ E Q ^ k 2.W.W.W.!.(.h.Q.(.E.Q.E.W.W.h._.!.!.!.!.).y.~.(.W.W.E.W.r.w E N.B.G./ Q S p     ",
"    f B.^ N.N.Q W k 3.Y.W.Q.!.!.h.Q.(.W.W.W.W.T.y.^.!.^.!.!.!.r.)./.W.W.W.W.x.y ^ ^ / A./ / S p     ",
"    d ^ ^ N.A.N.Q k 3.Y.W.!.!.E.h.R.(.W.W.W.W.Y.t.^.!.(.!.E.!.r.^./.W.W.W.W.Q.i V.^ / N./ / S p     ",
"    s U E Q W Q ^ k 3.n.n.E.E.E.h.R.(.Y.W.Y.W.Y.y.^.Q.!.(.E.E.r.^.E.W.Y.W.W.Q.i V./ Q ^ Q E n p     ",
"    a m Z Z Z Z L h 3.n.n.W.E.E.h.Q./.Y.Y.Y.W.c.e._.E.!.!.W.E.e.).E.Y.Y.W.W.~.w L I Z S Z n j p     ",
"      a a j L Y Z < 2.W.W.W.W.E.r.U.!.n.n.Y.Y.c.w._.W.W.Q.W.W.0.Q.W.n.Y.Y.W.Q.w b U U b a a p       ",
"          Z {. XN.l 3.W.Y.W.W.W.0.L.!.n.n.Y.Y.c.w.).n.Y.W.Y.W.7.Q.Y.c.c.n.n.U.w V.F./ S             ",
"          b B.D./ l 3.Y.W.W.W.W.h.I.Q.Y.Y.Y.Y.c.w.(.n.n.Y.Y.W.e.Q.c.l.l.l.c.U.y V.^ ^ I             ",
"          v Q N./ k 3.Y.W.W.W.W.h.U.E.T.Y.Y.Y.c.y.!.n.n.n.n.n.e.Q.c.j.J.K.Z.L.i ^ Q E S             ",
"          b W ! W h 3.c.n.Y.Y.W.e.I.E.n.Y.W.W.c.e./.n.Y.T.n.W.w.R.r.V }..Xk.C.i E U Z m             ",
"          z I S m < 3.n.n.Y.n.W.7.L.E.W.Y.Y.W.z.4.(.n.Y.W.W.W.4.U.0.4 P ].J w.w K I Z n             ",
"      c m M Z Z v < 3.Y.n.T.n.Y.e.I.!.W.Y.Y.E.n.r._.Y.Y.W.W.E.7.Q.i.|.m P XXp.> b Z Z m v m v       ",
"    a Q F.G.[.[.B.l 3.Y.n.c.c.n.e.I./.W.Y.W.W.c.7._.Y.Y.W.Y.E.7.R.@.Y a . S u.> ( / / / N.N.S p     ",
"    a ^ ! / N./ Q h 2.n.n.c.c.c.7.h./.Y.W.Y.W.z.2.(.n.c.Y.n.W.7.R.u Y ~ L Y w > ^ L U / G.N.S p     ",
"    d / ^ F.N.W E k 2.c.c.z.l.z.3.t./.n.n.n.Y.x.*.!.c.z.c.c.n.*.L.| # S P h & 2 V.Q Q N.A./ S a     ",
"    d / / N.N.Q E h *.z.z.g.d.d.&.e.M.z.c.c.c.l.2.!.l.l.z.l.c.&.x.8.{ ' ' &.e.2 B.B.N.N./ Q S s     ",
"    s Q / / Q U I h *.v.l.s.9.9.} e.m.d.l.l.l.d.&.W.q.0.g.q.l.| r.9.r.l.9.9.y.> E / ^ ^ / E b p     ",
"      b m b b m b , %.d.9.6.9.6.] w.v.9.q.g.q.9.&.c.6.8.9.9.9.' 0.>.>.>.$.&.7.+ f m m n b d p       ",
"          v Q / Q h ` :.:.:.:.:.) 7.d.1.9.9.9.6.| l.>.>.1.1.1.) 6.$.$.$.' ] 8.+ Y / / L p           ",
"          b W ^ / k _ %.%.%.%.%.8 3.f.:.1.1.1.:.{ d.:.%.:.%.:.8 8.o.) 0 8 ' >.2 B.Q Q S             ",
"          n / Q Q k ; ] ] o.] ] = $.,.o.%.%.:.%.' 1.o.] o.o.o.= $._ = 8 8 8 } 2 / Q ^ I             ",
"          m / Q Q h = _ _ _ _ 0 O ] O.` X.o.o.` ) ,.` 0 _ ` ` $ ` 8 = - = = ) + E Q ^ E             ",
"          b Q U I g % - = - - = O ) o.0 _ ` ` _ 0 -.: = ; 0 - O = = & = = = 8 + U ^ B.Q             ",
"          f b b c 1 $ & & & & $ o = _ = = - = = = X.= & & = & X % % O $ $ O & + v m Z n             ",
"                                                                                                    ",
"                                                                                                    ",
"                                                                                                    ",
"                                                                                                    ",
"                                                                                                    "
};
