/* XPM */
static char *h1705662430[] = {
/* columns rows colors chars-per-pixel */
"50 50 50 1 ",
"  c #070A0F",
". c #0B0E14",
"X c #0D1116",
"o c #061019",
"O c #0E141B",
"+ c #0F181F",
"@ c #11161C",
"# c #13191F",
"$ c #0E1720",
"% c #0F1821",
"& c #131720",
"* c #151C23",
"= c #181E26",
"- c #161F28",
"; c #181F29",
": c #172027",
"> c #1A2026",
", c #17212A",
"< c #1B232B",
"1 c #1E292F",
"2 c #1D2730",
"3 c #1E2932",
"4 c #1E2C39",
"5 c #20272F",
"6 c #21282E",
"7 c #222730",
"8 c #222C34",
"9 c #282F37",
"0 c #242F38",
"q c #253036",
"w c #26313B",
"e c #29343D",
"r c #263541",
"t c #2B3641",
"y c #2D3943",
"u c #2E3C49",
"i c #313C45",
"p c #323E4A",
"a c #34414C",
"s c #38434E",
"d c #344351",
"f c #394652",
"g c #3B4954",
"h c #3E4D5A",
"j c #3E505E",
"k c #404E59",
"l c #42505C",
"z c #455563",
"x c #465866",
"c c #4B5966",
/* pixels */
"y73838w34raq,wa444rxjahdxjdjddd4rdd44rrrq141e00232",
"8,<880wwe4qraaaaaaaxdwadxdahudddrddaadrr1qrw088283",
"*-<38eywwwwydgaaajwd4adaardjddrjareaddq44qrqew0,;;",
"O14<1ey43weyddwwdjw44ddw14jjudrdharegdq18qqqyyw,,,",
"%<3,3we0eq1ra0,waawqaadewugw,drsfarayyqyq881ee0*22",
"<--2w83waq:<w0384wdqawaeyuw-,dewwaae431yq8w<3,,*,2",
"<,*2e018ee3;,et0-rgearrqre<20e<,wagyew3w<<411&,*23",
",4<;0y8,q3w020yi4wyya41qau1ey8:41eaeyiq1:+:10><12<",
"<<1128ee*,wey33e8t7titt7eqei0<0d111qaa3ww<o;022<,2",
"*,1128tto,08e7319t8tttpiq3eeeeyy1qaweq1ew4*20233--",
"::,1288<o<02e03;7t9tttppyqwetyy0waaqqqqqww28w128--",
":+:122;o,802eew1;89tttpisq1ww00twee<4aq3887807,<-;",
"o+68<*<28888iew8ww8wtppir;78740ue8wqqe00w83108;-;<",
"+:<1;*798340pe0q888tppir<70070ttu14aw<<yw73<80;;2;",
"1**>,;223233e78w27ettt4270tt00r8y3wy8,,w833-,8;<-;",
":*<6<<272<2,018e89tw0222070itr88eqw7,83,<34**<*1**",
"#:1<1<,8<<7<<tw;<wti0<80223etw0wt81*;088138<=**<>>",
"##::,<,w3202<3<;7r8908w0*<308880e2<;<2708<<89<;<6>",
"****:<,w2802,,*227;28wt0-233<37w0<22222eq<:185;=>>",
"<::*<1<7<28<22;0,<-280982308<*3e027388<081#+=5;=##",
">#>*50=,,27;2e7022-77280838e3%%w828223,<:#+O+*77##",
"##*#58;*223*208288222-8e838ew,%<328<18<;:+&><&=7##",
"@@*@<1;,<,2,*2228w2;-207844qq32<2<8222<21>>1<&@&#>",
"@@*@&;;2;%2<%*;0202*,0w-wq3,<34,<*22<;<086<<<=@.##",
"=**:<<,:>**><=;771&*587>*155<55=5&=<<&+*8<@&=<=&#>",
"=**=*><<6**=<>;7***<511<&*<5895=9*@&*<#&&***&*==##",
"&*<>=*>16>&=<<<<&&=5<=<<*=>188;&9<=@<1&&o&*=**==##",
"+&<<=&=1<>>=<<<5*&=55=&*<<<==**&=<8<<5<<=*=;5<=#>>",
"@#*>**><**><5;<2<*:11=&&><5<&@*>@=95=5<<1;==66###>",
"#####&*6@*66;;22<<=*<<;&@=57<&*1<;5<<8>;<<<<>>#>>#",
">@XX##=#@*;<<;<<=<<**<<*+&<75<;<655;56<>&<<=#>#>##",
"#@.X66#X**===5<;&17=%&<<*&*<5<*#<=<<<5*<<;==>>>>#>",
"XX#>*><1&>=@@**#:<1:****<::::&+@*&,&*1;;<*#:<:@XX@",
"@@##*==:><<#XO##<<:::<*#<<:%##&=*&*<;*@<:<:*::#XXX",
"####<<>:*<<#X+*>1::**>>#1<::**:<*&<<*&O*&<<*#:#XXX",
"###>*<<:>><#+#>6:<<:***<<11<<:::*<7&%*&+%<<:*#+.##",
"###>==*,>>::##>1:<<:**<<>:<<5<:%:,1&*<***:==*@XO##",
"#####@+::##*:#>><<::<<<=****><::<+&*><*11*&@OXX#@X",
"@###@O+*#XO#>#:><,:*><<&*==&&:<<>oO:<*&1<*#@XX@@..",
"@@##@#&*#+#>:##>**1<===<=<<;**:<&+&&&*%*&**@@#@.. ",
"&&@@&>=@>::::>##*:*<<<<*;;=====@+#>#X+O#&*#>#XX@@@",
"@XX&&@@&##+**:=&+&<<>&=<;;;=*===+#>#+#+#O#>>#XXX@#",
"X.X&&@@=+****===++*,;***=;;;*===##>##:##O#:#X@@.XX",
".X@XX&=&#:#:**==&%&&<<=&==;*=;<=++:##:##O*#o.X@@.X",
"X@XXX&&&*---&&&&*&++**&%&*=*>7==##*#*>##@>#X.@@@XX",
"@X XXX@=-***&&@@&**%++&*&=*;>7=@##:##>**+#*@@#@@@X",
"XX XX.O*&&&&*&@X&*=*%+&;***=>>=@##*@+##:O@@#@@@@XX",
" X@X.@@&&%&&**&O;***=*****=*&&&@###@+#@*+X@@XXX@XX",
"XX@XX@@&@X#=>&@>>>>@>&6X&>>&&@&=>X@###@#@X@X@@OXXX",
"XXXXX#X=@X@>>&X>>&&X>@6X&=>@@&&=:X@#*#X###XXX@@XXX"
};
