/* XPM */
static char *result[] = {
/* columns rows colors chars-per-pixel */
"50 50 226 2 ",
"   c #EC9D2B",
".  c #EE9B2C",
"X  c #EF9A2D",
"o  c #ED9E2C",
"O  c #F2972F",
"+  c #F5952F",
"@  c #F1982E",
"#  c #F1992E",
"$  c #F69132",
"%  c #F79132",
"&  c #F59232",
"*  c #F59332",
"=  c #F59233",
"-  c #F59333",
";  c #F69232",
":  c #F79332",
">  c #F39532",
",  c #F49530",
"<  c #F59530",
"1  c #F49531",
"2  c #F49432",
"3  c #F59432",
"4  c #F69433",
"5  c #F79433",
"6  c #F69533",
"7  c #F39335",
"8  c #F79134",
"9  c #F59234",
"0  c #F59335",
"q  c #F69234",
"w  c #F79234",
"e  c #F69335",
"r  c #F49336",
"t  c #F59336",
"y  c #F59337",
"u  c #F69336",
"i  c #F69337",
"p  c #F39436",
"a  c #F39437",
"s  c #F59434",
"d  c #F49435",
"f  c #F59435",
"g  c #F49436",
"h  c #F59436",
"j  c #F49437",
"k  c #F59437",
"l  c #F59537",
"z  c #F89132",
"x  c #F89332",
"c  c #F89732",
"v  c #F69932",
"b  c #F79A32",
"n  c #F79B32",
"m  c #F69A33",
"M  c #F79A33",
"N  c #F69B33",
"B  c #F79B33",
"V  c #F79F31",
"C  c #F79C33",
"Z  c #F89A31",
"A  c #F89B31",
"S  c #F89833",
"D  c #F89933",
"F  c #F89A32",
"G  c #F89B32",
"H  c #F89B33",
"J  c #F99B33",
"K  c #F89C32",
"L  c #F89D32",
"P  c #F99F32",
"I  c #F99F33",
"U  c #F49338",
"Y  c #F59338",
"T  c #F49339",
"R  c #F29538",
"E  c #F29539",
"W  c #F39539",
"Q  c #F3943A",
"!  c #F3943B",
"~  c #F2953B",
"^  c #F3953B",
"/  c #F2963B",
"(  c #F3963B",
")  c #F2973B",
"_  c #F49438",
"`  c #F59438",
"'  c #F49538",
"]  c #F59538",
"[  c #F59439",
"{  c #F49539",
"}  c #F69438",
"|  c #F69439",
" . c #F69539",
".. c #F49639",
"X. c #F69639",
"o. c #F5943A",
"O. c #F4953A",
"+. c #F5953A",
"@. c #F6943A",
"#. c #F4963A",
"$. c #F3953C",
"%. c #F1973D",
"&. c #F2963C",
"*. c #F2963D",
"=. c #F1973F",
"-. c #F2963E",
";. c #F2973F",
":. c #F6973C",
">. c #F1983D",
",. c #F59A3F",
"<. c #F89E39",
"1. c #EAA029",
"2. c #EAA129",
"3. c #EAA229",
"4. c #EBA02A",
"5. c #ECA12B",
"6. c #ECA32A",
"7. c #E9A529",
"8. c #EBA529",
"9. c #EBA62A",
"0. c #ECA42A",
"q. c #EEA82B",
"w. c #F0AB2D",
"e. c #F7A033",
"r. c #F7A133",
"t. c #F9A032",
"y. c #F9A132",
"u. c #F9A033",
"i. c #F9A133",
"p. c #F8A333",
"a. c #F9A333",
"s. c #F8A433",
"d. c #F8A334",
"f. c #F5AE30",
"g. c #F8A833",
"h. c #FAAB33",
"j. c #FBAE32",
"k. c #F8A834",
"l. c #F9A834",
"z. c #F9A934",
"x. c #FAAB34",
"c. c #FBAF34",
"v. c #FBAF35",
"b. c #F8A43B",
"n. c #F6B131",
"m. c #F6B231",
"M. c #F8B432",
"N. c #F8B532",
"B. c #FBB533",
"V. c #F9B632",
"C. c #FBB633",
"Z. c #FAB733",
"A. c #FBB733",
"S. c #FCB733",
"D. c #FAB035",
"F. c #FBB035",
"G. c #FBB234",
"H. c #FCB335",
"J. c #FAB634",
"K. c #FAB734",
"L. c #FCB933",
"P. c #FDBA33",
"I. c #FBB934",
"U. c #FBB935",
"Y. c #FCB834",
"T. c #FCB934",
"R. c #FDB934",
"E. c #FCB835",
"W. c #FDB835",
"Q. c #FCB935",
"!. c #FDB935",
"~. c #FCBA34",
"^. c #FDBA34",
"/. c #FDBA35",
"(. c #FCB836",
"). c #FCB936",
"_. c #FCBC39",
"`. c #FCBD3C",
"'. c #EF9942",
"]. c #EF9A43",
"[. c #F19740",
"{. c #F29740",
"}. c #F39740",
"|. c #F09841",
" X c #F09943",
".X c #F69B42",
"XX c #F09944",
"oX c #F59D44",
"OX c #F69F47",
"+X c #F8A443",
"@X c #F7A847",
"#X c #F5A149",
"$X c #F7A148",
"%X c #F6A149",
"&X c #F6A24B",
"*X c #FBBE41",
"=X c #FCBE40",
"-X c #FBBF44",
";X c #F7A951",
":X c #F6AB56",
">X c #F7B260",
",X c #F6BF74",
"<X c #F7BF75",
"1X c #F7BF76",
"2X c #FBC045",
"3X c #FAC14D",
"4X c #FAC24C",
"5X c #F9C557",
"6X c #FAC660",
"7X c #FACD6B",
"8X c #FACE6C",
"9X c #FBCE6C",
"0X c #F8C178",
"qX c #F8C77E",
"wX c #FAD179",
"eX c #F9D07C",
"rX c #F8CF86",
"tX c #F8CE87",
"yX c #F8CB88",
"uX c #FAD786",
"iX c #FAD289",
"pX c #F9D488",
"aX c #F8D08C",
"sX c #FAD58C",
"dX c #FAD58D",
"fX c None",
/* pixels */
"fXfXfXfXfXfXfXfXfXfXfXfXfXfXfXfXfXfXfXfXfXfXfXfXfXfXfXfXfXfXfXfXfXfXfXfXfXfXfXfXfXfXfXfXfXfXfXfXfXfX",
"fXfXfXfXfXfXfXfXfXfXfXfXfXfXfXfXfXfXfXfXfXfXfXfXfXfXfXfXfXfXfXfXfXfXfXfXfXfXfXfXfXfXfXfXfXfXfXfXfXfX",
"fXfXfXfXfXfXfXfXfXfXfXfXfXfXfXfXfXfXfXfXfXfXfXfXfXfXfXfXfXfXfXfXfXfXfXfXfXfXfXfXfXfXfXfXfXfXfXfXfXfX",
"fXfXfXfXfXfXfXfXfXfXfXfXfXfXfXfXfXfXfXfXfXfXfXfXfXfXfXfXfXfXfXfXfXfXfXfXfXfXfXfXfXfXfXfXfXfXfXfXfXfX",
"fXfXfXfXfXfXfXfXfXfXfXfXfXfXfXfXfXfXfXfXfXfXfXfXfXfXfXfXfXfXfXfXfXfXfXfXfXfXfXfXfXfXfXfXfXfXfXfXfXfX",
"fXfXfXfXfXfXfXfXfXfXfXfXfXfXfXfXfXfXfXfXfXfXfXfXfXfXfXfXfXfXfXfXfXfXfXfXfXfXfXfXfXfXfXfXfXfXfXfXfXfX",
"fXfXfXfXfXfXfXfXfXfXfXfXfXfXfXfXfXfXfXfXfXfXfXfXfXfXfXfXfXfXfXfXfXfXfXfXfXfXfXfXfXfXfXfXfXfXfXfXfXfX",
"fXfXfXfXfXfXfXfXfXfXfXfXfXfXfXfXfXfXfXfXfXfXfXfXfXfXfXfXfXfXfXfXfXfXfXfXfXfXfXfXfXfXfXfXfXfXfXfXfXfX",
"fXfXfXfXfXfXfXfXfXfXfXfXfXfXfXfXfXfXfXfXfXfXfXfXfXfXfXfXfXfXfXfXfXfXfXfXfXfXfXfXfXfXfXfXfXfXfXfXfXfX",
"fXfXfXfXfXfXfXfXfXfXfXfXfXfXfXfXfXfXfXfXfXfXfXfXfXfXfXfXfXfXfXfXfXfXfXfXfXfXfXfXfXfXfXfXfXfXfXfXfXfX",
"fXfXfXfXfXfXfXfXfXfXfXfXfXfXfXfXfXfXfXfXfXfXfXfXfXfXfXfXfXfXfXfXfXfXfXfXfXfXfXfXfXfXfXfXfXfXfXfXfXfX",
"fXfXfXfXfXfXfXfXfXfXfXfXfXfXfXfXfXfXfXfXfXfXfXfXfXfXfXfXfXfXfXfXfXfXfXfXfXfXfXfXfXfXfXfXfXfXfXfXfXfX",
"fXfXfXfXfXfXfXfXfXfXfX7 = & p fXfXfXfXfXfXfXfXfXfXfXfXfXfXfXfXfXfXfXfXfXfXfXfXfXfXfXfXfXfXfXfXfXfXfX",
"fXfXfXfXfXfXfXfXfXQ :.%X%X%X#X#.*.fXfXfXfXfXfXfXfXfXfXfXfXfXfXfXfXfXfXfXfXfXfXfXfXfXfXfXfXfXfXfXfXfX",
"fXfXfXfXfXfXfXfX] .X>XsXdXdXiX:X,.W fXfXfXfXfXfXfXfXfXfXfXfXfXfXfXfXfXfXfXfXfXfXfXfXfXfXfXfXfXfXfXfX",
"fXfXfXfXfXfXfXfXX.yXeX*X=X=X2XpX0Xd fXfXfXfXfXfXfXfXfXfXfXfXfXfXfXfXfXfXfXfXfXfXfXfXfXfXfXfXfXfXfXfX",
"fXfXfXfXfXfX-...oXaXwX/.^.^._.uXqX,.+.{.fXfXfXfXfXfXfXfXfXfXfXfXfXfXfXfXfXfXfXfXfXfXfXfXfXfXfXfXfXfX",
"fXfXfXfXfXfXy ;XrX5X*X(.W.W.).-X6XtX$X` fXfXfXfXfXfXfXfXfXfXfXfXfXfXfXfXfXfXfXfXfXfXfXfXfXfXfXfXfXfX",
"fXfXfXfXfXfX` b.4X_.j.G F G C G.`.3X<.| fXfXfXfXfXfXfXfXfXfXfXfXfXfXfXfXfXfXfXfXfXfXfXfXfXfXfXfXfXfX",
"fXfXfXfXfXfX[ y.~./.h.% q 9 : v.^.L.G @.fXfXfXfXfXfXfXfXfXfXfXfXfXfXfXfXfXfXfXfXfXfXfXfXfXfXfXfXfXfX",
"fXfXfXfXfXfX[ y.Q.a.S u fX].f M k.Q.K ^ fXfXfXfXfXfXfXfXfXfXfXfXfXfXfXfXfXfXfXfXfXfXfXfXfXfXfXfXfXfX",
"fXfXfXfXfXfX[ y.Y.b ! fXfXfXfX_ e.U.K r &.&./ / / / / / / / / / / / / / / / / / / &.$.'.fXfXfXfXfXfX",
"fXfXfXfXfXfX[ y.Y.n $.fXfXfXfX_ r.I.K % % % % % % % % % % % % % % % % % % % % % % % z } fXfXfXfXfXfX",
"fXfXfXfXfXfX[ y.Y.n $.fXfXfXfX_ r.I.A OX,X1X<X<X<X1X1X<X1X1X<X<X1X<X<X1X1X<X<X<X1X<X&Xy fXfXfXfXfXfX",
"fXfXfXfXfXfX[ y.Y.n $.fXfXfXfX_ r.I.A +X7X8X8X8X8X8X8X8X8X8X8X8X8X8X9X8X8X8X8X8X8X8X@Xy fXfXfXfXfXfX",
"fXfXfXfXfXfX[ y.Y.n $.fXfXfXfX_ r.I.H K B.C.C.C.C.C.C.C.C.C.C.C.C.C.S.P.S.C.C.C.S.R.t.Y fXfXfXfXfXfX",
"fXfXfXfXfXfX[ y.Y.n ^ fXfXfXfX_ r.I.K c p.s.s.s.s.s.s.s.s.s.s.s.s.p.z.!.x.d.s.p.l.Q.u.Y fXfXfXfXfXfX",
"fXfXfXfXfXfX[ y.Y.n $.fXfXfXfX_ r.I.K $ * * * * * * * * * * * * ; ; C E.I ; * & N (.u.Y fXfXfXfXfXfX",
"fXfXfXfXfXfX[ y.Y.b Q fXfXfXfXj e.U.K r %.%.%.%.%.%.%.%.%.%.%.) - % J E.P 0 >.a B (.u.Y fXfXfXfXfXfX",
"fXfXfXfXfXfX[ i.Q.s.m k fX Xh N g.Q.K O.fXfXfXfXfXfXfXfXfXfXfXfX=.t J E.P U fX~ B E.u.Y fXfXfXfXfXfX",
"fXfXfXfXfXfX[ V N.Q.x.z w 8 x D./.Q.K o.fXfXfXfXfXfXfXfXfXfXfXfXfX&.H Q.t.T fXE N E.y.Y fXfXfXfXfXfX",
"fXfXfXfXfXfX| # 7.V.c.G Z Z K H.T.M.b @.fXfXfXfXfXfXfXfXfXfXfXfXfX( D F.K T fXR v F.L Y fXfXfXfXfXfX",
"fXfXfXfXfXfX| O 5.n.K.W.W.W.W.Z.f.5.+  .fXfXfXfXfXfXfXfXfXfXfXfXfXXX' 5 ] [.fX|.{ 6 l }.fXfXfXfXfXfX",
"fXfXfXfXfXfX=.d 1 4.w.A.~.T.J.q.o 3 g {.fXfXfXfXfXfXfXfXfXfXfXfXfXfXfX^ fXfXfXfXfX&.fXfXfXfXfXfXfXfX",
"fXfXfXfXfXfXfXfX*   3.9.M.m.8.3.. e fXfXfXfXfXfXfXfXfXfXfXfXfXfXfXfXfXfXfXfXfXfXfXfXfXfXfXfXfXfXfXfX",
"fXfXfXfXfXfXfXfX' > X 2.0.6.1.@ 2 O.fXfXfXfXfXfXfXfXfXfXfXfXfXfXfXfXfXfXfXfXfXfXfXfXfXfXfXfXfXfXfXfX",
"fXfXfXfXfXfXfXfXfX^ 4 < , , 1 s ;.fXfXfXfXfXfXfXfXfXfXfXfXfXfXfXfXfXfXfXfXfXfXfXfXfXfXfXfXfXfXfXfXfX",
"fXfXfXfXfXfXfXfXfXfXfXi u u ` fXfXfXfXfXfXfXfXfXfXfXfXfXfXfXfXfXfXfXfXfXfXfXfXfXfXfXfXfXfXfXfXfXfXfX",
"fXfXfXfXfXfXfXfXfXfXfXfXfXfXfXfXfXfXfXfXfXfXfXfXfXfXfXfXfXfXfXfXfXfXfXfXfXfXfXfXfXfXfXfXfXfXfXfXfXfX",
"fXfXfXfXfXfXfXfXfXfXfXfXfXfXfXfXfXfXfXfXfXfXfXfXfXfXfXfXfXfXfXfXfXfXfXfXfXfXfXfXfXfXfXfXfXfXfXfXfXfX",
"fXfXfXfXfXfXfXfXfXfXfXfXfXfXfXfXfXfXfXfXfXfXfXfXfXfXfXfXfXfXfXfXfXfXfXfXfXfXfXfXfXfXfXfXfXfXfXfXfXfX",
"fXfXfXfXfXfXfXfXfXfXfXfXfXfXfXfXfXfXfXfXfXfXfXfXfXfXfXfXfXfXfXfXfXfXfXfXfXfXfXfXfXfXfXfXfXfXfXfXfXfX",
"fXfXfXfXfXfXfXfXfXfXfXfXfXfXfXfXfXfXfXfXfXfXfXfXfXfXfXfXfXfXfXfXfXfXfXfXfXfXfXfXfXfXfXfXfXfXfXfXfXfX",
"fXfXfXfXfXfXfXfXfXfXfXfXfXfXfXfXfXfXfXfXfXfXfXfXfXfXfXfXfXfXfXfXfXfXfXfXfXfXfXfXfXfXfXfXfXfXfXfXfXfX",
"fXfXfXfXfXfXfXfXfXfXfXfXfXfXfXfXfXfXfXfXfXfXfXfXfXfXfXfXfXfXfXfXfXfXfXfXfXfXfXfXfXfXfXfXfXfXfXfXfXfX",
"fXfXfXfXfXfXfXfXfXfXfXfXfXfXfXfXfXfXfXfXfXfXfXfXfXfXfXfXfXfXfXfXfXfXfXfXfXfXfXfXfXfXfXfXfXfXfXfXfXfX",
"fXfXfXfXfXfXfXfXfXfXfXfXfXfXfXfXfXfXfXfXfXfXfXfXfXfXfXfXfXfXfXfXfXfXfXfXfXfXfXfXfXfXfXfXfXfXfXfXfXfX",
"fXfXfXfXfXfXfXfXfXfXfXfXfXfXfXfXfXfXfXfXfXfXfXfXfXfXfXfXfXfXfXfXfXfXfXfXfXfXfXfXfXfXfXfXfXfXfXfXfXfX",
"fXfXfXfXfXfXfXfXfXfXfXfXfXfXfXfXfXfXfXfXfXfXfXfXfXfXfXfXfXfXfXfXfXfXfXfXfXfXfXfXfXfXfXfXfXfXfXfXfXfX",
"fXfXfXfXfXfXfXfXfXfXfXfXfXfXfXfXfXfXfXfXfXfXfXfXfXfXfXfXfXfXfXfXfXfXfXfXfXfXfXfXfXfXfXfXfXfXfXfXfXfX"
};
