/* XPM */
static char *result[] = {
/* columns rows colors chars-per-pixel */
"46 50 173 2 ",
"   c #020203",
".  c #0A0A0C",
"X  c #0E0E12",
"o  c #100F15",
"O  c #121216",
"+  c #14141A",
"@  c #1C1C1C",
"#  c #1A1716",
"$  c #231D1C",
"%  c #24221A",
"&  c #1E1E23",
"*  c #1F2123",
"=  c #232323",
"-  c #2F2726",
";  c #24252B",
":  c gray17",
">  c #35332E",
",  c #3F392F",
"<  c #2B2C33",
"1  c #2E2D3B",
"2  c #282932",
"3  c #312F33",
"4  c #2D3038",
"5  c #343434",
"6  c #393933",
"7  c #343539",
"8  c #3C3C3D",
"9  c #37393C",
"0  c #492F2A",
"q  c #453D3C",
"w  c #563A30",
"e  c #484336",
"r  c #44423D",
"t  c #49493E",
"y  c #4E443D",
"u  c #57443D",
"i  c #57573C",
"p  c #363A43",
"a  c #3C3D42",
"s  c #3D3D4A",
"d  c #413A4F",
"f  c #493C4B",
"g  c #3F4349",
"h  c #434342",
"j  c #4B4441",
"k  c #4D4D44",
"l  c #45434E",
"z  c #4E4D4E",
"x  c #514641",
"c  c #544941",
"v  c #524F4F",
"b  c #594E48",
"n  c #555346",
"m  c #55534C",
"M  c #444352",
"N  c #474850",
"B  c #4A4B55",
"V  c #4E4C5D",
"C  c #4A4550",
"Z  c #515152",
"A  c #5E5453",
"S  c #5C5B54",
"D  c #53565E",
"F  c #585758",
"G  c #5D5D5C",
"H  c #61564F",
"J  c #615F4A",
"K  c #75564B",
"L  c #645C51",
"P  c #635F5F",
"I  c #63634E",
"U  c #69684E",
"Y  c #69695B",
"T  c #776F5E",
"R  c #4F4F60",
"E  c #4F5560",
"W  c #545464",
"Q  c #5B5B63",
"!  c #5B556C",
"~  c #5E5C6A",
"^  c #635D6F",
"/  c #625F62",
"(  c #665E74",
")  c #646462",
"_  c #63646C",
"`  c gray42",
"'  c #6D6963",
"]  c #786D62",
"[  c #7B7464",
"{  c #666672",
"}  c #6B6B74",
"|  c #6E6E7E",
" . c #666478",
".. c #6E7076",
"X. c #747474",
"o. c #7E7E7E",
"O. c #74707D",
"+. c #807560",
"@. c #8A7768",
"#. c #8E7A68",
"$. c #82776B",
"%. c #947D6C",
"&. c #937C73",
"*. c #7E8063",
"=. c #838267",
"-. c #878864",
";. c #8B8A68",
":. c #91906B",
">. c #978776",
",. c #9E8378",
"<. c #9B8277",
"1. c #A18B7D",
"2. c #A1917E",
"3. c #A3A37B",
"4. c #676685",
"5. c #746B8D",
"6. c #717080",
"7. c #7C7087",
"8. c #7C7C85",
"9. c #7B798C",
"0. c #887D97",
"q. c #848283",
"w. c #888887",
"e. c #83848C",
"r. c #8A8B8B",
"t. c #8A8585",
"y. c #9E9182",
"u. c #878794",
"i. c #89899B",
"p. c #8B8B97",
"a. c #959392",
"s. c #9C9C9C",
"d. c #91919C",
"f. c #A99187",
"g. c #AF9889",
"h. c #A59385",
"j. c #B19985",
"k. c #ACAB83",
"l. c #B4AF8B",
"z. c #B8B78E",
"x. c #BFBD92",
"c. c #8E8CA5",
"v. c #908EA0",
"b. c #9591A4",
"n. c #9A99A5",
"m. c #9998AB",
"M. c #A1A0A9",
"N. c #A9A9A9",
"B. c #A6A4B5",
"V. c #AAAABD",
"C. c #AEB0B3",
"Z. c #C5AB9A",
"A. c #C3A795",
"S. c #CCB09E",
"D. c #CAB5A2",
"F. c #D5B9A8",
"G. c #D2BCA4",
"H. c #C9CA99",
"J. c #DEDEA5",
"K. c #E4C0AC",
"L. c #E5C6B1",
"P. c #EACABB",
"I. c #F1D3BD",
"U. c #E3E4AB",
"Y. c #ADABC5",
"T. c #B7B7C8",
"R. c #BBBBCB",
"E. c #B3B3C7",
"W. c #BDBDD0",
"Q. c #D3CED9",
"!. c #F7DDC4",
"~. c #E9E9E9",
"^. c None",
/* pixels */
"^.^.^.^.^.^.^.^.^.^.^.^.^.^.^.^.^.^.^.^.^.^.^.^.^.^.^.^.^.^.^.^.^.^.^.^.^.^.^.^.^.^.^.^.^.^.",
"^.^.^.^.^.^.^.^.^.^.^.^.^.^.^.^.^.^.^.^.^.^.^.^.^.^.^.^.^.^.^.^.^.^.^.^.^.^.^.^.^.^.^.^.^.^.",
"^.^.^.^.^.^.^.^.^.^.^.^.^.^.^.^.^.^.^.^.^.^.^.^.^.^.^.^.^.^.^.^.^.^.^.^.^.^.^.^.^.^.^.^.^.^.",
"^.^.^.^.^.^.^.^.^.^.^.^.^.^.^.^.^.^.^.^.^.^.^.^.^.^.^.^.^.^.^.^.^.^.^.^.^.^.^.^.^.^.^.^.^.^.",
"^.^.^.^.^.^.^.^.^.^.^.^.^.^.^.^.^.^.^.^.^.S S 5 6 z ^.^.^.^.^.^.^.^.^.^.^.^.^.^.^.^.^.^.^.^.",
"^.^.^.^.^.^.^.^.^.^.^.^.^.^.^.^.^.^.^.^.k -.3.k Y L X.^.^.^.^.^.^.^.^.^.^.^.^.^.^.^.^.^.^.^.",
"^.^.^.^.^.^.^.^.^.^.^.^.^.^.^.^.^.^.^.6 3.z.l.$.k.[ 5 k a.^.^.^.^.^.^.^.^.^.^.^.^.^.^.^.^.^.",
"^.^.^.^.^.^.^.^.^.^.^.^.^.^.^.^.^.^.^.=.H.x.l.J.U.H.m > ^.^.^.^.^.^.^.^.^.^.^.^.^.^.^.^.^.^.",
"^.^.^.^.^.^.^.^.^.^.^.^.^.^.^.^.^.^.X.;.k.T =.;.x.U.n k ^.^.^.^.^.^.^.^.^.^.^.^.^.^.^.^.^.^.",
"^.^.^.^.^.^.^.^.^.^.^.^.^.^.^.^.^.^.m U *.6 #.j.S :.U k ^.^.^.^.^.^.^.^.^.^.^.^.^.^.^.^.^.^.",
"^.^.^.^.^.^.^.^.^.^.^.^.^.^.^.^.^.^.^.6 I q #.Z.n I n Y ^.^.^.^.^.^.^.^.^.^.^.^.^.^.^.^.^.^.",
"^.^.^.^.^.^.^.^.^.^.^.^.^.^.^.^.^.^.^.Y , y.Z.L.G.+.e S ^.^.^.^.^.^.^.^.^.^.^.^.^.^.^.^.^.^.",
"^.^.^.^.^.^.^.^.^.^.^.^.^.^.^.^.^.^.^.i # y I.K.>.i r ^.^.^.^.^.^.^.^.^.^.^.^.^.^.^.^.^.^.^.",
"^.^.^.^.^.^.^.^.^.^.^.^.^.^.^.^.^.^.^.t = M , ] 5 r @ 8.^.^.^.^.^.^.^.^.^.^.^.^.^.^.^.^.^.^.",
"^.^.^.^.^.^.^.^.^.^.^.^.^.^.^.^.^.^.h g Q } w b 6.} 8.Z ^.^.^.^.^.^.^.^.^.^.^.^.^.^.^.^.^.^.",
"^.^.^.^.^.^.^.^.^.^.^.^.^.^.^.^.^.5 Q i.n.{ %.b B b.v._ a ^.^.^.^.^.^.^.^.^.^.^.^.^.^.^.^.^.",
"^.^.^.^.^.^.^.^.^.^.^.^.^.^.^.^.^./ 9.! m.O.B i.B.m.v.W.u./ ^.^.^.^.^.^.^.^.^.^.^.^.^.^.^.^.",
"^.^.^.^.^.^.^.^.^.^.^.^.^.^.^.^.Y x f ^ M T.` p.W.{ d b.C.X.X.^.^.^.^.^.^.^.^.^.^.^.^.^.^.^.",
"^.^.^.^.^.^.^.^.^.^.^.^.^.^.^.^.- !.K f / ( ~ e.Y.p < l 0 # ^.^.^.^.^.^.^.^.^.^.^.^.^.^.^.^.",
"^.^.^.^.^.^.^.^.^.^.^.^.^.^.^.^.A D.t ^.^.V W ^ 5.C 8.q S.<.q.^.^.^.^.^.^.^.^.^.^.^.^.^.^.^.",
"^.^.^.^.^.^.^.^.^.^.^.^.^.^.^.^.2.r ^.^._ M V ! 4.2 X.a.F.L ^.^.^.^.^.^.^.^.^.^.^.^.^.^.^.^.",
"^.^.^.^.^.^.^.^.^.^.^.^.^.^.^.' K ^.^.^.a ^ { _ | X.= w.j.Z ^.^.^.^.^.^.^.^.^.^.^.^.^.^.^.^.",
"^.^.^.^.^.^.^.^.^.^.^.^.^.^.^.A &.^.^.F V 9.i.0.R.B.{ j f.^.^.^.^.^.^.^.^.^.^.^.^.^.^.^.^.^.",
"^.^.^.^.^.^.^.^.^.^.^.^.^.^.v Z.1.j ^.h V.R._ e.R.R.Q L.P.L ^.^.^.^.^.^.^.^.^.^.^.^.^.^.^.^.",
"^.^.^.^.^.^.^.^.^.^.^.^.^.^.H h.f Y ^.7 T.D   ; R.E.] x S.c ^.^.^.^.^.^.^.^.^.^.^.^.^.^.^.^.",
"^.^.^.^.^.^.^.^.^.^.^.^.^.^.H L S ^.a d._ * + h n.B.% $ 1.w ^.^.^.^.^.^.^.^.^.^.^.^.^.^.^.^.",
"^.^.^.^.^.^.^.^.^.^.^.^.^.^.^.c q ^.8 8 * E O s.B 9   y @.c ^.^.^.^.^.^.^.^.^.^.^.^.^.^.^.^.",
"^.^.^.^.^.^.^.^.^.^.^.^.^.^.^.` ^.^.^.^.a W O N.O C # v 5 w.^.^.^.^.^.^.^.^.^.^.^.^.^.^.^.^.",
"^.^.^.^.^.^.^.^.^.^.^.^.^.^.^.^.^.^.^.^.< W o n.s E : ^.^.^.^.^.^.^.^.^.^.^.^.^.^.^.^.^.^.^.",
"^.^.^.^.^.^.^.^.^.^.^.^.^.^.^.^.^.^.^.^.; W * ` g D . ^.^.^.^.^.^.^.^.^.^.^.^.^.^.^.^.^.^.^.",
"^.^.^.^.^.^.^.^.^.^.^.^.^.^.^.^.^.^.^.^.< W 1 w.; p = ^.^.^.^.^.^.^.^.^.^.^.^.^.^.^.^.^.^.^.",
"^.^.^.^.^.^.^.^.^.^.^.^.^.^.^.^.^.^.^.^.@ B = r.  X . ^.^.^.^.^.^.^.^.^.^.^.^.^.^.^.^.^.^.^.",
"^.^.^.^.^.^.^.^.^.^.^.^.^.^.^.^.^.^.^.^.; B . * X 1 ; a ^.^.^.^.^.^.^.^.^.^.^.^.^.^.^.^.^.^.",
"^.^.^.^.^.^.^.^.^.^.^.^.^.^.^.^.^.^.^.^.; V < _ X 4 X ^.^.^.^.^.^.^.^.^.^.^.^.^.^.^.^.^.^.^.",
"^.^.^.^.^.^.^.^.^.^.^.^.^.^.^.^.^.^.^.^.; W 5 a.O o < ^.^.^.^.^.^.^.^.^.^.^.^.^.^.^.^.^.^.^.",
"^.^.^.^.^.^.^.^.^.^.^.^.^.^.^.^.^.^.^.^.< W 9 s.( 0.7.) ^.^.^.^.^.^.^.^.^.^.^.^.^.^.^.^.^.^.",
"^.^.^.^.^.^.^.^.^.^.^.^.^.^.^.^.^.^.^.^.p W l ..O.Q.X.^.^.^.^.^.^.^.^.^.^.^.^.^.^.^.^.^.^.^.",
"^.^.^.^.^.^.^.^.^.^.^.^.^.^.^.^.^.^.^.: B D V 5 r g 8 ^.^.^.^.^.^.^.^.^.^.^.^.^.^.^.^.^.^.^.",
"^.^.^.^.^.^.^.^.^.^.^.^.^.^.^.^.^.^.^.5 * W 4 . ^.^.^.^.^.^.^.^.^.^.^.^.^.^.^.^.^.^.^.^.^.^.",
"^.^.^.^.^.^.^.^.^.^.^.^.^.^.^.^.^.^.^.= s W R O z ^.^.^.^.^.^.^.^.^.^.^.^.^.^.^.^.^.^.^.^.^.",
"^.^.^.^.^.^.^.^.^.^.^.^.^.^.^.^.^.^.^.@ 2 p l & ` ^.^.^.^.^.^.^.^.^.^.^.^.^.^.^.^.^.^.^.^.^.",
"^.^.^.^.^.^.^.^.^.^.^.^.^.^.^.^.^.^.^.: G ` Q @ ^.^.^.^.^.^.^.^.^.^.^.^.^.^.^.^.^.^.^.^.^.^.",
"^.^.^.^.^.^.^.^.^.^.^.^.^.^.^.^.^.^.F M.~.~.B.* ^.^.^.^.^.^.^.^.^.^.^.^.^.^.^.^.^.^.^.^.^.^.",
"^.^.^.^.^.^.^.^.^.^.^.^.^.^.^.^.^.^.Z 8.r.e.} 9 ^.^.^.^.^.^.^.^.^.^.^.^.^.^.^.^.^.^.^.^.^.^.",
"^.^.^.^.^.^.^.^.^.^.^.^.^.^.^.^.^.^.^.^.^.^.^.^.^.^.^.^.^.^.^.^.^.^.^.^.^.^.^.^.^.^.^.^.^.^.",
"^.^.^.^.^.^.^.^.^.^.^.^.^.^.^.^.^.^.^.^.^.^.^.^.^.^.^.^.^.^.^.^.^.^.^.^.^.^.^.^.^.^.^.^.^.^.",
"^.^.^.^.^.^.^.^.^.^.^.^.^.^.^.^.^.^.^.^.^.^.^.^.^.^.^.^.^.^.^.^.^.^.^.^.^.^.^.^.^.^.^.^.^.^.",
"^.^.^.^.^.^.^.^.^.^.^.^.^.^.^.^.^.^.^.^.^.^.^.^.^.^.^.^.^.^.^.^.^.^.^.^.^.^.^.^.^.^.^.^.^.^.",
"^.^.^.^.^.^.^.^.^.^.^.^.^.^.^.^.^.^.^.^.^.^.^.^.^.^.^.^.^.^.^.^.^.^.^.^.^.^.^.^.^.^.^.^.^.^.",
"^.^.^.^.^.^.^.^.^.^.^.^.^.^.^.^.^.^.^.^.^.^.^.^.^.^.^.^.^.^.^.^.^.^.^.^.^.^.^.^.^.^.^.^.^.^."
};
